<?xml version="1.0" standalone="no"?>
<!DOCTYPE svg PUBLIC "-//W3C//DTD SVG 1.1//EN" "http://www.w3.org/Graphics/SVG/1.1/DTD/svg11.dtd" >
<svg xmlns="http://www.w3.org/2000/svg">
<metadata>Generated by IcoMoon</metadata>
<defs>
<font id="icomoon" horiz-adv-x="1024">
<font-face units-per-em="1024" ascent="960" descent="-64" />
<missing-glyph horiz-adv-x="1024" />
<glyph unicode="&#x20;" horiz-adv-x="512" d="" />
<glyph unicode="&#x21;" glyph-name="submit" d="M758 418v-374c0-16-14-30-30-30h-624c-16 0-28 14-28 30v680c0 16 12 30 28 30h434c22 22 44 44 68 66h-506c-54 0-98-42-98-96v-690c0-54 44-98 98-98h634c54 0 98 44 98 98v456c-26-24-50-48-74-72zM886 960l136-136c0 0-24-24-76-76l-136 136c52 52 76 76 76 76zM784 206h46v-46h-46zM750 824l136-136c-18-18-36-36-56-54-138-140-308-310-350-352-78-80-208-136-240-104-30 32 24 160 104 240 48 48 256 256 402 402 2 2 4 2 4 4z" />
<glyph unicode="&#x22;" glyph-name="adyen-v2-28" d="M4 176h238v-240h-238zM4 568h238v-240h-238zM4 960h238v-240h-238zM392 176h240v-240h-240zM392 568h240v-240h-240zM392 960h240v-240h-240zM782 176h238v-240h-238zM782 568h238v-240h-238zM782 960h238v-240h-238z" />
<glyph unicode="&#x23;" glyph-name="mail" d="M988 744h-950c-22 0-38-16-38-36v-520c0-20 16-36 38-36h948c22 0 38 16 38 36v520c0 20-16 36-36 36zM410 382l92-60c2-2 6-2 10-2s8 0 10 4l82 52 328-174h-854zM50 230v380l322-204zM642 402l332 216v-394zM974 694v-30l-462-302-462 294v38c0 0 924 0 924 0z" />
<glyph unicode="&#x24;" glyph-name="adyen-v2-20" d="M888 458v-438c0-34-28-54-54-54h-644c-34 0-54 26-54 54v438c0 34 28 54 54 54h644c26 0 54-28 54-54zM774 804v-226h-92v206c0 32-28 52-54 52h-220c-32 0-52-26-52-52v-206h-100v226c0 66 54 126 126 126h272c60 0 120-60 120-126zM442 152h240v-80h-240v-72l-112 112 112 114zM608 438l114-112-114-114v74h-238v78h238z" />
<glyph unicode="&#x25;" glyph-name="adyen-v2-23" d="M450-10h-240v654h240v262h364v-334h54v346c0 22-18 40-42 40h-404l-266-266v-714c0-22 18-40 40-40h254z" />
<glyph unicode="&#x26;" glyph-name="present" d="M910 678h-290c140 32 206 74 206 168 0 54-46 106-118 106s-152-42-196-136c-42 94-124 136-196 136s-118-52-118-106c0-94 66-136 206-168h-290c-26 0-46-20-46-46v-296h420v308c8 0 20 12 24 22 4-10 16-20 24-22v-308h420v296c0 26-20 46-46 46zM706 904c42 0 72-32 72-62 0-72-164-124-228-124-6 0-14 6-14 14 0 64 102 172 170 172zM246 842c0 30 30 62 72 62 68 0 170-108 170-172 0-8-6-14-14-14-62 0-228 52-228 124zM488 286v-342h-374c-24 0-46 20-46 46v296zM956 286v-296c0-26-20-46-46-46h-374v342z" />
<glyph unicode="&#x27;" glyph-name="adyen-v2" d="M128 596l348 348c10 10 24 16 36 16s26-6 36-16l348-348c14-14 18-36 10-54s-26-32-46-32h-198v-348c0-28-24-50-50-50h-200c-26 0-50 22-50 50v348h-198c-20 0-38 14-46 32s-4 40 10 54zM916 168v-122h-808v122h-108v-150c0-44 36-82 82-82h860c46 0 82 38 82 82v150z" />
<glyph unicode="&#x28;" glyph-name="settings" d="M924 448c0-32 8-60 26-86 18-24 44-44 74-62-12-38-28-72-44-104-32 10-62 8-90-2-28-12-52-28-76-50-44-48-58-104-42-166-34-18-66-32-100-42-16 30-40 52-68 70-30 18-60 28-92 28s-64-10-92-28c-30-18-54-40-72-70-32 10-66 24-100 42 16 62 4 118-40 166-46 44-102 56-166 40-18 34-32 68-42 104 30 16 52 40 70 68 18 30 28 60 28 92s-10 62-28 86c-18 24-40 44-70 62 10 34 24 70 42 104 32-10 62-8 90 2 28 12 52 28 76 50 44 44 56 100 40 166 34 18 68 32 100 42 18-30 42-52 72-70 28-18 60-28 92-28s62 10 92 28c28 18 52 40 68 70 34-10 66-24 100-42-16-66-2-122 42-166 24-22 48-38 76-50 28-10 58-12 90-2 16-34 32-68 44-104-30-18-56-38-74-62-18-26-26-54-26-86zM512 226c30 0 60 6 86 18 28 10 50 26 72 46 20 22 36 44 46 72 12 26 18 56 18 86 0 62-22 114-64 158-44 42-96 64-158 64-30 0-60-6-88-18-28-10-52-26-72-46-20-22-36-44-48-72-10-26-16-56-16-86s6-60 16-86c12-28 28-52 48-72s44-36 72-46c28-12 58-18 88-18z" />
<glyph unicode="&#x29;" glyph-name="pos-1" d="M766 954h-508c-30 0-54-24-54-52v-10l2-574c0-28 22-52 52-52h26v-278c0-26 20-46 44-46h368c24 0 44 20 44 46v278h26c30 0 52 24 52 52l2 574v10c0 28-24 52-54 52zM288 500h106c4 0 6 0 6-4v-56c0-2-2-4-6-4h-106c-2 0-4 2-4 4v56c0 4 2 4 4 4zM284 530v56c0 2 2 4 4 4h106c4 0 6-2 6-4v-56c0-2-2-4-6-4h-106c-2 0-4 2-4 4zM460 500h104c4 0 6 0 6-4v-56c0-2-2-4-6-4h-104c-4 0-6 2-6 4v56c0 4 2 4 6 4zM454 530v56c0 2 2 4 6 4h104c4 0 6-2 6-4v-56c0-2-2-4-6-4h-104c-4 0-6 2-6 4zM460 410h104c4 0 6-4 6-6v-56c0-2-2-6-6-6h-104c-4 0-6 4-6 6v56c0 2 2 6 6 6zM696-38h-368c-14 0-24 10-24 26v278h56v-28c0-12 10-20 22-20h52c10 0 20 8 20 20v28h152v-228h20v228h94v-278c0-16-10-26-24-26zM378 266h60v-28c0-2-2-4-4-4h-52c-4 0-4 2-4 4zM312 648c-2 0-6 4-6 6v212c0 4 4 6 6 6h400c2 0 4-2 4-6v-212c0-2-2-6-4-6 0 0-400 0-400 0zM284 404c0 2 2 6 4 6h106c4 0 6-4 6-6v-56c0-2-2-6-6-6h-106c-2 0-4 4-4 6 0 0 0 56 0 56zM742 348c0-2-4-6-6-6h-106c-4 0-4 4-4 6v56c0 2 0 6 4 6h106c2 0 6-4 6-6zM742 440c0-2-4-4-6-4h-106c-4 0-4 2-4 4v56c0 4 0 4 4 4h106c2 0 6 0 6-4zM742 530c0-2-4-4-6-4h-106c-4 0-4 2-4 4v56c0 2 0 4 4 4h106c2 0 6-2 6-4zM542 760c-2 2-6 6-10 8s-8 4-12 4v34c4 0 8 0 12-2 2 0 6-2 8-2l6 20c-4 0-8 2-12 2-4 2-8 2-14 2v16h-18v-16c-10-2-16-6-22-10-6-6-8-14-8-24 0-6 0-10 2-14s4-8 8-12c2-2 6-4 10-6 2-2 6-4 10-6v-36c-6 0-10 0-14 2s-6 2-8 4l-8-20c4-2 8-4 12-4 6-2 12-2 18-2v-16h18v16c10 2 18 6 24 12s8 14 8 26c0 6-2 10-2 14-2 4-6 6-8 10zM510 778c-4 2-8 4-10 6-4 2-4 6-4 10s0 6 2 8 6 4 12 4zM524 722c-2-2-6-4-10-4v32c4-2 8-6 10-8 4-2 4-6 4-8 0-6 0-8-4-12z" />
<glyph unicode="&#x2a;" glyph-name="apple-android" d="M986 386c-20 0-36-16-36-36v-146c0-20 16-38 36-38s36 16 36 38v146c0 20-16 36-36 36zM544 386c-20 0-38-16-38-36v-146c0-20 18-38 38-38s36 16 36 38v146c0 20-16 36-36 36zM602 386v-266c0-16 14-30 30-30h32v-80c0-20 16-38 36-38s38 18 38 38v80h56v-80c0-20 16-38 36-38 22 0 38 18 38 38v80h32c16 0 30 14 30 30v266zM842 524l30 44c2 2 2 6 0 6-2 2-6 2-8-2l-32-44c-20 8-42 12-68 12-24 0-46-4-66-12l-32 44c-2 4-6 4-8 2-2 0-2-4 0-6l30-44c-48-24-82-66-86-114h326c-4 48-38 90-86 114zM696 454c-10 0-18 8-18 18s8 18 18 18c10 0 18-8 18-18s-8-18-18-18zM836 454c-10 0-18 8-18 18s8 18 18 18c10 0 18-8 18-18s-8-18-18-18zM460 532c-12-28-18-40-34-66-22-34-54-76-94-78-34 0-44 24-92 24-46 0-56-24-92-24-40 2-70 40-92 74-64 96-70 208-30 268 26 44 70 68 112 68s68-22 102-22c34 0 54 22 102 22 36 0 76-20 104-54-92-50-76-178 14-212zM306 836c18 24 30 56 26 88-28-2-62-20-82-44-18-22-32-54-26-86 30 0 62 18 82 42z" />
<glyph unicode="&#x2b;" glyph-name="adyen-v2-1" d="M966 884h-908c-32 0-58-26-58-60v-200h1024v200c0 34-26 60-58 60zM822 724h-118c-12 0-24 10-24 24s12 24 24 24h118c14 0 24-10 24-24s-10-24-24-24zM928 714c-20 0-34 16-34 34s14 34 34 34c18 0 34-16 34-34s-16-34-34-34zM0 578v-260h1024v260zM822 424h-118c-12 0-24 10-24 24s12 24 24 24h118c14 0 24-10 24-24s-10-24-24-24zM928 414c-20 0-34 16-34 34s14 34 34 34c18 0 34-16 34-34s-16-34-34-34zM0 272v-200c0-34 26-60 58-60h908c32 0 58 26 58 60v200zM822 118h-118c-12 0-24 10-24 24s12 24 24 24h118c14 0 24-10 24-24s-10-24-24-24zM928 108c-20 0-34 16-34 34 0 20 14 34 34 34 18 0 34-14 34-34 0-18-16-34-34-34z" />
<glyph unicode="&#x2c;" glyph-name="adyen-v2-2" d="M788 828v-244h-96v216c0 34-28 60-60 60h-232c-32 0-58-26-58-60v-216h-108v244c0 72 60 132 132 132h290c74 0 132-60 132-132zM852 520h-680c-32 0-58-28-58-60v-464c0-34 26-60 58-60h680c32 0 58 26 58 60v464c0 32-26 60-58 60z" />
<glyph unicode="&#x2d;" glyph-name="adyen-v2-3" d="M388-64c-34 0-60 14-82 40l-260 346c-18 22-24 46-20 74s16 52 40 68c22 16 46 22 74 18s50-16 66-38l172-228 434 696c14 22 36 38 64 44 26 8 52 4 76-12 22-16 38-38 44-64 8-28 2-54-12-76l-508-822c-10-12-22-24-38-32-14-10-30-14-44-14 0 0-6 0-6 0z" />
<glyph unicode="&#x2e;" glyph-name="adyen-v2-4" d="M590 682c-26 16-52 32-78 48-90 56-168 110-168 182 0 26-20 46-46 46-24 0-44-20-44-46h-2c0-100 86-170 182-230 26-16 52-32 78-48 58-34 110-66 140-102h-218c-16-14-28-30-32-46h276c2-6 2-12 2-16v-44c0-18-8-36-20-54h-234c16-16 38-30 64-46 0 0 0 0 2 0h118c-14-12-30-22-48-34 16-10 34-20 50-32 2 0 2 0 2 0 8-6 16-10 26-14 70 50 128 104 130 174 2 2 2 4 2 6v44c0 86-86 152-182 212zM590 214c-26 16-52 32-78 48-88 54-166 102-168 162 0 2 0 2 0 2v44c0 50 52 92 120 134-26 14-52 30-78 46-74-50-132-108-132-180v-50c2-84 86-148 180-206 26-16 52-32 78-48 90-56 168-112 168-182 0-26 20-46 46-46 24 0 46 20 46 46 0 100-86 170-182 230zM606 796h2c-14-12-30-24-48-36 26-14 52-30 78-46 74 52 134 114 134 198 0 26-22 46-46 46-26 0-46-20-46-46 0-24-10-48-26-68h-210c18-18 38-34 62-48zM418 100c14 12 30 24 46 34-26 16-52 32-78 48-74-52-134-116-134-198 0-26 22-46 46-46 26 0 46 20 46 46 0 24 10 48 26 68h210c-18 18-38 34-62 48z" />
<glyph unicode="&#x2f;" glyph-name="adyen-v2-5" d="M796 706l-234-186c-18-12-48-12-64 0v418c16 6 46 6 64 0l234-184c18-12 18-36 0-48zM270 730c96 70 198 82 268 82 72-6 96-42 96-42 36-12 42-34 30-70s-12-24-48-36c0 0 0 0-6 0s-12 6-18 6c-18 6-36 6-66 12-52 0-118-6-184-54s-108-120-120-192c-12-78 6-156 54-222s120-100 192-112c76-12 154 6 220 52 66 48 90 108 102 156s12 90 12 90c-6 36 24 66 60 72s66-24 72-60c0-6 6-60-12-132s-60-166-156-238c-192-144-454-102-598 84-132 196-90 466 102 604z" />
<glyph unicode="&#x30;" glyph-name="innovation" d="M550 104c6-6 10-14 10-24 0 0 0 0 0-2-2-22-48-54-48-54s-46 32-48 54c0 2 0 2 0 2 0 10 4 18 10 24-24-8-38-24-38-44 0-30 60-98 68-106l8-10 8 10c8 8 68 76 68 106 0 20-14 36-38 44zM512 170c-22 0-42 2-64 4-6 2-14 4-22 4 4-14 10-30 16-46l2-4 4-2c14-4 30-6 44-8 6 0 14-2 20-2s14 2 20 2 30 4 44 8l4 2 2 4c6 16 12 32 16 46-8 0-16-2-22-4-22-2-42-4-64-4zM698 442c0-12-2-26-2-38-6-62-20-122-42-180-2-8-6-14-8-22l110-40v178zM370 224c-22 58-36 118-42 180 0 12-2 26-2 38l-58-102v-178l110 40c-2 8-6 14-8 22zM616 772c-36 78-78 128-92 142-2 18-6 30-8 34-2 0-2 2-2 2l-2 2-2-2c0 0 0-2-2-2-2-4-6-16-8-34-14-14-56-64-92-142 68 14 140 14 208 0zM632 738c-2 6-4 10-6 14-76 16-152 16-228 0-2-4-4-8-6-14-34-82-50-170-50-262s16-182 50-266l2-4 4-2c38-10 76-16 114-16s76 6 114 16l4 2 2 4c34 84 50 174 50 266s-16 180-50 262zM512 456c-34 0-60 32-60 70s26 70 60 70c32 0 60-32 60-70s-26-70-60-70z" />
<glyph unicode="&#x31;" glyph-name="network" d="M676 386c122 0 220-100 220-220 0-122-98-220-220-220-120 0-218 98-218 220 0 46 12 88 36 122l-96 96c-28-18-62-30-98-30-94 0-172 78-172 172 0 92 72 168 164 172h8c40 0 78-14 106-36l114 112c-10 18-16 36-16 58 0 44 26 84 62 104 18 8 36 14 56 14 64 0 118-54 118-118 0-66-54-118-118-118-22 0-42 6-58 16l-116-116c16-26 24-56 24-88 0-36-10-70-30-98l94-94c38 32 88 52 140 52z" />
<glyph unicode="&#x32;" glyph-name="admpl" d="M868 862c-6 18-24 26-42 20l-266-100c-12 14-30 22-50 22-38 0-68-30-72-66l-264-98c-16-8-26-26-18-44 4-14 18-22 30-22 4 0 8 0 12 2l270 100c10-8 26-14 42-14 34 0 62 24 70 56l270 102c16 6 26 24 18 42zM194 558l-194-404c0-78 84-142 186-142 106 0 188 66 188 142zM50 154l142 302 132-302zM846 790l-196-402c0-80 84-144 188-144s186 66 186 144zM700 388l144 302 132-302z" />
<glyph unicode="&#x33;" glyph-name="document-diagram" d="M120 908v-920c0-24 20-44 44-44h696c24 0 44 20 44 44v670l-294 294h-446c-24 0-44-20-44-44zM180 892h400v-288h264v-600h-664zM580 664h128v-60h-128zM258 284h152v-162h-152zM438 376h148v-254h-148zM614 512h154v-390h-154z" />
<glyph unicode="&#x34;" glyph-name="d-security" d="M788 826v-242h-98v216c0 32-26 60-58 60h-232c-32 0-58-28-58-60v-216h-106v242c0 74 58 132 130 132h290c74 0 132-58 132-132zM852 520h-680c-32 0-58-28-58-60v-464c0-32 26-58 58-58h680c32 0 58 26 58 58v464c0 32-26 60-58 60zM464 76l-146 146 62 62 84-84 180 180 62-62z" />
<glyph unicode="&#x35;" glyph-name="developers" d="M984 772h-944c-22 0-40-18-40-42v-564c0-24 18-42 40-42h944c22 0 40 18 40 42v564c0 24-18 42-40 42zM102 556l78 38-78 44v38l126-72v-22l-126-62zM350 482h-122v38h122z" />
<glyph unicode="&#x36;" glyph-name="tablet" d="M866 150v596h-796v-596zM944 408c24 0 40 18 40 40s-16 40-40 40c-22 0-40-18-40-40s18-40 40-40zM1024 746v-610c0-22-18-40-40-40h-944c-22 0-40 18-40 40v624c0 22 18 40 40 40h944c22 0 40-18 40-40z" />
<glyph unicode="&#x37;" glyph-name="adyen-v2-14" d="M850 958h-676c-38 0-70-30-70-70v-12l2-870c0-38 30-68 68-68h676c38 0 70 30 70 68v882c0 40-32 70-70 70zM238 842c0 4 6 8 8 8h530c4 0 6-4 6-8v-282c0-4-2-8-6-8h-530c-2 0-8 4-8 8zM362 34c0-4-2-8-6-8h-140c-4 0-6 4-6 8v74c0 4 2 8 6 8h140c4 0 6-4 6-8zM362 154c0-4-2-8-6-8h-140c-4 0-6 4-6 8v72c0 4 2 10 6 10h140c4 0 6-6 6-10zM362 272c0-4-2-8-6-8h-140c-4 0-6 4-6 8v74c0 4 2 8 6 8h140c4 0 6-4 6-8zM362 392c0-4-2-8-6-8h-140c-4 0-6 4-6 8v72c0 4 2 10 6 10h140c4 0 6-6 6-10zM588 34c0-4-2-8-6-8h-140c-4 0-6 4-6 8v74c0 4 2 8 6 8h140c4 0 6-4 6-8zM588 154c0-4-2-8-6-8h-140c-4 0-6 4-6 8v72c0 4 2 10 6 10h140c4 0 6-6 6-10zM588 272c0-4-2-8-6-8h-140c-4 0-6 4-6 8v74c0 4 2 8 6 8h140c4 0 6-4 6-8zM588 392c0-4-2-8-6-8h-140c-4 0-6 4-6 8v72c0 4 2 10 6 10h140c4 0 6-6 6-10zM814 34c0-4-2-8-6-8h-140c-4 0-6 4-6 8v74c0 4 2 8 6 8h140c4 0 6-4 6-8zM814 154c0-4-2-8-6-8h-140c-4 0-6 4-6 8v72c0 4 2 10 6 10h140c4 0 6-6 6-10zM814 272c0-4-2-8-6-8h-140c-4 0-6 4-6 8v74c0 4 2 8 6 8h140c4 0 6-4 6-8zM814 392c0-4-2-8-6-8h-140c-4 0-6 4-6 8v72c0 4 2 10 6 10h140c4 0 6-6 6-10zM552 700c-4 4-8 6-14 10-4 2-10 4-14 8v44c4 0 10-2 14-4 4 0 8-2 10-2l8 26c-4 2-8 2-14 4s-12 2-18 4v20h-24v-22c-14-2-24-6-30-14-8-8-12-18-12-32 0-8 2-14 4-20 2-4 6-8 10-12s8-8 12-10c6-4 10-6 16-8v-48c-8 0-14 2-20 4-4 0-8 2-12 4l-8-28c4-2 8-4 16-4 6-2 14-4 24-4v-20h24v22c12 2 22 8 30 16s12 20 12 34c0 6-2 14-4 18-2 6-6 10-10 14zM510 724c-6 2-10 6-14 8-4 4-6 8-6 12 0 6 2 10 4 14 2 2 8 4 16 4zM530 650c-4-4-10-6-16-6v42c6-2 10-6 14-10 4-2 6-6 6-12s-2-10-4-14z" />
<glyph unicode="&#x38;" glyph-name="judge" d="M472 726l-132-280-252 118 132 282zM224 860l258-120c24-12 52-2 62 20 12 24 0 52-24 62l-256 122c-24 10-52 2-62-22-12-22 0-50 22-62zM336 430l-256 122c-24 10-52 0-64-22-10-22 0-50 24-62l258-120c24-12 52-2 62 20 10 24 0 52-24 62zM398 530l48 102 560-262-48-102zM724 36c-10 0-20 10-20 24 0 12-88 24-192 24-106 0-192-12-192-24 0-14-14-24-30-22-16 0-42-8-58-20 0 0 0 0 0-22v-22c22-10 146-18 276-18 132 0 256 8 276 18 0 0 0 0 0 22v22c-20 10-48 18-60 18z" />
<glyph unicode="&#x39;" glyph-name="play" d="M512 960c-282 0-512-230-512-512s230-512 512-512c282 0 512 230 512 512s-230 512-512 512zM354 236v430l404-216z" />
<glyph unicode="&#x3a;" glyph-name="adyen-v2-6" d="M590 848c-68 0-88-8-106-8s-132 70-168 90c-2 2-6 2-10 2-10 0-10-102-10-144-104-58-182-148-212-248h-84v-194h84c34-104 120-192 224-248v-134h142v66h210v-66h144v140c138 82 220 224 220 340 0 160-114 404-434 404zM214 478c-24 0-40 6-40 48 0 58 74 110 90 110 14 0 32-16 32-46 0-54-38-112-82-112zM832 552c-36 0-44 76-198 126-46 16-66 26-66 42 0 18 18 36 46 36s94-34 146-62c50-28 104-76 104-98s-14-44-32-44z" />
<glyph unicode="&#x3b;" glyph-name="adyen-v2-7" d="M1002 468h-76c-10 212-182 384-394 394v76c0 10-8 20-20 20s-20-10-20-20v-76c-212-10-384-182-394-394h-76c-12 0-20-8-20-20s8-20 20-20h76c10-212 182-384 394-394v-76c0-10 8-20 20-20s20 10 20 20v76c212 10 384 182 394 394h76c12 0 20 8 20 20s-8 20-20 20zM886 468h-158c-10 104-92 186-196 196v158c190-12 342-164 354-354zM574 428h114c-10-82-74-146-156-156v114c0 10-8 20-20 20s-20-10-20-20v-114c-82 10-146 74-156 156h114c10 0 20 8 20 20s-10 20-20 20h-114c10 82 74 146 156 156v-114c0-10 8-20 20-20s20 10 20 20v114c82-10 146-74 156-156h-114c-10 0-20-8-20-20s10-20 20-20zM492 822v-158c-104-10-186-92-196-196h-158c10 190 164 342 354 354zM138 428h158c10-104 92-186 196-196v-158c-190 10-342 164-354 354zM532 74v158c104 10 186 92 196 196h158c-10-190-164-344-354-354z" />
<glyph unicode="&#x3c;" glyph-name="adyen-v2-8" d="M1002 468h-76c-10 212-182 384-394 394v76c0 10-8 20-20 20s-20-10-20-20v-76c-212-10-384-182-394-394h-76c-12 0-20-8-20-20s8-20 20-20h76c10-212 182-384 394-394v-76c0-10 8-20 20-20s20 10 20 20v76c212 10 384 182 394 394h76c12 0 20 8 20 20s-8 20-20 20zM532 74v66c-6 0-14 0-20 0s-14 0-20 0v-66c-190 10-342 164-354 354h68c0 6-2 14-2 20s2 14 2 20h-68c12 190 164 344 354 354v-66c6 0 14 0 20 0s14 0 20 0v66c190-12 342-164 354-354h-68c0-6 2-14 2-20s-2-14-2-20h68c-10-190-164-344-354-354z" />
<glyph unicode="&#x3d;" glyph-name="adyen-v2-9" d="M814 242v-252h-604v654h240v262h364v-546c8-4 16-10 24-16 10 2 20 2 30 2v572c0 22-18 40-42 40h-404l-266-266v-714c0-22 18-40 40-40h630c24 0 42 18 42 40v242c-18 6-36 14-54 22z" />
<glyph unicode="&#x3e;" glyph-name="adyen-v2-11" d="M882 752c36 0 66 30 66 66s-30 66-66 66c-36 0-66-30-66-66s30-66 66-66zM894 456c10 10 10 10-2 20l-352 352c-10 10-10 12-20 2l-444-444c-10-10-10-10 0-20l354-354c10-10 10-10 20 0zM370 750l162 162c4 4 276 30 420 48l72-72c-18-146-44-416-48-420l-526-528c-8-6-18-6-24 0l-420 422c-8 6-8 18-2 24z" />
<glyph unicode="&#x3f;" glyph-name="adyen-v2-12" d="M1000 774v-210h-86v188c0 28-22 50-50 50h-202c-28 0-50-22-50-50v-188h-92v210c0 64 50 116 114 116h250c64 0 116-52 116-116zM664 508h-590c-28 0-50-22-50-52v-402c0-28 22-52 50-52h590c28 0 50 24 50 52v402c0 28-22 52-50 52zM326 124l-126 126 54 54 72-72 156 156 54-56z" />
<glyph unicode="&#x40;" glyph-name="adyen-v2-32" d="M872 868h-274c0 2 0 4 0 6 0 48-38 86-86 86s-86-38-86-86c0-2 0-4 0-6h-274c-22 0-40-18-40-40v-852c0-22 18-40 40-40h498l262 262v630c0 22-18 40-40 40zM468 874c0 24 20 44 44 44 26 0 46-20 46-44 0-2-2-4-2-6 0-8-2-12-6-18-8-12-22-22-38-22s-30 10-38 22c-4 6-6 10-6 18 0 2 0 4 0 6zM860 248h-238v-258h-458v824h180v-76h336v76h180c0 0 0-566 0-566zM408 448l-22 60h-84l-20-60h-38l82 218h38l82-218zM376 540l-20 58c-2 4-4 10-6 18-2 10-4 16-6 20-2-12-6-26-12-40l-20-56zM608 664l-138-370h-36l138 370c0 0 36 0 36 0zM618 510h64c30 0 52-4 66-12 14-10 20-24 20-42 0-12-4-24-10-32s-16-14-28-16c14-4 26-10 34-18 6-8 10-20 10-34 0-20-6-36-20-46-14-12-32-16-58-16h-78c0 0 0 216 0 216zM654 420h34c14 0 26 4 32 8 8 4 10 12 10 24 0 10-2 18-10 22s-20 6-36 6h-30zM654 392v-70h38c14 0 26 4 34 10 6 6 10 14 10 26s-4 20-10 26c-8 6-20 8-36 8z" />
<glyph unicode="&#x41;" glyph-name="adyen-v2-15" d="M774 520v276c0 6-6 12-12 12-132 2-218 38-334 138-2 2-6 4-10 4s-6-2-8-4c-118-100-202-136-336-138-6 0-12-6-12-12v-388c0-186 126-306 344-452 6-4 18-4 24 0 52 34 74 48 116 80 0 0-2 34-2 46 0 14 6 40 6 40-40-34-68-54-126-94l-6-4-4 4c-212 146-288 244-288 380v338l10 2c102 12 184 46 276 120l6 4 6-4c92-74 176-108 278-120h8v-232c0 0 14 6 32 8 16 0 32-4 32-4zM450 590h-64v-108h-108v-62h108v-108h64v108h106v62h-106zM850 386c0-52-42-96-94-96-54 0-96 44-96 96s42 96 96 96c52 0 94-44 94-96zM756 270c190 0 172-206 172-224 0-6-2-8-10-8h-324c-8 0-8 2-8 8 0 18-20 224 170 224z" />
<glyph unicode="&#x42;" glyph-name="adyen-v2-16" d="M88 510h368v-44h-368zM792 210c38 0 64 26 64 56-6-30-32-56-64-56zM424 236h-362c-18 0-38 12-38 30v306h800v-162c6 0 18 0 26 0v356c0 32-26 56-58 56h-736c-32 0-56-24-56-56v-500c0-30 24-56 62-56h612c0 6 0 20 0 26zM24 760c0 18 14 32 38 32h724c20 0 38-14 38-32v-56h-800zM736 236h-56c0-6 0-20 0-26h64c-8 6-8 20-8 26zM824 354c6 0 6 0 12 0v38l14-12v36c-8 0-20 0-26 0 0 0 0-62 0-62zM836 310c-6 0-6 0-12 0v-44c0-18-12-30-38-30h-12c0-6 0-12 0-20v-6h6c32 0 62 26 62 56v20l-18-20zM850 416c-8 0-20 0-26 0-80-12-150-86-150-174 0-6 0-18 0-26 12-80 88-142 176-142 92 0 174 80 174 174 0 88-74 168-174 168zM812 204h118v-36h-118v-38l-56 56 56 56zM892 348l58-56-58-56v38h-118v36h118z" />
<glyph unicode="&#x43;" glyph-name="safe" d="M654 432c10 32 8 66-4 96-14 30-36 56-64 72l-50-118zM550 616c-32 8-64 6-94-6-32-12-56-34-74-62l118-50zM472 328c32-8 64-8 94 4 32 14 56 36 72 64l-116 50zM434 344l50 118-118 48c-8-30-6-64 6-94 12-32 34-56 62-72zM166 130h692v76h-14c-6 0-12 6-12 14v108c0 8 6 14 14 14h12v286h-12c-8 0-14 6-14 14v108c0 6 6 12 14 12h12v60h-692zM328 548c22 50 60 88 110 108 48 18 102 18 150-2s86-58 106-108c20-48 20-102-2-152-20-48-58-86-108-106-48-20-102-18-150 2s-86 58-106 108c-20 48-20 102 0 150zM930 960h-836c-38 0-68-30-68-68v-840c0-38 30-68 68-68h42v-48h134v48h486v-48h134v48h40c38 0 68 30 68 68v840c0 38-30 68-68 68zM922 642c0-8-6-14-12-14h-14v-286h14c6 0 12-6 12-14v-108c0-8-4-14-12-14h-14v-114h-768v766h768v-96h14c6 0 12-6 12-12z" />
<glyph unicode="&#x44;" glyph-name="currency" d="M320 246v-74c4 0 10 0 14 2 6 2 10 4 14 8 4 2 8 6 10 10 2 6 4 10 4 18 0 10-4 16-10 22-6 4-18 10-32 14zM272 362c-4-2-6-6-8-10s-2-8-2-14c0-8 2-14 8-20 6-4 14-8 26-10v64c-4 0-8-2-12-2-4-2-8-4-12-8zM308 570c-166 0-302-136-302-302s136-302 302-302c168 0 302 136 302 302s-134 302-302 302zM412 186c-2-10-8-18-14-26-8-8-18-16-30-22-14-6-30-10-48-12v-34h-24v34c-28 2-52 10-68 26s-26 40-28 70h54c0-14 4-26 12-34 8-10 18-14 30-16v80c0 0-2 2-4 2s-6 2-8 2c-10 2-20 6-28 10-10 2-18 8-26 14-6 4-12 12-18 20-4 10-6 20-6 34 0 12 2 24 8 34 4 10 12 18 20 26 8 6 18 12 28 16 12 4 22 6 34 6v30h24v-30c12 0 22-4 32-6 10-4 20-10 28-16 8-8 14-16 18-26 6-10 8-20 8-34h-54c0 10-4 18-10 26s-14 12-22 12v-70c2 0 6-2 8-2 4 0 8-2 12-2 18-6 34-12 44-20s18-16 22-24c6-8 8-16 10-24 0-10 0-16 0-24 0-4 0-12-4-20zM716 930c-168 0-302-136-302-302 0-16 2-30 4-44 110-38 194-132 218-246 26-8 52-12 80-12 166 0 302 136 302 302s-136 302-302 302zM750 666v-30h-90v-26h78v-30h-76c8-40 32-60 70-60 18 0 38 4 56 12v-38c-16-8-36-12-58-12-30 0-56 8-74 24-20 18-32 42-38 74h-30v30h26v26h-26v30h28c6 32 18 56 38 76 20 18 44 26 76 26 26 0 48-6 68-16l-16-36c-20 10-38 14-52 14-18 0-34-6-44-16-12-10-20-26-24-48z" />
<glyph unicode="&#x45;" glyph-name="cash-register" d="M830 774h-184c-2 24-18 44-40 44h-394c-22 0-40-20-40-46v-504h692v472c0 18-16 34-34 34zM334 322c0 0-2-2-2-2h-54c-2 0-2 2-2 2v54c0 0 0 2 2 2h54c0 0 2-2 2-2zM334 418c0 0-2-2-2-2h-54c-2 0-2 2-2 2v54c0 0 0 2 2 2h54c0 0 2-2 2-2zM334 514c0-2-2-2-2-2h-54c-2 0-2 0-2 2v54c0 0 0 2 2 2h54c0 0 2-2 2-2zM440 322c0 0-2-2-2-2h-54c0 0-2 2-2 2v54c0 0 2 2 2 2h54c0 0 2-2 2-2zM440 418c0 0-2-2-2-2h-54c0 0-2 2-2 2v54c0 0 2 2 2 2h54c0 0 2-2 2-2zM440 514c0-2-2-2-2-2h-54c0 0-2 0-2 2v54c0 0 2 2 2 2h54c0 0 2-2 2-2zM546 322c0 0-2-2-2-2h-54c0 0-2 2-2 2v54c0 0 2 2 2 2h54c0 0 2-2 2-2zM546 418c0 0-2-2-2-2h-54c0 0-2 2-2 2v54c0 0 2 2 2 2h54c0 0 2-2 2-2zM546 514c0-2-2-2-2-2h-54c0 0-2 0-2 2v54c0 0 2 2 2 2h54c0 0 2-2 2-2zM576 688c0-6-4-12-12-12h-326c-8 0-12 6-12 12v64c0 8 4 12 12 12h326c8 0 12-4 12-12zM654 322c0 0-2-2-2-2h-54c0 0-2 0-2 2v54c0 0 2 2 2 2h54c0 0 2-2 2-2zM654 418c0-2-2-2-2-2h-54c0 0-2 0-2 2v54c0 0 2 2 2 2h54c0 0 2-2 2-2zM654 514c0-2-2-2-2-2h-54c0 0-2 0-2 2v54c0 0 2 0 2 0h54c0 0 2 0 2 0zM760 322c0 0-2-2-2-2h-54c0 0-2 0-2 2v54c0 0 2 2 2 2h54c0 0 2-2 2-2zM760 418c0-2-2-2-2-2h-54c0 0-2 0-2 2v54c0 0 2 2 2 2h54c0 0 2-2 2-2zM760 514c0-2-2-2-2-2h-54c0 0-2 0-2 2v54c0 0 2 0 2 0h54c0 0 2 0 2 0zM976 248h-928c-22 0-42-20-42-44v-80c0-26 20-46 42-46h928c22 0 42 20 42 46v80c0 24-20 44-42 44zM548 184c0-2-2-4-6-4h-60c-4 0-6 2-6 4v8c0 2 2 4 6 4h60c4 0 6-2 6-4z" />
<glyph unicode="&#x46;" glyph-name="acquirer" d="M326 650c0 0 0-26 0-26h-8c-12 0-22-10-22-22v-284c0-12 10-20 22-20h8c0 0 0-28 0-28h-164c0 0 0 28 0 28h8c12 0 22 8 22 20v284c0 12-10 22-22 22h-8c0 0 0 26 0 26s164 0 164 0zM594 650c0 0 0-26 0-26h-8c-12 0-22-10-22-22v-284c0-12 10-20 22-20h8c0 0 0-28 0-28h-164c0 0 0 28 0 28h8c12 0 22 8 22 20v284c0 12-10 22-22 22h-8c0 0 0 26 0 26s164 0 164 0zM862 650c0 0 0-26 0-26h-8c-12 0-22-10-22-22v-284c0-12 10-20 22-20h8c0 0 0-28 0-28h-164c0 0 0 28 0 28h8c12 0 22 8 22 20v284c0 12-10 22-22 22h-8c0 0 0 26 0 26s164 0 164 0zM144 718h736v-44h-736zM512 960l198-114 200-114h-796l200 114zM884 212v36h-262v-74h286v38zM402 248h-262v-36h-24v-38h286zM432 248v-106h-106l186-206 186 206h-106v106z" />
<glyph unicode="&#x47;" glyph-name="callcenter" d="M1008 384c0 50-36 92-84 100 2 20 4 42 4 64 0 228-184 412-410 412-228 0-412-184-412-412 0-18 2-36 4-54-52-4-94-48-94-100 0-56 44-100 100-100 6 0 12 0 16 0v-42c0-24 20-44 44-44h70c24 0 44 20 44 44v274c0 24-20 44-44 44h-70c-8 0-16-2-22-6 32 170 182 300 364 300 184 0 336-134 364-312-8 10-20 18-34 18h-70c-24 0-44-20-44-44v-274c0-24 20-44 44-44h70c6 0 12 2 18 4-42-88-114-154-198-180-10 32-46 58-88 58-48 0-90-36-90-78s42-76 90-76c38 0 70 20 84 48 130 26 236 146 262 302 46 8 82 50 82 98zM892 286c0-2 0-2 0-4z" />
<glyph unicode="&#x48;" glyph-name="tie" d="M686 106l-162-162c-6-8-18-8-24 0l-162 162c-8 6-8 18 0 24l124 630c-8 0-16 8-16 16l-32 166c0 8 6 16 16 16h164c10 0 16-8 16-16l-32-166c0-8-8-16-16-16l124-630c8-6 8-18 0-24z" />
<glyph unicode="&#x49;" glyph-name="diamond" d="M794 916h-564l-230-274 512-662 512 662zM314 608l118-418-322 418zM642 608l-130-454-130 454zM384 674l54 176h148l54-176zM710 608h204l-322-418zM910 674h-200l-54 176h108zM260 850h108l-54-176h-200z" />
<glyph unicode="&#x4a;" glyph-name="desktop" d="M942 890h-860c-44 0-80-34-80-78v-606c0-44 36-80 80-80h294c12 0 36-4 36-32 0-74-208 20-208-88h626c0 108-208 14-208 88 0 28 24 32 36 32h284c44 0 80 36 80 80v606c0 44-36 78-80 78zM966 220c0-20-16-36-36-36h-836c-20 0-36 16-36 36v578c0 20 16 36 36 36h836c20 0 36-16 36-36z" />
<glyph unicode="&#x4b;" glyph-name="document" d="M828 960h-406l-266-266v-718c0-22 18-40 40-40h632c22 0 40 18 40 40v944c0 22-18 40-40 40zM814-10h-604v654h240v262h364c0 0 0-916 0-916zM338 238h352v-54h-352zM338 354h352v-54h-352zM338 468h352v-54h-352zM338 582h352v-52h-352zM574 698h116v-54h-116z" />
<glyph unicode="&#x4c;" glyph-name="easy-encryption" d="M264 78c32 34 32 88 0 120-34 34-88 34-122 0-32-32-32-86 2-120 32-32 86-32 120 0zM480 18c-110-110-288-110-398 0-110 108-110 286 0 396 78 78 192 100 290 66l480 480h172v-176l-52-50c-14 16-42 16-56 0-18-16-18-42-2-58l-60-60c-8 10-22 12-30 4s-6-22 4-32l-42-40c-14 14-32 14-44 4-12-12-10-32 4-44l-46-46c-20 18-52 18-70 0-20-20-20-52 0-70l-84-84c36-98 12-212-66-290z" />
<glyph unicode="&#x4d;" glyph-name="adyen-v2-36" d="M792 664h70v126h-150c-66 0-148-60-148-150v-152h-134v-140h134v-404h-518c-26 0-46 20-46 46v916c0 26 20 46 46 46h932c26 0 46-20 46-46v-916c0-26-20-46-46-46h-264v404h134v140h-134v116c0 32 44 60 78 60z" />
<glyph unicode="&#x4e;" glyph-name="map-pointer" d="M512 940c-194 0-352-156-352-352 0-280 352-632 352-632s352 352 352 632c0 196-158 352-352 352zM512 412c-98 0-176 80-176 176 0 98 78 176 176 176s176-78 176-176c0-96-78-176-176-176z" />
<glyph unicode="&#x4f;" glyph-name="laptop" d="M584 212v-10c0-6-4-10-10-10h-124c-6 0-10 4-10 10v10h-440v-20c0 0 0-30 30-30h964c30 0 30 30 30 30v20zM860 284v410h-696v-410zM900 704v-430c0-18-12-30-30-30h-716c-18 0-30 12-30 30v430c0 18 12 30 30 30h716c18 0 30-12 30-30z" />
<glyph unicode="&#x50;" glyph-name="adyen-v2-19" d="M896 476l-348-348c-10-10-24-16-36-16s-26 4-36 16l-348 348c-14 14-18 36-10 54s26 30 46 30h198v350c0 26 24 50 50 50h200c26 0 50-24 50-50v-350h198c20 0 38-12 46-30s4-40-10-54zM916 168v-122h-808v122h-108v-150c0-44 36-82 82-82h860c46 0 82 38 82 82v150z" />
<glyph unicode="&#x51;" glyph-name="chess" d="M780 90h-4v12c0 12-10 24-24 24h-12c-2 14-2 30 0 42 14 62 30 122 50 180 30 98 50 194 18 294-34 114-102 194-218 228-8 2-16 10-20 18-16 26-36 50-64 72-2-14-4-22-4-30 0-12 0-24 2-38 2-16-4-26-24-28-10-2-20-6-30-8 0-38 0-38-36-52-10-6-22-8-34-14-8-6-16-14-22-20-16-18-28-38-46-54-34-32-68-62-104-90-16-14-28-24-20-48 2-6 0-14-2-22-4-22 14-62 36-72 50-24 90-18 128 22 20 20 40 26 66 18 36-12 74-22 118-12-10-8-14-14-20-20-50-50-98-102-134-162-28-50-52-100-50-158 0-16 2-30 4-46h-6c-14 0-24-12-24-24v-12h-4c-16 0-28-12-28-28v-112h536v112c0 16-12 28-28 28z" />
<glyph unicode="&#x52;" glyph-name="adyen-v2-10" d="M1006 270c4-6 6-10 6-16l6-2c8 14 8 28 0 40-18 28-78 42-170 42-36 0-78-2-124-6-32 18-62 38-92 60-70 60-124 156-156 254 14 72 14 136 16 200 0 10 0 20 0 30l-6 2c-4-12-6-26-8-44-4-30-10-70-22-120-22 92-26 174-12 218 4 8 10 16 12 20 12-6 28-20 32-56h6c6 28 4 46-6 58-8 10-20 10-24 10h-22c-14 0-26-10-30-30-18-66-10-180 26-292-22-76-56-168-110-276-132-268-230-400-298-404-2 36 68 132 160 200l-2 6c-124-66-178-140-186-184-2-12-2-20 2-24l2-2 24-12c8-4 14-6 22-6 56 0 136 90 240 266 114 42 272 74 416 90 88-48 186-76 248-76 44 0 56 14 58 26l2 6-6-2c-8-4-18-6-32-6-46 0-120 22-194 56 22 2 44 2 66 2 84 0 138-10 156-28zM364 336c48 94 78 170 96 238 34-82 82-160 142-212 18-16 38-30 60-44-114-18-244-52-364-104 22 38 44 78 66 122z" />
<glyph unicode="&#x53;" glyph-name="multichannel" d="M298 432c0 62-40 114-94 136v176c0 30-24 54-54 54-32 0-56-24-56-54v-176c-54-22-92-74-92-136s38-116 92-138v-142c0-30 24-54 56-54 30 0 54 24 54 54v142c54 22 94 76 94 138zM204 350c-6-4-14-8-22-10-2-2-4-2-6-2-8-4-18-4-26-4-10 0-18 0-26 4-2 0-4 0-6 2-8 2-16 6-24 10-26 18-44 48-44 82s18 64 44 82c8 4 16 8 24 10 2 2 4 2 6 2 8 2 16 4 26 4 8 0 18-2 26-4 2 0 4 0 6-2 8-2 16-6 22-10 26-18 44-48 44-82s-18-64-44-82zM1022 432c0 62-38 114-92 136v176c0 30-24 54-56 54-30 0-54-24-54-54v-176c-54-22-94-74-94-136s40-116 94-138v-142c0-30 24-54 54-54 32 0 56 24 56 54v142c54 22 92 76 92 138zM930 350c-8-4-16-8-24-10-2-2-4-2-6-2-8-4-16-4-26-4-8 0-18 0-26 4-2 0-4 0-6 2-8 2-16 6-22 10-26 18-44 48-44 82s18 64 44 82c6 4 14 8 22 10 2 2 4 2 6 2 8 2 18 4 26 4 10 0 18-2 26-4 2 0 4 0 6-2 8-2 16-6 24-10 26-18 44-48 44-82s-18-64-44-82zM660 432c0 62-38 114-94 136v284c0 30-24 54-54 54s-54-24-54-54v-284c-56-22-94-74-94-136s38-116 94-138v-250c0-30 24-54 54-54s54 24 54 54v250c56 22 94 76 94 138zM568 350c-8-4-16-8-24-10-2-2-4-2-6-2-8-4-16-4-26-4s-18 0-26 4c-2 0-4 0-6 2-8 2-16 6-22 10-28 18-44 48-44 82s16 64 44 82c6 4 14 8 22 10 2 2 4 2 6 2 8 2 16 4 26 4s18-2 26-4c2 0 4 0 6-2 8-2 16-6 24-10 26-18 42-48 42-82s-16-64-42-82z" />
<glyph unicode="&#x54;" glyph-name="notifaction" d="M1006 94c-136 252-276 504-414 754-54 96-106 96-158 2-138-246-274-494-410-742-50-90-24-132 82-132 16 0 810 0 832 0 80 0 106 50 68 118zM590 188c0-54-24-72-76-72 0 0-2 0-2 0s-2 0-4 0c-52 0-74 18-74 72v4c0 54 22 72 74 72 2 0 4 0 4 0s2 0 2 0c52 0 76-18 76-72zM592 410c0-62-20-78-76-76h-8c-56-2-76 14-76 76v148c0 62 20 76 76 76h8c56 0 76-14 76-76z" />
<glyph unicode="&#x55;" glyph-name="adyen-v2-27" d="M972 734h-108v-48h84c26 0 26 0 26-30v-170c-18 12-38 18-60 18h-250c-62 0-110-52-110-116v-44h-84v44c0 64-50 116-110 116h-250c-22 0-42-6-60-18v170c0 30 0 30 26 30h82v48h-106c-28 0-52-24-52-52v-410c0-62 52-110 116-110h238c64 0 116 48 116 110v24h84v-24c0-62 52-110 116-110h238c64 0 116 48 116 110v410c0 28-24 52-52 52zM420 272c0-34-28-62-66-62h-238c-36 0-66 28-66 62v116c0 36 26 66 60 66h250c34 0 60-30 60-66zM974 272c0-34-30-62-66-62h-238c-38 0-66 28-66 62v116c0 36 26 66 60 66h250c34 0 60-30 60-66z" />
<glyph unicode="&#x56;" glyph-name="cross" d="M1024 858l-102 102-410-410-410 410-102-102 410-410-410-410 102-102 410 410 410-410 102 102-410 410z" />
<glyph unicode="&#x57;" glyph-name="adyen-v2-35" d="M1024 504h-456v456h-112v-456h-456v-112h456v-456h112v456h456z" />
<glyph unicode="&#x58;" glyph-name="search" d="M632 960c212 0 384-170 384-382 0-210-172-382-384-382-66 0-128 18-182 48l-302-302c-8-8-20-8-26-2l-110 110c-6 6-6 18 2 26l298 296c-40 60-62 130-62 206 0 212 172 382 382 382zM900 576c0 148-120 268-268 268s-268-120-268-268c0-146 120-266 268-266s268 120 268 266z" />
<glyph unicode="&#x59;" glyph-name="compass" d="M710 576l108 176-174-108c30-16 50-42 66-68zM320 320l-110-176 176 108c-26 22-46 42-66 68zM644 252l174-108-108 176c-16-26-42-46-66-68zM392 644l-176 108 108-176c16 32 36 52 68 68zM638 540c-10 10-20 22-30 32l-94 386-92-386c-10-10-20-22-30-32l-392-92 386-92c10-10 20-22 30-32l94-386 92 386c10 10 20 22 30 32l392 92zM514 406c-20 0-40 22-40 42s20 42 40 42c22 0 42-22 42-42s-16-42-42-42z" />
<glyph unicode="&#x5a;" glyph-name="one-solution" d="M42 412c0 132 54 230 106 294 54 64 106 94 110 98 34 20 80 8 100-26 20-36 8-80-26-100-2-2-2-2-4-4-4-2-10-6-16-12-14-10-34-28-52-50-38-46-74-110-74-200 0-92 36-174 96-234 58-58 140-96 230-96s172 38 230 96c60 60 96 142 96 234 0 86-34 150-70 196-34 44-72 68-76 70-34 20-46 64-26 100 20 34 66 46 100 26 4-4 56-34 110-98 52-64 106-162 106-294 0-264-210-476-470-476s-470 212-470 476zM624 436c0 12-10 22-22 22h-34v480c0 12-10 22-22 22h-124c-12 0-22-10-22-22v-52c0-12 10-22 22-22h34v-406h-34c-12 0-22-10-22-22v-52c0-12 10-22 22-22h180c12 0 22 10 22 22z" />
<glyph unicode="&#x5b;" glyph-name="adyen-v2-17" d="M38 644h948v-58h-948zM508 954l258-142 258-148h-1024l258 148zM992-6v46h-940v-46h-52v-52h1018v52zM58 438l110 110 108-110h-76v-366h-72v366zM766 438l110 110 110-110h-72v-366h-76v366zM632 180l-110-108-110 108h72v368h76v-368z" />
<glyph unicode="&#x5c;" glyph-name="adyen-v2-34" d="M88 510h368v-44h-368zM792 210h8c30 0 56 26 56 56-6-30-32-56-64-56zM424 236h-362c-18 0-38 12-38 30v306h800v-162c6 0 18 0 26 0v356c0 32-26 56-58 56h-736c-32 0-56-24-56-56v-500c0-30 24-56 62-56h612c0 6 0 20 0 26zM24 760c0 18 14 32 38 32h724c20 0 38-14 38-32v-56h-800zM824 354c6 0 6 0 12 0v38l14-12v36c-8 0-20 0-26 0 0 0 0-62 0-62zM850 416c-8 0-20 0-26 0-80-12-150-86-150-174 0-6 0-18 0-26 12-80 88-142 176-142 92 0 174 80 174 174 0 88-74 168-174 168zM780 148c-18 12-68 76-30 144 24 50 80 62 86 62v38l56-62-62-56v36c-6 0-38-6-50-36-24-44 6-82 12-88zM956 186c-26-44-70-56-88-62v-38l-56 62 62 56v-36c0 0 38 12 50 36 26 50-6 82-12 88l18 38c12-14 62-70 26-144z" />
<glyph unicode="&#x5d;" glyph-name="adyen-v2-18" d="M860 538l-602-602h-258v258l602 602zM326 126l-136 136-104-104v-50h86v-86h50zM586 666l-312-314c-8-8-10-22-2-30s22-6 30 2l314 314c8 8 8 20 0 28s-22 8-30 0zM916 594l-258 258 84 84c32 32 88 32 122 0l136-136c32-34 32-90 0-122z" />
<glyph unicode="&#x5e;" glyph-name="hpp" d="M974 940h-924c-28 0-50-22-50-50v-884c0-28 22-50 50-50h924c28 0 50 22 50 50v884c0 28-22 50-50 50zM134 870c28 0 50-24 50-52s-22-50-50-50c-28 0-50 22-50 50s22 52 50 52zM958 22h-892v682h892zM130 578h352v-50h-352zM542 578h350v-102h-350zM130 418h352v-50h-352zM130 250h352v-50h-352zM542 418h350v-100h-350zM542 250h350v-100h-350z" />
<glyph unicode="&#x5f;" glyph-name="adyen-v2-22" d="M424-64c-14 0-26 2-36 8-12 4-20 14-26 26-6 14-10 32-8 56 0 24 6 54 14 90l62 260c10 40 10 60 0 60-8 0-26-6-54-18s-52-24-72-40l-28 46c34 28 66 54 100 76s68 40 100 54c30 16 60 28 86 36s46 12 62 12c28 0 44-16 48-46 6-30 2-70-12-120l-72-274c-8-26-10-42-8-52s6-14 14-14c8 0 24 4 46 16 24 10 50 24 76 46l32-42c-34-32-66-60-98-84-32-22-62-42-92-56s-56-24-78-30c-24-6-42-10-56-10zM634 960c36 0 62-10 80-30 16-20 26-44 26-70 0-34-14-64-40-90s-58-40-98-40c-32 0-58 10-76 28-20 18-28 44-26 76 0 12 2 28 8 42 6 16 14 28 26 42 12 12 26 22 42 30s36 12 58 12z" />
<glyph unicode="&#x60;" glyph-name="adyen-v2-24" d="M1024 960v-1024h-1024v1024zM920 38v820h-818v-820zM882 220v-80h-274v26h-480v64l216 218-190 192v64h242l104-102 102 102h230v-64l-204-218h210v-64l-46-50zM704 180v24l-460 462h-40v-26l462-460z" />
<glyph unicode="&#x61;" glyph-name="v2" d="M982-30v794c0 110-72 162-242 162h-698v-264h536v-428h-130v336h-164c-168 0-242-48-242-162v-280c0-108 72-158 242-158z" />
<glyph unicode="&#x62;" glyph-name="question" d="M744 888c64-48 98-116 98-208 0-28-6-54-14-78-10-24-20-44-34-64-10-12-22-26-40-40s-38-30-62-48l-50-38c-12-8-24-18-34-30-12-12-18-24-24-38-2-6-4-14-6-20 0-8 0-18 0-30 0-2-2-6-4-10s-6-6-14-6h-146c-8 0-14 2-16 6s-2 8-2 10c2 32 4 60 6 84 4 24 12 42 24 58 12 12 26 24 42 40 16 14 32 26 48 40 18 12 38 26 58 38 6 6 14 12 20 18s12 12 16 20c20 26 32 52 32 78 0 34-10 64-30 90-18 28-54 42-104 42s-86-18-108-50c-20-34-32-68-32-104h-186c6 124 48 212 128 262 52 34 114 50 188 50 98 0 180-24 246-72zM496 168c34-2 64-14 86-36s32-50 30-84c-2-36-14-62-36-84-24-20-52-30-86-28-32 2-60 14-82 34-24 22-34 50-32 84 2 36 14 64 38 84 22 22 50 32 82 30z" />
<glyph unicode="&#x63;" glyph-name="code" d="M216 642h-50v202c0 24 0 44 2 58-4-4-8-8-12-12-6-4-22-18-48-40l-26 32 92 72h42zM554 642h-50v202c0 24 0 44 2 58-4-4-8-8-12-12-6-4-22-18-48-40l-26 32 92 72h42zM956 798c0-54-8-94-26-120-18-28-44-40-80-40-34 0-62 14-80 40-18 28-26 68-26 120 0 56 8 96 26 122s44 40 80 40c34 0 62-14 80-42 18-26 26-66 26-120zM794 798c0-42 6-72 14-90 8-20 22-28 42-28s34 8 42 28c10 18 14 48 14 90s-4 72-14 92c-8 18-22 28-42 28s-34-10-42-28c-8-18-14-48-14-92zM280 448c0-54-8-96-26-122s-44-40-80-40c-34 0-62 14-80 42-18 26-26 66-26 120s8 96 26 122c18 26 44 40 80 40 34 0 62-14 80-42s26-68 26-120zM118 448c0-44 6-74 14-92s22-28 42-28c20 0 34 10 42 28 10 20 14 50 14 92s-4 72-14 90c-8 20-22 28-42 28s-34-8-42-26c-8-20-14-50-14-92zM554 292h-50v202c0 24 0 42 2 56-4-2-8-6-12-10-6-4-22-18-48-40l-26 32 92 72h42zM956 448c0-54-8-96-26-122s-44-40-80-40c-34 0-62 14-80 42-18 26-26 66-26 120s8 96 26 122c18 26 44 40 80 40 34 0 62-14 80-42s26-68 26-120zM794 448c0-44 6-74 14-92s22-28 42-28c20 0 34 10 42 28 10 20 14 50 14 92s-4 72-14 90c-8 20-22 28-42 28s-34-8-42-26c-8-20-14-50-14-92zM216-60h-50v202c0 24 0 44 2 58-4-4-8-8-12-12-6-4-22-16-48-40l-26 32 92 74h42zM618 96c0-54-8-94-26-120s-44-40-80-40c-34 0-62 14-80 40-18 28-26 68-26 120 0 56 8 96 26 122 18 28 44 40 80 40 34 0 62-14 80-40 18-28 26-68 26-122zM456 96c0-42 6-72 14-90s22-28 42-28c20 0 34 10 42 28 10 18 14 48 14 90s-4 74-14 92c-8 18-22 28-42 28s-34-10-42-28c-8-18-14-48-14-92zM892-60h-50v202c0 24 0 44 2 58-4-4-8-8-12-12-6-4-22-16-48-40l-26 32 92 74h42z" />
<glyph unicode="&#x64;" glyph-name="fashion" d="M740 638c0 90-166 108-166 176 0 8 0 16-10 16h-26v32c16 8 28 26 28 44 0 30-24 54-54 54s-54-24-54-54c0-18 12-36 28-44v-32h-26c-10 0-10-8-10-16 0-68-166-86-166-176 0-70 94-162 94-246 0-82-94-130-94-244 0-24 0-52 0-66s14-18 28-18h160v-128h80v128h160c14 0 28 4 28 18s0 42 0 66c0 114-94 162-94 244 0 84 94 176 94 246z" />
<glyph unicode="&#x65;" glyph-name="clipboard" d="M872 868h-274c0 2 0 4 0 6 0 48-38 86-86 86s-86-38-86-86c0-2 0-4 0-6h-274c-22 0-40-18-40-40v-852c0-22 18-40 40-40h498l262 262v630c0 22-18 40-40 40zM468 874c0 24 20 44 44 44 26 0 46-20 46-44 0-2-2-4-2-6 0-8-2-12-6-18-8-12-22-22-38-22s-30 10-38 22c-4 6-6 10-6 18 0 2 0 4 0 6zM860 248h-238v-258h-458v824h180v-76h336v76h180zM774 596v-150h-58v48l-176-174-94 124-186-184-40 40v4l230 230 94-126 130 128h-48v60z" />
<glyph unicode="&#x66;" glyph-name="clipboard-1" d="M872 868h-274c0 2 0 4 0 6 0 48-38 86-86 86s-86-38-86-86c0-2 0-4 0-6h-274c-22 0-40-18-40-40v-852c0-22 18-40 40-40h498l262 262v630c0 22-18 40-40 40zM468 874c0 24 20 44 44 44 26 0 46-20 46-44 0-2-2-4-2-6 0-8-2-12-6-18-8-12-22-22-38-22s-30 10-38 22c-4 6-6 10-6 18 0 2 0 4 0 6zM860 248h-238v-258h-458v824h180v-76h336v76h180z" />
<glyph unicode="&#x67;" glyph-name="protect" d="M860 810c-136 2-222 38-340 140-2 2-6 4-8 4-4 0-8-2-10-4-118-102-204-138-340-140-6 0-12-6-12-12v-394c0-186 128-310 350-458 4-4 18-4 24 0 220 148 348 272 348 458v394c0 6-6 12-12 12zM808 404c0-136-76-236-292-384l-4-4-6 4c-214 148-292 248-292 384v344l10 2c104 10 188 48 280 120l8 6 6-6c94-72 178-110 280-120l10-2zM542 590h-64v-110h-108v-64h108v-108h64v108h110v64h-110z" />
<glyph unicode="&#x68;" glyph-name="risk" d="M512 958c-164 0-296-146-296-326 0-182 132-328 296-328s296 146 296 328c0 180-132 326-296 326zM512 906c108 0 198-74 234-178h-468c36 104 126 178 234 178zM696 656v-46c0-6-4-10-8-10h-108c-4 0-8 4-8 10v46c0 4 4 8 8 8h108c4 0 8-4 8-8zM454 656v-46c0-6-4-10-8-10h-108c-6 0-10 4-10 10v46c0 4 4 8 10 8h108c4 0 8-4 8-8zM512 356c-112 0-206 80-238 192h476c-32-112-126-192-238-192zM990 244v-220c0-48-40-86-88-86h-780c-48 0-88 38-88 86v220c0 100 82 178 184 178 60-114 170-192 294-192s234 78 294 192c102 0 184-78 184-178z" />
<glyph unicode="&#x69;" glyph-name="globe" d="M512 960c-282 0-512-230-512-512s230-512 512-512c282 0 512 230 512 512s-230 512-512 512zM280 774c-2 2 2 2 0 0zM162 738c8 8 32 38 56 52 14 8 12-6 20-20 8-12 28-22 42-36 12-12 4-10-10-18-2-2-6-6-8-8-10-14-2-36 6-50 4-6 6-12 8-20 0-16-16-24-32-28-60-14-156-106-124-152 10-14 12-26-4-22-4 0-8 2-12 4-16 6-18 18-16 36 0 20-22 28-42 20-16-6-20-8-18 10 12 106 54 156 134 232zM298 224c-14-52-36-110-26-162 4-16-2-20-14-8-66 66-106 158-166 230-42 52 34 68-36 122-18 14-26 12-30 18-10 12 10 22 24 14 76-38 210-82 248-156 6-14 4-42 0-58zM358 720c-14-10-26-14-30-12-4 4-4 16 0 32 10 32 10 40-18 38-16-2-22 8-10 20 34 32 84 46 136 44 16 0 26-14 18-30-6-12-12-22-22-34s-6-28 4-38c12-10-32 0-48-4-12-4-20-8-30-16zM688 176c-14-10-28-2-26 8 2 4 2 10 2 16 4 30 6 34 20 44 14 8 24 4 22-14 0-22-2-44-18-54zM982 350c2-6 2-12 2-20-2-16-16-22-24-6-14 28-30 80-42 114-6 14-22 16-30 2-10-14-16-28-18-46-4-16-12-18-20-4-20 44-50 118-86 84-14-12-54-44-60-64-6-14 18-28 12-44-10-38-38-62-48-100-4-16-8-42-14-58-16-36-32-80-62-102-64-48-74 142-76 222 0 16-12 26-30 24-118-10-98 88-56 176 12 24 36 74 34 100 0 16-14 30-8 46 2 2 2 4 4 6 6 16 18 20 24 8 6-10 14-6 18 10 8 26 14 44 30 70 8 14 30 28 46 26 42-10 66-54 134-12 66 42 102-34 166-58 98-34 122-180 122-278 0-16 6-52-2-66-6-16-18-14-16-30zM582 588c-14 10-20 4-28-8-10-12-18 4-22 20-4 18-26 0-42-18-12-12-8-14 8-18 44-12 90-78 118-18 4 8-14 26-34 42z" />
<glyph unicode="&#x6a;" glyph-name="adyen-v2-25" d="M512-64c-282 0-510 230-510 512s228 512 510 512c282 0 510-230 510-512s-228-512-510-512zM712 750c-58 40-126 62-200 62-200 0-362-164-362-364 0-74 22-142 60-198zM816 644l-502-500c58-38 126-60 198-60 200 0 362 164 362 364 0 72-22 140-58 196z" />
<glyph unicode="&#x6b;" glyph-name="mobile" d="M514-14c28 0 50 22 50 50 0 26-22 48-50 48-26 0-48-22-48-48 0-28 22-50 48-50zM566 858c0 8-6 10-12 10h-72c-6 0-12-2-12-10 0-6 6-10 12-10h72c6 0 12 4 12 10zM336 944h264v4c0 0 2 0 2 0h78c2 0 2 0 2 0v-4h12c40 0 74-34 74-74v-848c0-42-34-74-74-74h-358c-42 0-74 32-74 74v598h-2c-2 0-4 0-4 2v30c0 2 2 4 4 4h2v52h-2c-2 0-4 0-4 2v30c0 2 2 2 4 2h2v46h-4c-2 0-2 2-2 2v44c0 0 0 0 2 0h4v36c0 40 32 74 74 74zM300 778v-660h430v660zM430 870c-8 0-12-6-12-12s4-12 12-12c6 0 12 6 12 12s-6 12-12 12z" />
<glyph unicode="&#x6c;" glyph-name="strategy" d="M512 960c282 0 512-230 512-512s-230-512-512-512c-282 0-512 230-512 512s230 512 512 512zM854 448c0 188-154 342-342 342s-342-154-342-342c0-188 154-342 342-342s342 154 342 342zM512 626c98 0 178-80 178-178s-80-178-178-178c-98 0-178 80-178 178s80 178 178 178z" />
<glyph unicode="&#x6d;" glyph-name="adyen-v2-39" d="M108 536c78-72 238-18 238-18s20-22 54-56l118 118c-40 34-66 54-66 54s40 164-38 236c-98 90-232 32-232 32l106-98-14-112-112-26-108 98c2 0-44-138 54-228zM1020 132c-2 30-16 60-48 86-22 14-206 164-350 280l-132-132c130-132 298-310 316-328 28-32 60-44 90-42s72 4 72 4l28 30 28 28c0 2-2 44-4 74zM742 812l14-48-360-360-56 56-340-332 152-152 340 332-58 58 364 362 42-14 86 138-22 24-24 22z" />
<glyph unicode="&#x6e;" glyph-name="user" d="M718 726c0-116-92-210-208-210s-208 94-208 210c0 114 92 208 208 208s208-94 208-208zM512 472c416 0 374-448 374-488 0-16-4-22-20-22h-708c-16 0-20 6-20 22 0 40-42 488 374 488z" />
<glyph unicode="&#x6f;" glyph-name="users" d="M310 358c38 38 88 60 146 70-8 10-14 18-24 24-10 8-22 16-32 24-34 22-80 36-140 36-288 0-260-308-260-336 0-10 4-14 14-14h214c10 82 38 148 82 196zM348 576c0 8-2 16-2 26 0 48 20 90 52 122-16 62-72 108-138 108-80 0-144-64-144-144s64-144 144-144c34 0 64 12 88 32zM652 602c0 8-2 16-4 24 0 4-2 8-2 12-2 4-2 6-4 10s-4 10-6 16c-2 0-2 2-2 2-24 40-66 68-116 68-72 0-132-60-132-132 0-74 60-134 132-134 68 0 124 52 132 118 0 6 2 10 2 16zM764 816c-58 0-110-36-132-88 36-30 58-76 58-126 0-18-2-34-8-48 24-16 52-26 82-26 80 0 144 64 144 144s-64 144-144 144zM770 146c0 10-2 18-4 28-2 12-4 24-6 36-2 10-6 18-8 26-4 12-8 24-14 34-2 6-6 12-8 18-10 16-20 30-32 42-10 10-20 18-32 26-6 4-12 8-20 12-4 2-10 4-14 6-10 6-20 8-30 12-4 0-6 0-8 2-12 2-26 4-40 6-12 2-22 2-36 2s-26 0-40-2c-12-2-24-4-36-8-2 0-6 0-10-2-8-2-18-6-26-10-6-2-12-4-18-8-6-2-12-6-18-10-10-8-22-16-30-26-12-12-22-26-32-42-2-4-6-12-8-18-6-10-10-20-14-30-2-8-6-18-8-26-4-16-8-34-10-52-2-30-4-60-4-94v-4h508v4c2 28 0 54-2 78zM764 496c-86 0-144-28-182-68 58-10 108-32 144-70 48-50 76-122 84-212h198c12 0 16 2 16 14 0 28 28 336-260 336z" />
<glyph unicode="&#x70;" glyph-name="value" d="M884 670v-388h-798v-56h852v444zM788 754h-788v-442h854v442c0 0-66 0-66 0zM440 560c4-2 6-2 8-2 14-4 24-8 30-14 8-4 12-10 16-16s6-12 6-16c0-6 0-12 0-16s0-8-2-14c-2-6-6-12-10-18-6-6-12-10-20-16-10-4-20-6-34-8v-22h-16v22c-18 2-34 8-46 20-10 10-18 26-18 46h36c0-10 2-18 8-24s12-8 20-10v54c0 2-2 2-2 2-2 0-4 0-6 2-6 2-12 4-20 6-6 2-12 6-16 10-6 4-10 8-12 14-4 6-4 14-4 22 0 10 2 16 4 24 4 6 8 12 14 18 6 4 12 8 20 10s14 4 22 4v22h16v-22c8 0 16-2 22-4 8-4 14-6 20-12 4-4 8-10 12-16s6-14 6-24h-38c0 8-2 14-6 18-4 6-10 8-16 8v-48c2 0 4 0 6 0zM130 368c0 2 2 6 2 10 0 36-30 64-66 64-4 0-8 0-10 0v182c2 0 6 0 10 0 36 0 66 28 66 66 0 2-2 6-2 10h232c-42-32-70-92-70-162 0-78 36-144 84-170zM476 368c50 26 84 92 84 170 0 70-26 130-68 162h232c0-4-2-8-2-10 0-38 30-66 66-66 4 0 8 0 10 0v-182c-2 0-6 0-10 0-36 0-66-28-66-64 0-4 2-8 2-10 0 0-248 0-248 0zM402 602c-2-2-4-4-6-6 0-4-2-6-2-10 0-6 2-10 6-14s10-6 18-8v44c-2 0-6 0-8-2-2 0-6-2-8-4zM434 472c4 0 6 0 10 2 4 0 6 2 10 4 2 2 4 6 6 8 2 4 4 8 4 12 0 6-4 12-8 14-4 4-12 8-22 10zM170 196h798v388h56v-442h-854z" />
<glyph unicode="&#x71;" glyph-name="adyen-v2-13" d="M868 244v408h-712v-408zM1002 722v-196c-44 0-78-34-78-78 0-42 34-78 78-78v-196h-980v198c38 6 68 36 68 76s-30 72-68 76v198c0 0 980 0 980 0zM182 626h660v-356h-660z" />
<glyph unicode="&#x72;" glyph-name="cards" d="M90 350h330v-38h-330zM956 818h-654c-30 0-56-24-56-52v-142h-178c-30 0-54-24-54-52v-442c0-28 24-52 54-52h654c30 0 56 24 56 52v142h178c30 0 54 24 54 52v442c0 28-24 52-54 52zM754 130c0-16-14-28-32-28h-654c-16 0-30 12-30 28v274h716zM754 524h-716v48c0 16 14 28 30 28h654c18 0 32-12 32-28zM898 328c-16 0-30 6-42 16-10-10-24-16-40-16-14 0-28 6-40 14v94c12 8 26 14 40 14 16 0 30-6 40-16 12 10 26 16 42 16 32 0 60-26 60-60s-28-62-60-62z" />
<glyph unicode="&#x73;" glyph-name="camera" d="M922 704c28 0 52-10 72-30 20-22 30-46 30-72v-462c0-28-10-52-30-72s-44-30-72-30h-820c-26 0-50 10-72 30-20 20-30 44-30 72v462c0 26 10 50 30 72 22 20 46 30 72 30h124c22 0 34 10 40 28l34 96c2 10 6 16 14 22 8 4 16 8 24 8h348c22 0 36-10 42-30l32-96c2-8 8-14 16-20 6-6 14-8 22-8zM512 140c36 0 68 8 100 22 30 12 58 32 80 54 24 24 42 50 56 82 14 30 20 64 20 98 0 36-6 70-20 100s-32 58-56 82c-22 22-50 40-80 54-32 14-64 20-100 20s-68-6-100-20c-30-14-56-32-80-54-24-24-42-52-56-82s-20-64-20-100c0-34 6-68 20-98 14-32 32-58 56-82 22-22 50-42 80-54 32-14 64-22 100-22zM512 550c44 0 80-14 110-44 28-30 44-66 44-110 0-42-16-78-44-108-30-30-66-44-110-44-42 0-78 14-108 44s-46 66-46 108c0 44 16 80 46 110s66 44 108 44zM886 530c12 0 20 4 26 10s10 16 10 24c0 12-4 20-10 28-6 6-14 10-26 10-10 0-20-4-26-10-6-8-10-16-10-28 0-8 4-18 10-24s16-10 26-10z" />
<glyph unicode="&#x74;" glyph-name="bank" d="M272 554c0 0 0-34 0-34h-10c-16 0-28-12-28-28v-364c0-16 12-28 28-28h10c0 0 0-34 0-34h-212c0 0 0 34 0 34h12c14 0 28 12 28 28v364c0 16-14 28-28 28h-12c0 0 0 34 0 34s212 0 212 0zM618 554c0 0 0-34 0-34h-10c-16 0-28-12-28-28v-364c0-16 12-28 28-28h10c0 0 0-34 0-34h-212c0 0 0 34 0 34h12c14 0 28 12 28 28v364c0 16-14 28-28 28h-12c0 0 0 34 0 34s212 0 212 0zM964 554c0 0 0-34 0-34h-12c-14 0-28-12-28-28v-364c0-16 14-28 28-28h12c0 0 0-34 0-34h-212c0 0 0 34 0 34h10c16 0 28 12 28 28v364c0 16-12 28-28 28h-10c0 0 0 34 0 34s212 0 212 0zM40 642h946v-56h-946zM992-8v46h-960v-46h-30v-50h1020v50zM512 954l256-146 256-148h-1024l256 148z" />
<glyph unicode="&#x75;" glyph-name="factory" d="M802 958v-590l-200 168-200-168-200 168-202-166v-430h802l220-2 2 1018zM288 96h-170v116h170zM544 96h-168v116h168zM802 96h-170v116h170z" />
<glyph unicode="&#x76;" glyph-name="talk" d="M512 914c-282 0-510-182-510-408 0-134 80-252 204-326 4-64-20-126-88-182 70-38 234-10 296 108h2c30-4 62-8 96-8 282 0 510 184 510 408 0 226-228 408-510 408zM222 392c-48 0-88 38-88 86s40 86 88 86c46 0 86-38 86-86s-40-86-86-86zM512 392c-48 0-86 38-86 86s38 86 86 86c48 0 86-38 86-86s-38-86-86-86zM802 392c-46 0-86 38-86 86s40 86 86 86c48 0 88-38 88-86s-40-86-88-86z" />
<glyph unicode="&#x77;" glyph-name="checkmark" d="M954 636c0-14-4-28-16-38l-490-492c-12-10-24-16-40-16-14 0-28 6-38 16l-284 284c-12 12-16 24-16 40 0 14 4 28 16 38l76 78c12 10 24 16 40 16 14 0 28-6 38-16l168-168 376 376c10 10 24 16 38 16 16 0 28-6 40-16l76-78c12-12 16-24 16-40z" />
<glyph unicode="&#x78;" glyph-name="merchant" d="M1002 732c-18 26-50 26-66 26h-684c-16 54-20 64-22 70-12 54-52 58-66 58h-102c-26 0-48-22-48-48 0-28 22-50 48-50h76c28-96 158-554 166-572 8-20 22-48 72-48h480c28 0 50 22 50 50s-22 50-50 50h-464c-6 16-14 46-24 84h466c58 0 78 24 92 62l2 8c10 28 44 142 60 200 4 16 10 30 12 38 8 18 20 44 2 72zM504 88c0-44-36-78-80-78s-78 34-78 78c0 44 34 80 78 80s80-36 80-80zM856 88c0-44-36-78-80-78s-78 34-78 78c0 44 34 80 78 80s80-36 80-80z" />
<glyph unicode="&#x79;" glyph-name="tutorial" d="M682 404c-70-24-124-42-128-42-12-4-22-8-32-8s-22 4-34 8c-2 0-52 18-118 40l-82 28c-22 6-42 14-62 20-12-36-22-82-24-124 24-6 244-94 320-148 74 54 276 142 300 148-2 40-12 84-22 118zM1010 566c10-4 14-6 14-14 0-6-4-10-14-14-6-2-140-46-262-88-102-34-196-66-200-68-10-2-20-6-26-6-8 0-16 4-28 6-4 2-98 34-200 68-122 42-254 86-260 88-10 4-16 8-16 14 0 8 6 10 16 14s452 144 460 146c12 4 20 6 28 6 6 0 16-2 26-6 8-2 450-142 462-146zM52 428c6 0 6-4 6-8s0-12 0-20c0-18 26-36 26-74 0-6 0-14-40-14h-4c-38 0-40 8-40 14 0 38 26 56 26 74 0 8 0 16 0 20s2 8 6 8zM36 548h14v-146h-14z" />
<glyph unicode="&#x7a;" glyph-name="adyen-v2-31" d="M284 448c0-32-26-58-58-58s-58 26-58 58c0 32 26 58 58 58s58-26 58-58zM856 106c0-32-26-60-58-60s-58 28-58 60c0 32 26 58 58 58s58-26 58-58zM856 790c0-32-26-58-58-58s-58 26-58 58c0 34 26 60 58 60s58-26 58-60zM740 628c16-6 34-10 56-10 46 0 86 16 120 50s50 74 50 120c0 0 0 2 0 2 0 8-2 16-2 24 0 4 0 6-2 8-12 68-64 120-132 134-2 0-6 0-8 0-8 2-16 2-24 2 0 0 0 0-2 0-48 0-90-16-122-50-32-32-48-72-48-120 0-12 0-20 2-26l-298-180c-28 24-62 36-102 36-48 0-88-16-122-50-32-32-48-74-48-120 0-48 16-88 48-120 34-34 74-50 122-50 38 0 72 12 102 34l298-178c-2-6-2-14-2-26 0-48 16-88 48-120 32-34 74-50 122-50 2 0 2 0 2 0 8 0 16 0 24 2 2 0 6 0 8 0 68 14 120 66 132 134 2 2 2 4 2 6 0 8 2 16 2 26 0 0 0 2 0 2 0 46-16 86-50 120s-74 50-120 50c-38 0-72-12-104-36l-298 178c2 12 4 22 4 28s-2 16-4 28l298 176c14-10 30-18 48-24zM798 218c62 0 112-50 112-112s-50-112-112-112c-62 0-112 50-112 112s50 112 112 112zM226 336c-62 0-112 50-112 112s50 112 112 112c62 0 112-50 112-112s-50-112-112-112zM798 902c62 0 112-50 112-112 0-60-50-112-112-112s-112 52-112 112c0 62 50 112 112 112z" />
<glyph unicode="&#x7b;" glyph-name="adyen-v2-26" d="M980 278h-90v38c0 40-30 70-68 70h-282v44h170c24 0 42 18 42 42v306c0 22-18 42-42 42h-396c-24 0-42-20-42-42v-306c0-24 18-42 42-42h170v-44h-282c-38 0-68-30-68-70v-38h-92c-22 0-40-18-40-42v-118c0-22 18-42 40-42h236c24 0 42 20 42 42v118c0 24-18 42-42 42h-90v38c0 8 6 16 14 16h282v-54h-90c-22 0-42-18-42-42v-118c0-22 20-42 42-42h236c22 0 42 20 42 42v118c0 24-20 42-42 42h-90v54h282c8 0 14-8 14-16v-38h-90c-24 0-42-18-42-42v-118c0-22 18-42 42-42h234c24 0 42 20 42 42v118c0 24-18 42-42 42zM328 764h368v-278h-368z" />
<glyph unicode="&#x7c;" glyph-name="adyen-v2-29" d="M88 510h368v-44h-368zM792 210h8c30 0 56 26 56 56-6-30-32-56-64-56zM424 236h-362c-18 0-38 12-38 30v306h800v-162c6 0 18 0 26 0v356c0 32-26 56-58 56h-736c-32 0-56-24-56-56v-500c0-30 24-56 62-56h612c0 6 0 20 0 26zM24 760c0 18 14 32 38 32h724c20 0 38-14 38-32v-56h-800zM824 354c6 0 6 0 12 0v38l14-12v36c-8 0-20 0-26 0 0 0 0-62 0-62zM850 416c-8 0-20 0-26 0-80-12-150-86-150-174 0-6 0-18 0-26 12-80 88-142 176-142 92 0 174 80 174 174 0 88-74 168-174 168zM780 148c-18 12-68 76-30 144 24 50 80 62 86 62v38l56-62-62-56v36c-6 0-38-6-50-36-24-44 6-82 12-88zM956 186c-26-44-70-56-88-62v-38l-56 62 62 56v-36c0 0 38 12 50 36 26 50-6 82-12 88l18 38c12-14 62-70 26-144z" />
<glyph unicode="&#x7d;" glyph-name="adyen-v2-30" d="M252 740c-12 0-20-2-26-6s-10-8-14-14c-4-6-6-14-6-22-2-6-2-14-2-20v-134c0-20-4-38-10-50-6-14-14-24-24-32-8-6-18-12-28-14-10-4-18-6-24-6v-2c6 0 14-2 24-6s20-8 28-16c10-6 18-16 24-28s10-28 10-46v-140c0-6 0-12 2-20 0-8 2-14 6-20s8-12 14-16c6-4 14-6 26-6h46v-98h-110c-10 0-22 4-34 8-12 6-24 12-34 22-12 10-20 22-28 36-8 16-12 32-12 52v170c0 12-2 24-8 34-6 8-12 16-20 22-10 4-18 8-28 12-8 2-16 4-22 4v74c6 0 14 2 22 4 10 4 18 8 28 14 8 6 14 14 20 24s8 22 8 38v162c0 20 4 38 12 52 8 16 16 28 28 38 10 8 22 16 34 20 12 6 24 8 34 8h110v-98zM474 142v-98h-100v98zM648 142v-98h-98v98zM772 156c10 0 18 2 24 6s12 8 16 14c2 6 4 14 6 20 0 8 0 16 0 22v138c0 20 4 34 10 46 8 12 16 22 24 30 10 6 18 12 28 14 10 4 18 6 26 6v4c-8 0-16 2-26 4-10 4-18 8-28 16-8 6-16 18-24 30-6 14-10 30-10 52v132c0 8 0 14 0 22-2 8-4 14-6 20-4 6-10 12-16 16s-14 6-24 6h-48v98h112c10 0 20-4 32-8 14-6 24-12 36-22 10-10 20-22 28-36 6-16 10-32 10-52v-164c0-14 4-26 10-36 4-10 12-20 20-26s16-10 26-12c10-2 18-4 24-4v-76c-6 0-14-2-24-4s-18-6-26-12c-8-6-16-12-20-22-6-10-10-20-10-34v-168c0-20-4-38-10-52-8-16-18-28-28-38-12-8-22-16-36-20-12-6-22-8-32-8h-112v98z" />
<glyph unicode="&#x7e;" glyph-name="adyen-v2-33" d="M816 642l12 64-34 52-14 64-54 36-34 52-64 14-54 34-62-12-64 12-54-36-62-12-36-54-54-36-12-62-36-54 14-62-12-64 34-54 14-62 54-36 34-54 14-2v-432l168 218 168-218v432l10 4 36 52 54 36 12 64 36 52zM514 440c-112 0-202 90-202 202 0 110 90 200 202 200 110 0 200-90 200-200 0-112-90-202-200-202z" />
<glyph unicode="&#xe000;" glyph-name="adyen-v2-37" d="M922 472v-192h-246v-126l-248 222 248 222v-126zM816 920v-402h-54v388h-364v-262h-242v-654h606v244h54v-258c0-22-20-40-42-40h-632c-22 0-40 18-40 40v718l268 266h404c22 0 42-18 42-40z" />
<glyph unicode="&#xe001;" glyph-name="adyen-v2-38" d="M714 290c30 0 52 24 52 54 0 28-22 52-52 52s-52-24-52-52c0-30 22-54 52-54zM872 556c0 28-22 52-52 52s-54-24-54-52c0-30 24-54 54-54s52 24 52 54zM420 398v102h-112v112h-102v-112h-102v-102h102v-112h102v112zM600 254h-176c-46-40-104-60-166-60-142 0-256 114-256 254 0 142 114 254 256 254h508c142 0 256-114 256-254s-114-254-256-254c-62 0-120 20-166 60z" />
<glyph unicode="&#xe002;" glyph-name="search-left" d="M694 484c0 72-24 132-74 182s-110 74-182 74c-70 0-130-24-180-74s-76-110-76-182c0-70 26-130 76-180s110-76 180-76c72 0 132 26 182 76s74 110 74 180zM988 10c0-20-8-38-22-52s-32-22-52-22c-20 0-38 8-52 22l-196 196c-68-48-144-72-228-72-54 0-106 10-156 32s-92 50-128 86c-36 36-64 78-86 128-20 50-32 102-32 156 0 56 12 108 32 156 22 50 50 94 86 130s78 64 128 86c50 20 102 30 156 30 56 0 108-10 158-30 48-22 92-50 128-86s64-80 86-130c20-48 32-100 32-156 0-84-24-160-72-228l196-196c14-14 22-30 22-50z" />
<glyph unicode="&#xe003;" glyph-name="pos" d="M634-26c0-4-4-4-4-4h-28v146h-72v-146h-154c-4 0-4 4-4 4v146h-20v-146c0-14 10-24 24-24h248c14 0 24 10 24 24v146h-18v-146zM732 654l6 206c0 48-34 84-72 84h-328c-42 0-70-36-70-84l18-646c0-48 38-84 76-84h290c24 0 48 14 62 36 4 6 24 14 32 24l10 454c-4 0-18 6-24 10zM422 242c0-4-4-4-4-4h-56c-4 0-4 4-4 4v32c0 6 4 6 4 6h56c4 0 4-6 4-6zM422 326c0-4-4-4-4-4h-56c-4 0-4 4-4 4v32c0 6 4 6 4 6h56c4 0 4-6 4-6zM422 406c0-4-4-4-4-4h-56c-4 0-4 4-4 4v32c0 6 4 6 4 6h56c4 0 4-6 4-6zM422 486c0-6-4-6-4-6h-56c-4 0-4 6-4 6v38c0 4 4 4 4 4h56c4 0 4-4 4-4zM536 242c0-4-6-4-6-4h-56c-4 0-4 4-4 4v32c0 6 4 6 4 6h56c6 0 6-6 6-6zM536 326c0-4-6-4-6-4h-56c-4 0-4 4-4 4v32c0 6 4 6 4 6h56c6 0 6-6 6-6zM536 406c0-4-6-4-6-4h-56c-4 0-4 4-4 4v32c0 6 4 6 4 6h56c6 0 6-6 6-6zM536 486c0-6-6-6-6-6h-56c-4 0-4 6-4 6v38c0 4 4 4 4 4h56c6 0 6-4 6-4zM644 242c0-4-6-4-6-4h-56c-4 0-4 4-4 4v32c0 6 4 6 4 6h56c6 0 6-6 6-6zM644 326c0-4-6-4-6-4h-56c-4 0-4 4-4 4v32c0 6 4 6 4 6h56c6 0 6-6 6-6zM644 406c0-4-6-4-6-4h-56c-4 0-4 4-4 4v32c0 6 4 6 4 6h56c6 0 6-6 6-6zM644 486c0-6-6-6-6-6h-56c-4 0-4 6-4 6v38c0 4 4 4 4 4h56c6 0 6-4 6-4zM658 636c0-20-14-34-28-34h-258c-14 0-28 14-28 34v174c0 18 14 32 28 32h258c14 0 28-14 28-32z" />
<glyph unicode="&#xe006;" glyph-name="download" d="M886 308v-234h-748v234h-138v-302c0-40 30-70 70-70h884c40 0 70 30 70 70v302zM500 330l-198 238c0 0-30 28 2 28 34 0 110 0 110 0s0 18 0 50c0 84 0 234 0 296 0 0-4 18 22 18 24 0 138 0 156 0s18-16 18-16c0-60 0-216 0-298 0-26 0-44 0-44s64 0 102 0c38 0 10-32 10-32s-166-222-192-244c-16-14-30 4-30 4z" />
<glyph unicode="&#xe900;" glyph-name="external-link" d="M964.198 447.283c-25.19-4.096-42.598-27.75-42.598-53.248v-355.635h-793.6c-14.131 0-25.6 11.418-25.6 25.6v793.6h355.635c25.498 0 49.152 17.408 53.248 42.598 5.222 32.051-19.405 59.802-50.483 59.802h-384c-42.445 0-76.8-34.406-76.8-76.8v-870.4c0-42.394 34.355-76.8 76.8-76.8h870.4c42.445 0 76.8 34.406 76.8 76.8v384c0 31.078-27.75 55.706-59.802 50.483zM665.6 959.98c-31.078 0-55.706-27.75-50.483-59.802 4.096-25.19 27.75-42.598 53.248-42.598h180.838l-371.098-371.098c-19.302-19.302-22.784-50.944-5.069-71.68 10.24-12.032 24.627-18.022 38.963-18.022 13.107 0 26.214 5.018 36.198 15.002l373.402 373.402v-180.838c0-25.498 17.408-49.152 42.598-53.248 32.051-5.222 59.802 19.405 59.802 50.483v332.8c0 14.131-11.469 25.6-25.6 25.6h-332.8z" />
<glyph unicode="&#xe901;" glyph-name="down-chevron" d="M512 162.359c-15.204 0-30.348 5.768-41.95 17.337l-452.674 452.674c-23.171 23.199-23.171 60.729 0 83.867 23.171 23.199 60.702 23.199 83.867 0l410.757-410.724 410.757 410.724c23.171 23.199 60.702 23.199 83.867 0 23.171-23.171 23.171-60.669 0-83.867l-452.702-452.674c-11.569-11.569-26.746-17.337-41.923-17.337z" />
</font>
</defs>
</svg>
