<?xml version="1.0" encoding="UTF-8"?>
<svg width="160px" height="70px" viewBox="0 0 160 70" version="1.1" xmlns="http://www.w3.org/2000/svg" xmlns:xlink="http://www.w3.org/1999/xlink">
    <!-- Generator: Sketch 49.3 (51167) - http://www.bohemiancoding.com/sketch -->
    <title>casper-svg-logobar</title>
    <desc>Created with Sketch.</desc>
    <defs>
        <polygon id="path-1" points="0 0.227824624 22.6224344 0.227824624 22.6224344 21.2030826 0 21.2030826"></polygon>
        <polygon id="path-3" points="0.112032787 0.0999388813 15.2763011 0.0999388813 15.2763011 22.6101695 0.112032787 22.6101695"></polygon>
    </defs>
    <g id="casper-svg-logobar" stroke="none" stroke-width="1" fill="none" fill-rule="evenodd">
        <g id="Page-1" transform="translate(35.000000, 22.000000)">
            <g id="Group-3" transform="translate(0.000000, 0.017941)">
                <mask id="mask-2" fill="white">
                    <use xlink:href="#path-1"></use>
                </mask>
                <g id="Clip-2"></g>
                <path d="M-2.45901639e-05,9.95066186 C0.0894836066,9.4593822 0.167434426,8.96589068 0.26997541,8.47756017 C1.15128689,4.28140763 4.62292623,1.01939915 8.88046721,0.383119492 C10.7874344,0.0980347458 12.6742377,0.165865254 14.4668607,0.921585593 C15.2385,1.24697542 15.9356311,1.75177203 16.6598115,2.18652627 C16.9669426,2.37084831 17.2418607,2.61218729 17.5566148,2.77979746 C18.2340738,3.14033136 18.9548115,2.9053822 19.3199754,2.23518729 C19.3674344,2.14818729 19.4097295,2.05872966 19.4741557,1.93117881 C20.508418,2.14499237 21.540959,2.35880593 22.6224344,2.58269576 C22.5806311,2.75890763 22.5585,2.91029746 22.5088279,3.05234831 C21.5891557,5.68790763 18.6737459,6.89140763 16.0991557,5.68004322 C15.6221066,5.4554161 15.1644836,5.1673822 14.7444836,4.84739915 C11.2775164,2.20790763 5.11768033,3.40329746 3.79472951,9.15758559 C3.09317213,12.2079924 4.4835,15.4429669 7.12079508,16.9870941 C10.0342377,18.6929331 14.3520246,18.1429161 16.3725984,14.8202042 C16.4166148,14.74795 16.4707131,14.6818398 16.5491557,14.5727212 C17.5607951,15.1234754 18.5630902,15.6695602 19.6575984,16.2655347 C19.245959,16.8062127 18.8955492,17.3468907 18.4662049,17.8155602 C16.8056311,19.629289 14.735877,20.7135941 12.308582,21.0655263 C8.40268033,21.6317636 5.10169672,20.4523483 2.49169672,17.4810771 C1.08931967,15.8846025 0.312516393,13.9912466 0.0926803279,11.8737551 C0.079647541,11.7484161 0.0316967213,11.6267636 -2.45901639e-05,11.5031449 L-2.45901639e-05,9.95066186 Z" id="Fill-1" fill="#00112C" mask="url(#mask-2)"></path>
            </g>
            <g id="Group-6" transform="translate(49.426230, 6.162008)">
                <mask id="mask-4" fill="white">
                    <use xlink:href="#path-3"></use>
                </mask>
                <g id="Clip-5"></g>
                <path d="M7.68211475,3.17213305 C5.11342623,3.16697203 3.30063934,4.99077712 3.30137705,7.57988729 C3.30211475,10.1613788 5.13113115,12.0146754 7.67670492,12.0124636 C10.2370328,12.0104975 12.0436721,10.1790737 12.0446557,7.58553983 C12.0456393,4.97332797 10.2699836,3.17729407 7.68211475,3.17213305 Z M0.112032787,22.6102432 C0.113754098,15.3939127 0.11547541,8.17733644 0.117196721,0.961251695 L0.117196721,0.318827966 L3.3682623,0.318827966 L3.3682623,1.77570932 C3.55981967,1.63292119 3.67268852,1.55353983 3.78063934,1.46801441 C5.304,0.26205678 7.04940984,-0.0535025424 8.93596721,0.163505932 C10.1099016,0.298921186 11.2095738,0.645692373 12.1961311,1.29819237 C13.7221967,2.30704831 14.6312951,3.74205678 15.0294098,5.51228559 C15.4233443,7.26383644 15.364082,9.0021161 14.7195738,10.6801839 C13.8035902,13.0660483 12.0104754,14.4349466 9.52859016,14.9114805 C7.72613115,15.2572686 5.9782623,15.1117771 4.36908197,14.1375737 C4.0432623,13.9402263 3.74990164,13.6893025 3.3832623,13.4201924 L3.3832623,22.2317686 C2.50022951,22.3268788 1.66170492,22.4148619 0.823672131,22.5104636 C0.670967213,22.5276669 0.52195082,22.5760822 0.371213115,22.6102432 L0.112032787,22.6102432 Z" id="Fill-4" fill="#00112C" mask="url(#mask-4)"></path>
            </g>
            <path d="M32.5728197,13.7512839 C32.5787213,11.2688347 30.6924098,9.33591102 28.2616721,9.33369915 C25.7847049,9.33173305 23.8086393,11.2845636 23.806918,13.7370297 C23.8049508,16.1735212 25.8026557,18.1696059 28.2479016,18.1742754 C30.6488852,18.1786992 32.566918,16.2175127 32.5728197,13.7512839 M32.4560164,7.89746186 L32.4560164,6.47744492 L35.7688033,6.47744492 L35.7688033,21.0482246 L32.4734754,21.0482246 L32.4734754,19.7016907 C31.8223279,20.0683686 31.234623,20.4866568 30.5839672,20.7508517 C27.0238033,22.1966737 21.7167541,20.4411907 20.7599508,15.2968856 C20.2971639,12.8080466 20.7921639,10.4905042 22.564377,8.57011441 C23.7262623,7.3113178 25.1903607,6.60696186 26.8816721,6.35652966 C28.5737213,6.10609746 30.1715902,6.33613136 31.6329836,7.26683475 C31.8975738,7.4351822 32.1336393,7.64825847 32.4560164,7.89746186" id="Fill-7" fill="#00112C"></path>
            <path d="M69.5734426,11.9608534 L77.4811475,11.9608534 C77.230082,10.66765 75.4839344,9.09648898 73.3357377,9.19774322 C71.5578689,9.28154831 69.6904918,10.6681415 69.5734426,11.9608534 M81.0068852,14.848811 L75.1952459,14.848811 L69.4295902,14.848811 C69.3339344,15.68465 70.3920492,17.2597432 71.8318033,17.8756246 C73.2737705,18.4927347 76.0972131,18.3519127 77.1568033,16.6372263 C78.3051639,16.6372263 79.4685246,16.6367347 80.632377,16.6382093 C80.7167213,16.6382093 80.8015574,16.6522178 80.9783607,16.6679466 C80.8030328,17.0329042 80.672459,17.3750059 80.4853279,17.6824551 C79.4181148,19.4357263 77.82,20.4728449 75.8631148,20.9483958 C73.0836885,21.6235059 70.522623,21.1703195 68.3365574,19.2386246 C66.9,17.9695059 66.1168033,16.3469805 65.9333607,14.4315059 C65.6087705,11.0436669 67.5781967,8.11417542 70.3711475,6.90969237 C74.732459,5.02862458 79.9559016,7.32503136 80.9835246,12.2815737 C81.1330328,13.0014127 81.0708197,13.7657347 81.0971311,14.5096585 C81.1005738,14.6032941 81.0484426,14.6993873 81.0068852,14.848811" id="Fill-9" fill="#00112C"></path>
            <path d="M40.4169344,16.668389 C40.4693115,16.8055246 40.5160328,16.939711 40.5711148,17.0709483 C41.1020164,18.3329398 42.7948033,18.7485246 43.8701311,17.8937619 C44.5898852,17.321872 44.9289836,15.7863466 43.7078361,15.1227873 C43.2588197,14.8787449 42.7643115,14.7155585 42.2843115,14.5314822 C41.7765246,14.3365924 41.2451311,14.1967534 40.7528361,13.9701602 C39.1972623,13.2547449 38.3439836,12.0296178 38.3545574,10.3105076 C38.3646393,8.64374492 39.2265246,7.45744831 40.7016885,6.73613475 C43.0040656,5.60980424 45.8152131,6.5255161 47.0916885,8.82954153 C46.2298033,9.23603305 45.3711148,9.64080424 44.4893115,10.0568805 C44.1175082,9.60836356 43.7095574,9.23996525 43.1235738,9.12543983 C42.175377,8.93964322 41.4057049,9.5415161 41.4888197,10.4193805 C41.5318525,10.8725669 41.8289016,11.1522449 42.1945574,11.3316517 C42.7468525,11.6022364 43.3259508,11.8177703 43.8927541,12.0588636 C44.4593115,12.2999568 45.037918,12.5174568 45.5887377,12.7909907 C48.2184098,14.0969737 48.230459,16.972889 47.2298852,18.6841347 C46.3650492,20.1633805 45.0386557,20.9508042 43.357918,21.1702703 C41.6963607,21.3877703 40.1862787,21.0417364 38.9026721,19.9225331 C38.0385738,19.1687788 37.5357049,18.2009653 37.3175902,17.0827449 C37.2937377,16.9596178 37.3143934,16.8276432 37.3143934,16.668389 L40.4169344,16.668389 Z" id="Fill-11" fill="#00112C"></path>
            <path d="M82.9114426,6.46599237 L86.1386557,6.46599237 L86.1386557,7.78795 C86.7607869,7.37900085 87.3093934,6.94645847 87.9202131,6.63728898 C88.5361967,6.3254161 89.2296393,6.23128898 89.9700492,6.28609407 L89.9700492,9.27923814 C89.608082,9.32716186 89.225459,9.35050932 88.8551311,9.43161102 C87.3143115,9.76928898 86.2382459,10.9818822 86.2040656,12.5641025 C86.1472623,15.1630432 86.1671803,17.7637042 86.1548852,20.3633822 C86.1541475,20.57695 86.1546393,20.7907636 86.1546393,21.0382466 L82.9114426,21.0382466 L82.9114426,6.46599237 Z" id="Fill-13" fill="#00112C"></path>
        </g>
    </g>
</svg>