<?xml version="1.0" encoding="UTF-8"?>
<svg width="160px" height="70px" viewBox="0 0 160 70" version="1.1" xmlns="http://www.w3.org/2000/svg" xmlns:xlink="http://www.w3.org/1999/xlink">
    <!-- Generator: Sketch 51.3 (57544) - http://www.bohemiancoding.com/sketch -->
    <title>citizen-m-logobar-svg</title>
    <desc>Created with Sketch.</desc>
    <defs>
        <polygon id="path-1" points="8.11460102 9.624 8.11460102 0.55748141 0.177928693 0.55748141 0.177928693 9.624"></polygon>
        <polygon id="path-3" points="0 47.7413895 47.163837 47.7413895 47.163837 -8.42105263e-05 0 -8.42105263e-05"></polygon>
    </defs>
    <g id="citizen-m-logobar-svg" stroke="none" stroke-width="1" fill="none" fill-rule="evenodd">
        <g id="Page-1" transform="translate(55.000000, 11.000000)">
            <path d="M14.7640917,47.4949053 C14.2080645,46.6258526 13.6613752,45.7736421 13.1163837,44.9197474 C10.1698642,40.3092211 7.22419355,35.6970105 4.27852292,31.0864842 C2.98820034,29.0662737 1.69702886,27.0485895 0.410950764,25.0258526 C0.355772496,24.9382737 0.324363328,24.8203789 0.324363328,24.7168 C0.319269949,21.0098526 0.320118846,17.3037474 0.320118846,13.5976421 L0.320118846,13.3812211 L0.58327674,13.3812211 C5.59431239,13.3812211 10.605348,13.3820632 15.6155348,13.3778526 C15.7827674,13.3770105 15.8786927,13.4250105 15.9695246,13.5690105 C19.2912564,18.8271158 22.6129881,24.0843789 25.9508489,29.3323789 C26.146944,29.6405895 26.1359083,29.8309053 25.941511,30.1315368 C22.2437182,35.8603789 18.5595076,41.5976421 14.8719015,47.3340632 C14.8421902,47.3795368 14.810781,47.4250105 14.7640917,47.4949053 Z" id="Fill-1" fill="#00112C"></path>
            <path d="M0.367317487,30.2943158 C4.07359932,36.1014737 7.77988115,41.9094737 11.4997453,47.7376842 L0.331663837,47.7376842 L0.331663837,30.3018947 C0.343548387,30.2993684 0.355432937,30.2968421 0.367317487,30.2943158" id="Fill-3" fill="#00112C"></path>
            <path d="M36.1929542,6.48917895 C36.0325127,5.66391579 35.2438879,4.88412632 34.1708829,4.83107368 C33.0367572,4.77633684 32.0061969,5.50981053 31.8228353,6.48917895 L36.1929542,6.48917895 Z M38.4764856,8.34854737 L31.7897284,8.34854737 C31.7897284,8.39065263 31.7837861,8.42012632 31.7897284,8.44791579 C32.2124788,10.0394947 34.2719015,10.6533895 35.5011036,9.54938947 C35.6182513,9.44328421 35.7031409,9.30096842 35.8134975,9.1856 C35.8618846,9.13591579 35.9365874,9.07865263 35.9994058,9.07781053 C36.7337012,9.07023158 37.4662988,9.07275789 38.1997453,9.0736 C38.2303056,9.0736 38.2608659,9.08117895 38.3067063,9.08623158 C38.177674,9.57717895 37.9595076,10.0142316 37.661545,10.4108632 C36.9696944,11.3363368 36.0265705,11.8474947 34.8949915,12.0268632 C33.4247029,12.2592842 32.09618,11.9401263 30.9849745,10.9338105 C29.8101019,9.87023158 29.3143463,8.52875789 29.4756367,6.95907368 C29.6708829,5.04328421 31.046944,3.43738947 32.9051783,2.97002105 C35.1573005,2.40328421 37.7871817,3.51823158 38.390747,6.39317895 C38.5282683,7.04665263 38.5588285,7.88707368 38.4764856,8.34854737 Z" id="Fill-5" fill="#00112C"></path>
            <g id="Group-9" transform="translate(39.049236, 2.267705)">
                <mask id="mask-2" fill="white">
                    <use xlink:href="#path-1"></use>
                </mask>
                <g id="Clip-8"></g>
                <path d="M2.4385399,9.624 L0.177928693,9.624 L0.177928693,0.796210526 L2.32648557,0.796210526 L2.32648557,1.59789474 C2.37487267,1.57094737 2.40373514,1.56252632 2.42071307,1.54315789 C3.78998302,-0.0315789474 6.59388795,0.333052632 7.60322581,2.26231579 C7.95891341,2.94021053 8.11171477,3.66105263 8.11341256,4.41642105 C8.11595925,6.10652632 8.11426146,7.79578947 8.11426146,9.48589474 C8.11426146,9.52715789 8.10916808,9.56926316 8.1057725,9.61894737 L5.83242784,9.61894737 L5.83242784,9.40842105 C5.83242784,7.78063158 5.83582343,6.152 5.82903226,4.52421053 C5.82733447,4.29263158 5.80186757,4.05431579 5.74329372,3.83031579 C5.50135823,2.91410526 4.72971138,2.62021053 3.9139219,2.72968421 C3.04550085,2.84673684 2.45721562,3.49852632 2.44872666,4.37684211 C2.42920204,6.04757895 2.44023769,7.71915789 2.4385399,9.38989474 L2.4385399,9.624 Z" id="Fill-7" fill="#00112C" mask="url(#mask-2)"></path>
            </g>
            <path d="M29.4316638,11.8888421 L21.667657,11.8888421 L21.667657,11.5747368 C21.667657,11.0753684 21.6625637,10.5751579 21.6719015,10.0766316 C21.6735993,9.98989474 21.7177419,9.88378947 21.7780136,9.82063158 C23.2610357,8.28547368 24.7491511,6.75452632 26.2364177,5.22273684 C26.266129,5.19326316 26.2932937,5.16042105 26.348472,5.09726316 L21.8654499,5.09726316 L21.8654499,3.06610526 L29.2890492,3.06610526 L29.2890492,3.23957895 C29.2890492,3.80042105 29.2941426,4.36126316 29.2839559,4.92294737 C29.2822581,5.01557895 29.2406621,5.13094737 29.1778438,5.19663158 C27.7313243,6.69894737 26.2788625,8.19536842 24.8280985,9.69347368 C24.790747,9.73136842 24.7576401,9.77263158 24.692275,9.84673684 L29.4316638,9.84673684 L29.4316638,11.8888421 Z" id="Fill-10" fill="#00112C"></path>
            <path d="M8.91595925,8.90408421 C8.60101868,10.0670316 7.98217317,10.9765053 6.92699491,11.5390316 C4.46604414,12.8501895 0.824278438,11.9146105 0.106112054,8.45018947 C-0.372665535,6.14450526 0.808149406,3.88345263 2.96264856,3.12387368 C4.52631579,2.57313684 6.03735144,2.72724211 7.4040747,3.71587368 C8.16383701,4.26576842 8.6188455,5.03629474 8.87266553,5.92808421 C8.87860781,5.95082105 8.87691002,5.97608421 8.8803056,6.01818947 L8.05687606,6.01818947 C7.5721562,6.01818947 7.08743633,6.02155789 6.60271647,6.01397895 C6.53480475,6.01229474 6.43803056,5.97692632 6.4057725,5.9264 C5.5950764,4.63545263 3.73005093,4.48303158 2.76061121,5.98450526 C2.00764007,7.15166316 2.25212224,8.75082105 3.3089983,9.57692632 C4.31494058,10.3642947 5.74617997,10.1049263 6.41511036,9.01861053 C6.44482173,8.96976842 6.50933786,8.90913684 6.55857385,8.90829474 C7.3344652,8.9024 8.11120543,8.90408421 8.91595925,8.90408421" id="Fill-12" fill="#00112C"></path>
            <path d="M17.683871,9.83663158 L17.683871,11.8964211 C17.3842105,11.8964211 17.0870968,11.9141053 16.7933786,11.8930526 C15.6142615,11.8096842 14.6872666,11.312 14.1354839,10.2374737 C13.8044143,9.59157895 13.6957555,8.89431579 13.6949066,8.17684211 C13.6949066,7.21515789 13.6949066,6.25263158 13.6949066,5.29094737 L13.6949066,5.06778947 L12.6337861,5.06778947 L12.6337861,3.05936842 L13.6830221,3.05936842 L13.6830221,-7.10542736e-15 L15.9691002,-7.10542736e-15 L15.9691002,3.04589474 L17.5709677,3.04589474 L17.5709677,5.05178947 L15.9877759,5.05178947 C15.9835314,5.136 15.9775891,5.19663158 15.9775891,5.25642105 C15.9767402,6.24336842 15.9699491,7.23031579 15.9818336,8.21642105 C15.9843803,8.45389474 16.0217317,8.69642105 16.0820034,8.92715789 C16.2186757,9.44336842 16.5837012,9.71705263 17.1057725,9.78947368 C17.289983,9.81557895 17.4767402,9.82063158 17.683871,9.83663158" id="Fill-14" fill="#00112C"></path>
            <mask id="mask-4" fill="white">
                <use xlink:href="#path-3"></use>
            </mask>
            <g id="Clip-17"></g>
            <polygon id="Fill-16" fill="#00112C" mask="url(#mask-4)" points="18.6188455 11.8820211 20.8845501 11.8820211 20.8845501 3.05928421 18.6188455 3.05928421"></polygon>
            <polygon id="Fill-18" fill="#00112C" mask="url(#mask-4)" points="9.50679117 11.8862316 11.7563667 11.8862316 11.7563667 3.06349474 9.50679117 3.06349474"></polygon>
            <path d="M45.9966893,46.2736842 C45.7691851,46.5844211 45.433871,46.6618947 45.0713922,46.6408421 C44.6936333,46.6172632 44.3685059,46.4842105 44.1944822,46.1178947 C44.1613752,46.0488421 44.1486418,45.9705263 44.1189304,45.8694737 C44.3065365,45.8694737 44.466129,45.8644211 44.6257216,45.872 C44.6664686,45.8745263 44.7131579,45.9098947 44.7437182,45.9418947 C44.9228353,46.1322105 45.1401528,46.1616842 45.3752971,46.0842105 C45.4330221,46.0648421 45.507725,45.9924211 45.5102716,45.9402105 C45.5119694,45.8938947 45.4355688,45.8164211 45.3786927,45.7995789 C45.2199491,45.7507368 45.0527165,45.7296842 44.8897284,45.6926316 C44.7870119,45.6690526 44.6825976,45.6471579 44.5858234,45.6075789 C44.1240238,45.4189474 44.0416808,44.9305263 44.4134975,44.6029474 C44.7734295,44.2863158 45.5272496,44.3115789 45.8506791,44.6644211 C45.9449066,44.7671579 45.999236,44.9052632 46.0713922,45.0282105 C46.0561121,45.0416842 46.0425297,45.056 46.0272496,45.0694737 C45.7955008,45.0391579 45.5578098,45.1368421 45.3252122,44.9574737 C45.2301358,44.8833684 45.0306452,44.9330526 44.8812394,44.944 C44.8447368,44.9473684 44.7853141,45.0181053 44.786163,45.0568421 C44.786163,45.0938947 44.8464346,45.1503158 44.8888795,45.1621053 C45.0561121,45.2058947 45.228438,45.2328421 45.3965195,45.2741053 C45.5162139,45.3027368 45.638455,45.3313684 45.7505093,45.3793684 C46.1095925,45.5351579 46.2275891,45.9570526 45.9966893,46.2736842 Z M43.286163,46.5793684 L43.8337012,46.5793684 L43.8337012,43.5073684 L43.286163,43.5073684 L43.286163,46.5793684 Z M42.9296265,45.7406316 L41.3634126,45.7406316 C41.416893,46.1338947 41.9466044,46.2484211 42.1639219,46.0303158 C42.3005942,45.8938947 42.4389643,45.8930526 42.5968591,45.8930526 L42.8744482,45.8930526 C42.8608659,46.3124211 42.3370968,46.6770526 41.8158744,46.6458947 C41.1732598,46.608 40.6817487,46.0454737 40.7445671,45.4197895 C40.8099321,44.7671579 41.3914261,44.2997895 42.0247029,44.3924211 C42.6486418,44.4833684 43.0467742,45.0610526 42.9296265,45.7406316 Z M40.1825976,45.8324211 C40.19618,46.0025263 40.2606961,46.0261053 40.556961,46.0825263 L40.556961,46.5658947 C40.0722411,46.7056842 39.6189304,46.3545263 39.5883701,45.8037895 C39.57309,45.5284211 39.5849745,45.2513684 39.5849745,44.9642105 C39.5000849,44.9541053 39.4287776,44.9448421 39.3583192,44.9355789 C39.2522071,44.5903158 39.3048387,44.4513684 39.57309,44.4168421 L39.57309,43.9107368 L40.1426995,43.9107368 L40.1426995,44.3966316 C40.2887097,44.4294737 40.4491511,44.4210526 40.5297963,44.496 C40.5900679,44.5532632 40.5671477,44.7208421 40.5467742,44.8328421 C40.5026316,45.0703158 40.2912564,44.8774737 40.1775042,44.9751579 C40.1775042,45.2488421 40.1613752,45.5418947 40.1825976,45.8324211 Z M38.1265705,46.6484211 C37.5145161,46.656 37.0170628,46.1465263 37.0196095,45.5149474 C37.0230051,44.8850526 37.5017827,44.3873684 38.1087436,44.384 C38.7258913,44.3814737 39.2148557,44.8808421 39.2165535,45.5157895 C39.2182513,46.1372632 38.7326825,46.6416842 38.1265705,46.6484211 Z M36.7870119,46.5743158 L36.2233447,46.5743158 C36.2233447,46.1583158 36.2258913,45.7583158 36.2224958,45.3583158 C36.220798,45.2042105 36.1825976,45.0602105 36.0272496,44.9877895 C35.8752971,44.9178947 35.7012733,44.9077895 35.5917657,45.0282105 C35.5017827,45.1275789 35.4381154,45.2825263 35.4313243,45.4164211 C35.4101019,45.7970526 35.4236842,46.1793684 35.4236842,46.5734737 L34.8625637,46.5734737 L34.8625637,43.5124211 L35.4194397,43.5124211 L35.4194397,44.4614737 C35.6511885,44.4378947 35.8719015,44.3806316 36.0832767,44.4042105 C36.4695246,44.4488421 36.7539049,44.7503158 36.7810696,45.1612632 C36.810781,45.6261053 36.7870119,46.0951579 36.7870119,46.5743158 Z M46.9737691,13.3810526 C43.597708,13.3810526 40.2216469,13.3818947 36.8455857,13.3785263 C36.7241935,13.3785263 36.6588285,13.4164211 36.5943124,13.5183158 C33.5968591,18.1995789 30.5951613,22.8791579 27.5985569,27.5604211 C27.5433786,27.648 27.5111205,27.7650526 27.5111205,27.8686316 C27.5068761,34.4244211 27.5068761,40.9810526 27.5068761,47.5368421 L27.5068761,47.7414737 L47.1486418,47.7414737 L47.1486418,13.3911579 C47.0824278,13.3869474 47.0280985,13.3810526 46.9737691,13.3810526 Z" id="Fill-19" fill="#00112C" mask="url(#mask-4)"></path>
            <path d="M41.8807301,44.888 C41.6464346,44.8745263 41.4477929,45.0168421 41.3671477,45.2627368 L42.3442275,45.2627368 C42.2949915,45.0421053 42.1192699,44.9014737 41.8807301,44.888" id="Fill-20" fill="#00112C" mask="url(#mask-4)"></path>
            <path d="M38.1460951,44.9126737 C37.9134975,44.8983579 37.6970289,45.0558316 37.6333616,45.3084632 C37.5679966,45.5644632 37.5900679,45.8112 37.8082343,46.0006737 C37.9567912,46.1295158 38.1325127,46.1556211 38.3099321,46.0722526 C38.5357385,45.9669895 38.6248727,45.7724632 38.6240238,45.5139368 C38.6231749,45.4827789 38.622326,45.4330947 38.6163837,45.3859368 C38.5824278,45.1316211 38.3769949,44.9269895 38.1460951,44.9126737" id="Fill-21" fill="#00112C" mask="url(#mask-4)"></path>
        </g>
    </g>
</svg>