<svg width="160" height="70" viewBox="0 0 160 70" fill="none" xmlns="http://www.w3.org/2000/svg">
<path fill-rule="evenodd" clip-rule="evenodd" d="M98.9702 31.3892C100.234 31.3892 101.255 32.402 101.255 33.6554C101.255 34.9088 100.234 35.9216 98.9702 35.9216C97.7066 35.9216 96.6855 34.9088 96.6855 33.6554C96.6855 32.402 97.7066 31.3892 98.9702 31.3892ZM129.845 39.7324C129.96 35.9216 136.137 35.5798 139.711 37.7194L138.384 40.3021C137.146 39.4539 136.086 39.0614 134.733 39.1627C133.444 39.264 133.304 40.6566 135.397 40.606C138.652 40.53 140.413 42.2265 140.247 44.4041C139.966 47.9364 134.363 49.3797 129.462 46.2779L131.262 43.6571C132.627 44.4294 133.993 45.1258 135.359 44.9738C136.776 44.8092 137.503 43.6698 134.963 43.4039C131.491 43.0368 129.768 41.948 129.845 39.7324ZM102.914 47.9744V37.1117H106.896V38.6309C108.441 36.0862 114.452 36.0482 114.452 40.0236V47.9617H110.483L110.445 42.505C110.432 40.3274 109.628 40.1122 108.543 40.2388C107.649 40.3401 106.845 40.6566 106.845 42.505V47.9617H102.914V47.9744ZM96.8897 36.9218H101.025V47.9744H96.8897V36.9218ZM76.7107 47.9744V37.1117H80.6929V38.6309C81.8926 36.6559 86.4875 35.6937 87.8149 38.7575C89.6911 35.9722 95.1922 36.0989 95.1922 39.8843V47.9744H90.9675V42.0366C90.9675 40.4414 90.6994 40.2895 89.3465 40.3528C88.2361 40.4034 87.9936 41.315 87.9808 42.3405L87.9553 47.9744H83.9858L83.9476 42.5177C83.9348 40.3401 83.4498 40.1502 82.3649 40.2515C81.2927 40.3528 80.8205 40.5047 80.8205 42.5177V47.9744H76.7107V47.9744ZM69.5248 36.3141C72.7667 36.3141 75.4088 38.9221 75.4088 42.1506C75.4088 45.3663 72.7795 47.987 69.5248 47.987C66.2829 47.987 63.6409 45.379 63.6409 42.1506C63.6409 38.9221 66.2701 36.3141 69.5248 36.3141ZM69.5248 40.0742C70.6863 40.0742 71.618 40.9985 71.618 42.1506C71.618 43.3027 70.6863 44.2269 69.5248 44.2269C68.3633 44.2269 67.4316 43.3027 67.4316 42.1506C67.4316 40.9985 68.3633 40.0742 69.5248 40.0742ZM47.4823 47.9744V32.6046H52.0899C53.5577 32.6046 54.8085 32.6805 55.8424 32.8451C56.8762 32.997 57.7186 33.2502 58.3695 33.5794C59.748 34.2757 60.7946 35.2126 61.5221 36.3647C62.2496 37.5168 62.6198 38.8335 62.6198 40.3148C62.6198 41.7834 62.2496 43.1001 61.5221 44.2395C60.7946 45.3916 59.748 46.3158 58.3568 47.0248C57.6931 47.3667 56.8379 47.6072 55.8041 47.7591C54.7702 47.9111 53.3918 47.987 51.656 47.987H47.4823V47.9744ZM52.0899 43.923V36.6686H53.9661C54.566 36.6686 55.0766 36.7066 55.4978 36.7825C55.919 36.8585 56.2636 36.9724 56.5316 37.1243C57.0932 37.4535 57.5272 37.8966 57.8207 38.441C58.1143 38.9854 58.2674 39.6058 58.2674 40.3021C58.2674 40.9984 58.1143 41.6188 57.8207 42.1506C57.5272 42.695 57.0932 43.1254 56.5316 43.4672C56.2636 43.6318 55.9062 43.7458 55.485 43.8217C55.0638 43.8977 54.5022 43.9357 53.7875 43.9357H52.0899V43.923ZM121.434 36.3141C124.676 36.3141 127.318 38.9221 127.318 42.1506C127.318 45.3663 124.689 47.987 121.434 47.987C118.192 47.987 115.55 45.379 115.55 42.1506C115.55 38.9221 118.192 36.3141 121.434 36.3141ZM121.434 40.0742C122.595 40.0742 123.527 40.9985 123.527 42.1506C123.527 43.3027 122.595 44.2269 121.434 44.2269C120.272 44.2269 119.341 43.3027 119.341 42.1506C119.341 40.9985 120.285 40.0742 121.434 40.0742ZM128.543 31.4145C129.449 31.4145 130.228 31.9462 130.573 32.7185C130.841 33.3136 130.866 34.0732 130.7 34.7062C130.458 35.6811 129.628 36.6306 127.879 37.5295L127.394 36.8838C127.739 36.6053 128.084 36.3141 128.224 36.0989C128.479 35.719 128.147 35.8077 127.867 35.7317C126.96 35.4532 126.31 34.6176 126.31 33.6301C126.322 32.402 127.318 31.4145 128.543 31.4145Z" fill="#00112C"/>
<path d="M141.639 36.821C141.805 36.821 141.958 36.859 142.111 36.9477C142.264 37.0363 142.392 37.1502 142.468 37.3021C142.558 37.4541 142.596 37.6187 142.596 37.7832C142.596 37.9478 142.558 38.1124 142.468 38.2643C142.379 38.4163 142.264 38.5302 142.111 38.6188C141.958 38.7075 141.792 38.7454 141.626 38.7454C141.46 38.7454 141.294 38.7075 141.141 38.6188C140.988 38.5302 140.873 38.4163 140.784 38.2643C140.694 38.1124 140.656 37.9478 140.656 37.7832C140.656 37.6187 140.694 37.4541 140.784 37.3021C140.873 37.1502 140.988 37.0363 141.141 36.9477C141.307 36.859 141.473 36.821 141.639 36.821ZM141.639 36.9856C141.498 36.9856 141.371 37.0236 141.243 37.0869C141.115 37.1502 141.013 37.2515 140.937 37.3781C140.86 37.5047 140.822 37.644 140.822 37.7832C140.822 37.9225 140.86 38.0491 140.924 38.1757C141.001 38.3023 141.09 38.4036 141.217 38.4669C141.345 38.5429 141.473 38.5682 141.613 38.5682C141.754 38.5682 141.881 38.5302 142.009 38.4669C142.136 38.391 142.239 38.3023 142.302 38.1757C142.379 38.0491 142.404 37.9225 142.404 37.7832C142.404 37.644 142.366 37.5047 142.302 37.3781C142.226 37.2515 142.124 37.1502 141.996 37.0869C141.894 37.011 141.766 36.9856 141.639 36.9856ZM141.205 38.315V37.2895H141.562C141.69 37.2895 141.779 37.3021 141.83 37.3148C141.881 37.3401 141.932 37.3654 141.958 37.4161C141.996 37.4667 142.009 37.5174 142.009 37.568C142.009 37.644 141.983 37.7073 141.932 37.7706C141.881 37.8212 141.805 37.8592 141.715 37.8592C141.754 37.8719 141.779 37.8972 141.805 37.9099C141.843 37.9478 141.894 38.0238 141.958 38.1124L142.085 38.315H141.881L141.792 38.1504C141.715 38.0238 141.664 37.9478 141.613 37.9099C141.588 37.8845 141.537 37.8719 141.473 37.8719H141.371V38.315H141.205V38.315ZM141.371 37.7326H141.575C141.677 37.7326 141.741 37.7199 141.779 37.6946C141.817 37.6693 141.83 37.6313 141.83 37.5807C141.83 37.5554 141.817 37.5174 141.805 37.5047C141.792 37.4794 141.766 37.4667 141.728 37.4541C141.702 37.4414 141.639 37.4414 141.562 37.4414H141.371V37.7326Z" fill="#00112C"/>
<path fill-rule="evenodd" clip-rule="evenodd" d="M26.2949 29.5917L34.7188 21.2611C35.0762 20.9067 35.6505 20.9193 35.9952 21.2611L43.9468 29.1739C44.3042 29.5284 44.2914 30.0982 43.9468 30.44L35.5229 38.7706L26.2949 29.5917ZM33.8509 28.1105C34.7316 27.2369 36.1738 27.2369 37.0545 28.1105C37.9352 28.984 37.9352 30.4147 37.0545 31.2882C36.1738 32.1618 34.7316 32.1618 33.8509 31.2882C32.9702 30.402 32.9702 28.984 33.8509 28.1105Z" fill="#00112C"/>
<path fill-rule="evenodd" clip-rule="evenodd" d="M27.482 37.6564C28.3627 36.7829 29.805 36.7829 30.6857 37.6564C31.5663 38.53 31.5663 39.9606 30.6857 40.8342C29.805 41.7078 28.3627 41.7078 27.482 40.8342C26.6013 39.9606 26.6013 38.5427 27.482 37.6564ZM20.8578 37.6818C21.7384 36.8082 23.1807 36.8082 24.0614 37.6818C24.9421 38.5553 24.9421 39.986 24.0614 40.8595C23.1807 41.7331 21.7384 41.7331 20.8578 40.8595C19.9771 39.9733 19.9771 38.5553 20.8578 37.6818ZM17.2585 38.5173L25.6824 30.1868L34.9104 39.3783L26.4865 47.7088C26.1291 48.0633 25.5547 48.0507 25.2101 47.7088L17.2585 39.796C16.9138 39.4416 16.9138 38.8718 17.2585 38.5173Z" fill="#00112C"/>
<path d="M29.4219 48V46.8733H28.9879V46.6833H30.0728V46.8733H29.6389V48H29.4219ZM30.226 48V46.6833H30.5578L30.8897 47.7342L31.2088 46.6833H31.5278V48H31.3236V46.8986L30.979 48H30.7748L30.4174 46.8733V48H30.226Z" fill="#00112C"/>
</svg>
