<svg width="160" height="70" viewBox="0 0 160 70" fill="none" xmlns="http://www.w3.org/2000/svg">
<g clip-path="url(#clip0)">
<path d="M150 35.8778C149.224 35.8778 148.448 35.8778 147.656 35.8778C147.519 35.8778 147.458 35.8322 147.382 35.7256C146.804 34.8429 146.226 33.945 145.632 33.0623C145.054 32.1796 144.475 31.2817 143.882 30.399C143.288 29.501 142.71 28.6183 142.117 27.7204C141.538 26.8377 140.96 25.9398 140.366 25.0571C139.499 23.733 138.631 22.4242 137.764 21.1001C137.505 20.7044 137.262 20.324 137.003 19.9435C136.851 19.7304 136.942 19.4869 136.912 19.2586C136.988 19.2586 137.049 19.2434 137.109 19.2434C138.083 19.2434 139.058 19.2434 140.032 19.2434C140.153 19.2434 140.229 19.2891 140.29 19.3804C141.569 21.3132 142.847 23.2308 144.125 25.1636C145.054 26.5638 145.982 27.9791 146.926 29.3793C147.489 30.2163 148.052 31.0686 148.6 31.9057C148.63 31.9513 148.661 31.9817 148.706 32.0578C148.706 27.7661 148.706 23.52 148.706 19.2434C149.148 19.2434 149.559 19.2434 149.985 19.2434C150 24.7984 150 30.3381 150 35.8778Z" fill="#00112C"/>
<path d="M109.137 19C109.228 19.0152 109.319 19.0304 109.411 19.0304C110.537 19.0609 111.633 19.2587 112.637 19.7914C112.789 19.8675 112.866 19.9588 112.866 20.1414C112.85 20.5067 112.866 20.8872 112.866 21.2829C112.683 21.1763 112.515 21.085 112.363 20.9785C111.648 20.5219 110.857 20.2327 110.02 20.1262C109.685 20.0806 109.35 20.0653 109.015 20.0501C108.406 20.0045 107.813 20.0806 107.25 20.3088C106.413 20.6437 105.834 21.1915 105.682 22.1199C105.545 23.033 105.728 23.8549 106.428 24.5093C106.854 24.905 107.356 25.1637 107.889 25.392C108.726 25.742 109.563 26.0616 110.4 26.4269C111.039 26.7008 111.648 27.0204 112.211 27.4466C113.048 28.0706 113.596 28.8924 113.794 29.9273C113.9 30.4447 113.931 30.9774 113.885 31.4948C113.809 32.408 113.55 33.2602 112.987 34.006C112.622 34.493 112.181 34.8735 111.663 35.1778C111.024 35.5735 110.309 35.8018 109.578 35.954C109.243 36.0149 108.893 36.0453 108.543 36.0758C108.132 36.1062 107.737 36.1214 107.326 36.1062C106.55 36.0758 105.789 35.9692 105.043 35.7562C104.449 35.5888 103.886 35.3453 103.354 35.0409C103.247 34.98 103.201 34.9191 103.201 34.7974C103.201 34.3712 103.201 33.9451 103.201 33.4885C103.43 33.6407 103.643 33.7929 103.856 33.9299C104.632 34.4321 105.484 34.7669 106.397 34.9343C106.961 35.0409 107.539 35.1017 108.117 35.0713C108.939 35.0257 109.761 34.8887 110.461 34.4169C111.131 33.9603 111.465 33.3211 111.496 32.4993C111.511 32.0275 111.481 31.5709 111.268 31.1448C111.039 30.6882 110.689 30.3534 110.293 30.0642C109.533 29.5316 108.68 29.1663 107.828 28.8163C107.326 28.6184 106.839 28.3902 106.337 28.1771C105.789 27.9336 105.271 27.6444 104.815 27.2639C104.191 26.7617 103.749 26.1225 103.506 25.3616C103.293 24.6767 103.247 23.9918 103.293 23.2918C103.384 22.1047 103.917 21.1154 104.83 20.3393C105.53 19.7457 106.337 19.3653 107.25 19.1978C107.661 19.1218 108.072 19.0913 108.482 19.0457C108.513 19.0457 108.528 19.0152 108.559 19.0152C108.741 19 108.939 19 109.137 19Z" fill="#00112C"/>
<path d="M10 19.2588C10.9892 19.2588 11.9785 19.2588 12.9982 19.2588C12.9982 21.7547 12.9982 24.2506 12.9982 26.7466C14.7179 26.7466 16.4224 26.7466 18.1422 26.7466C18.1422 27.0814 18.1422 27.401 18.1422 27.7358C16.4377 27.7358 14.7331 27.7358 13.0134 27.7358C13.0134 30.46 13.0134 33.1538 13.0134 35.878C12.0089 35.878 11.0045 35.878 10.0152 35.878C10 30.3383 10 24.7985 10 19.2588Z" fill="#00112C"/>
<path d="M120.688 29.4858C121.449 29.4858 122.18 29.4858 122.925 29.4858C123.047 29.4858 123.093 29.5163 123.138 29.638C123.23 29.9272 123.351 30.2011 123.488 30.5055C123.397 30.5055 123.336 30.5055 123.26 30.5055C122.317 30.5055 121.388 30.5055 120.445 30.5055C120.323 30.5055 120.277 30.5359 120.232 30.6577C119.745 31.8904 119.258 33.108 118.771 34.3407C118.588 34.8125 118.39 35.2843 118.207 35.7713C118.192 35.8169 118.131 35.8778 118.101 35.8778C117.675 35.893 117.249 35.8778 116.823 35.8778C117.096 35.193 117.37 34.5385 117.629 33.8689C118.07 32.7731 118.512 31.6774 118.953 30.5664C119.318 29.638 119.714 28.7249 120.079 27.8117C120.597 26.5333 121.099 25.2397 121.617 23.9461C122.043 22.896 122.469 21.8459 122.895 20.7958C123.078 20.3392 123.26 19.8978 123.428 19.4413C123.473 19.3195 123.534 19.2434 123.702 19.2434C124.112 19.2586 124.523 19.2586 124.919 19.2434C125.026 19.2434 125.071 19.2891 125.117 19.3804C125.467 20.2783 125.817 21.161 126.167 22.0589C126.502 22.9112 126.852 23.7635 127.187 24.6157C127.613 25.6963 128.039 26.7768 128.465 27.8422C128.83 28.7553 129.196 29.6837 129.561 30.5968C129.957 31.6165 130.367 32.6362 130.763 33.6406C131.037 34.3255 131.296 35.0103 131.57 35.6952C131.585 35.7409 131.6 35.8017 131.631 35.8626C130.55 35.8626 129.485 35.8626 128.404 35.8626C126.715 31.5252 125.026 27.1725 123.321 22.8047C122.438 25.0266 121.556 27.2486 120.688 29.4858Z" fill="#00112C"/>
<path d="M84.5429 35.878C84.6951 35.4975 84.8321 35.1475 84.9843 34.7822C85.4713 33.5647 85.9583 32.3472 86.4453 31.1296C86.8105 30.2165 87.191 29.3034 87.5563 28.3902C88.0737 27.0966 88.5912 25.803 89.1086 24.5094C89.5348 23.4592 89.9609 22.4091 90.387 21.359C90.6457 20.7198 90.8893 20.0958 91.148 19.4566C91.1936 19.3349 91.2545 19.2588 91.4219 19.2588C91.8328 19.274 92.2437 19.274 92.6394 19.2588C92.746 19.2588 92.7916 19.2892 92.8373 19.3958C93.2025 20.3089 93.5678 21.222 93.9178 22.1352C94.3135 23.1396 94.7244 24.1593 95.1201 25.1638C95.5158 26.1835 95.9268 27.2031 96.3225 28.2076C96.6877 29.1207 97.053 30.0491 97.4182 30.9622C97.8444 32.058 98.2705 33.1386 98.7118 34.2343C98.9097 34.7213 99.1075 35.2236 99.2902 35.7106C99.3054 35.7562 99.3206 35.8171 99.351 35.878C98.2705 35.878 97.2052 35.878 96.1398 35.878C94.4505 31.5253 92.7612 27.1879 91.0567 22.8048C90.174 25.042 89.3065 27.2488 88.4238 29.486C88.6216 29.486 88.8042 29.486 88.9869 29.486C89.55 29.486 90.1131 29.486 90.661 29.486C90.7675 29.486 90.8132 29.5164 90.8588 29.623C90.9653 29.9121 91.0871 30.2013 91.2088 30.5209C91.1175 30.5209 91.0567 30.5209 90.9806 30.5209C90.0522 30.5209 89.1238 30.5209 88.1803 30.5209C88.0585 30.5209 87.9976 30.5361 87.952 30.6731C87.4954 31.8449 87.0236 33.0016 86.5518 34.1735C86.3388 34.7061 86.1257 35.2388 85.9126 35.7867C85.867 35.8932 85.8213 35.8932 85.7452 35.8932C85.38 35.878 84.9843 35.878 84.5429 35.878Z" fill="#00112C"/>
<path d="M35.918 22.8047C35.0353 25.0419 34.1678 27.2487 33.2851 29.4707C34.0917 29.4707 34.8679 29.4707 35.6593 29.4707C35.7963 29.8055 35.918 30.1403 36.055 30.4904C34.9744 30.4904 33.9243 30.4904 32.8742 30.4904C32.3263 31.8753 31.7632 33.2602 31.2153 34.6299C31.0631 34.9952 30.9414 35.3605 30.7892 35.7257C30.7588 35.7866 30.6827 35.8627 30.6218 35.8627C30.2261 35.8779 29.8304 35.8627 29.389 35.8627C29.4651 35.6648 29.526 35.4974 29.6021 35.33C29.9217 34.5386 30.2413 33.7472 30.5609 32.9558C30.9109 32.0731 31.2762 31.2057 31.6262 30.323C31.9306 29.5772 32.235 28.8163 32.5394 28.0705C32.8742 27.2487 33.209 26.4269 33.5286 25.6051C33.833 24.8441 34.1374 24.0984 34.4418 23.3374C34.7918 22.4699 35.1418 21.6024 35.5071 20.7197C35.6897 20.2632 35.8724 19.8218 36.055 19.3652C36.1006 19.2587 36.1463 19.2283 36.2528 19.2283C36.679 19.2283 37.1051 19.2283 37.5312 19.2283C37.6225 19.2283 37.6682 19.2283 37.7139 19.35C38.3074 20.8719 38.9009 22.3786 39.5097 23.9005C39.9663 25.0724 40.4533 26.229 40.9099 27.4009C41.6099 29.1815 42.31 30.9622 43.0101 32.7428C43.421 33.7777 43.8319 34.8126 44.2428 35.8627C44.1667 35.8627 44.1059 35.8779 44.0602 35.8779C43.1166 35.8779 42.1578 35.8779 41.2142 35.8779C41.0773 35.8779 41.0012 35.8475 40.9555 35.6953C40.5294 34.5691 40.0728 33.4276 39.6315 32.3014C39.2662 31.3579 38.9009 30.4295 38.5357 29.4859C38.2161 28.6793 37.8965 27.8727 37.5921 27.0661C37.2268 26.1225 36.8616 25.1789 36.4963 24.2353C36.2985 23.7788 36.1159 23.2918 35.918 22.8047Z" fill="#00112C"/>
<path d="M61.7752 19.2588C61.3338 19.7306 60.9381 20.172 60.5424 20.5981C60.0554 21.1308 59.5836 21.6482 59.1118 22.1809C58.7618 22.5614 58.4118 22.9571 58.0617 23.3376C57.5747 23.8702 57.0877 24.4029 56.6159 24.9356C56.3268 25.2552 56.0528 25.5748 55.7636 25.8944C55.6876 25.9704 55.7028 26.0313 55.7484 26.0922C56.4485 27.0206 57.1486 27.9489 57.8487 28.8925C58.4574 29.7143 59.0662 30.5514 59.6749 31.3732C60.2533 32.1646 60.8468 32.9408 61.4404 33.7322C61.9578 34.417 62.4752 35.1019 62.9927 35.802C63.0079 35.8172 63.0079 35.8628 63.0384 35.9085C62.9775 35.9085 62.947 35.9085 62.9014 35.9085C61.8208 35.9085 60.7403 35.9085 59.6749 35.9085C59.5684 35.9085 59.5075 35.878 59.4467 35.7867C58.6553 34.7214 57.8487 33.6561 57.0573 32.5907C56.2963 31.5863 55.5201 30.5666 54.7592 29.5621C54.4548 29.1512 54.1504 28.7403 53.846 28.3294C53.8156 28.2837 53.77 28.2381 53.7243 28.1772C53.5417 28.3751 53.359 28.5577 53.1916 28.7403C53.0242 28.9229 52.8568 29.1208 52.6894 29.3186C52.6285 29.3947 52.5829 29.5013 52.5829 29.5774C52.5829 31.6015 52.5829 33.6256 52.5829 35.665C52.5829 35.7411 52.5829 35.8172 52.5829 35.8933C51.5936 35.8933 50.6044 35.8933 49.5847 35.8933C49.5847 35.8324 49.5847 35.7563 49.5847 35.6802C49.5847 34.2192 49.5847 32.7581 49.5847 31.2971C49.5847 31.1297 49.6304 30.9927 49.7369 30.871C50.0109 30.5666 50.3 30.2622 50.574 29.9578C51.061 29.41 51.548 28.8621 52.0198 28.3294C52.2633 28.0555 52.522 27.7815 52.7807 27.4924C53.3134 26.8988 53.846 26.3053 54.3787 25.7117C54.6527 25.4073 54.9418 25.103 55.2158 24.7986C55.7028 24.2507 56.1898 23.7028 56.6768 23.1549C56.9203 22.881 57.1638 22.6223 57.4073 22.3483C57.9248 21.77 58.4574 21.1764 58.9749 20.5981C59.2184 20.3242 59.4771 20.0502 59.7206 19.7763C59.7967 19.685 59.8728 19.5937 59.9641 19.5024C60.1011 19.3349 60.238 19.2284 60.4816 19.2436C60.862 19.2741 61.3034 19.2588 61.7752 19.2588Z" fill="#00112C"/>
<path d="M80.5251 19.2586C80.4946 19.3195 80.4794 19.3652 80.449 19.3956C80.1446 19.7304 79.825 20.0652 79.5206 20.4001C79.0032 20.9784 78.4857 21.5567 77.9835 22.1198C77.7248 22.409 77.4508 22.6981 77.1921 22.9873C76.629 23.6113 76.0659 24.2353 75.4876 24.8592C75.1527 25.2245 74.8027 25.5897 74.4527 25.9702C76.9029 29.2575 79.3532 32.5449 81.8187 35.8626C81.7426 35.8626 81.7122 35.8778 81.6665 35.8778C80.6012 35.8778 79.5206 35.8778 78.4553 35.8778C78.3792 35.8778 78.2726 35.8322 78.227 35.7713C77.877 35.3299 77.5421 34.8734 77.2073 34.432C76.7051 33.7624 76.2029 33.0927 75.6854 32.4079C75.1223 31.6469 74.544 30.886 73.9809 30.125C73.5243 29.5163 73.0525 28.8923 72.5807 28.2835C72.5503 28.2379 72.5046 28.1922 72.4742 28.1465C72.1242 28.527 71.7589 28.9075 71.4089 29.3032C71.348 29.3793 71.3175 29.501 71.3175 29.5924C71.3175 31.6013 71.3175 33.6254 71.3175 35.6343C71.3175 35.7104 71.3175 35.7713 71.3175 35.8626C70.3131 35.8626 69.3391 35.8626 68.3194 35.8626C68.3194 35.8017 68.3194 35.7561 68.3194 35.6952C68.3194 34.1885 68.3194 32.6818 68.3194 31.1904C68.3194 31.1143 68.3498 31.0077 68.4107 30.9469C68.9129 30.3837 69.4152 29.8054 69.9326 29.2423C70.1761 28.9684 70.4348 28.6944 70.6936 28.4053C71.2262 27.8117 71.7437 27.2334 72.2763 26.6399C72.5199 26.3659 72.7786 26.092 73.0373 25.8028C73.5547 25.2245 74.0722 24.6462 74.5744 24.0831C74.8179 23.8091 75.0767 23.5352 75.3202 23.2612C75.8376 22.6829 76.3551 22.1046 76.8725 21.5263C77.116 21.2675 77.3443 20.9936 77.5878 20.7349C78.0139 20.2631 78.4248 19.8065 78.851 19.3347C78.8966 19.2891 78.9575 19.2434 79.0184 19.2434C79.5054 19.2586 80.0076 19.2586 80.5251 19.2586Z" fill="#00112C"/>
<path d="M20.9729 19.2588C21.9621 19.2588 22.9362 19.2588 23.9102 19.2588C23.9102 24.7985 23.9102 30.323 23.9102 35.8475C22.9362 35.8475 21.9621 35.8475 20.9729 35.8475C20.9729 30.3383 20.9729 24.8137 20.9729 19.2588Z" fill="#00112C"/>
<path d="M67.9389 44.1266C68.4259 44.1266 68.8825 44.1266 69.3543 44.1266C69.963 44.1266 70.5566 44.1114 71.1653 44.1266C71.835 44.1419 72.459 44.3397 72.9003 44.8876C73.0677 45.1007 73.1743 45.3746 73.2503 45.6333C73.3417 46.0442 73.3417 46.4552 73.2047 46.8508C73.0068 47.3987 72.6111 47.7488 72.0937 47.9771C71.9719 48.0379 71.8502 48.0684 71.7284 48.0988C72.6112 49.2402 73.296 50.5339 74.1483 51.7666C73.9961 51.7666 73.8895 51.7666 73.783 51.7666C73.4025 51.7666 73.0221 51.7514 72.6264 51.7666C72.5046 51.7666 72.4437 51.7209 72.3829 51.6296C71.7284 50.5491 71.0892 49.4685 70.4348 48.3727C70.3587 48.251 70.2826 48.2053 70.1304 48.2053C69.8717 48.2206 69.6282 48.2053 69.3543 48.2053C69.3543 49.3924 69.3543 50.5643 69.3543 51.7362C68.8673 51.7362 68.4107 51.7362 67.9389 51.7362C67.9389 49.2402 67.9389 46.6987 67.9389 44.1266ZM69.3695 44.7202C69.3695 45.7094 69.3695 46.6987 69.3695 47.6727C69.8565 47.6727 70.3435 47.7031 70.8153 47.6575C71.3328 47.6118 71.6676 47.3074 71.8045 46.8204C71.9111 46.4247 71.9111 46.0138 71.835 45.6181C71.7132 44.9637 71.4393 44.7658 70.9827 44.7202C70.45 44.6745 69.9174 44.7202 69.3695 44.7202Z" fill="#00112C"/>
<path d="M80.2207 43.9897C81.0425 44.0354 81.8035 44.218 82.4731 44.6746C83.3102 45.2377 83.7972 46.0443 83.995 47.0336C84.0559 47.3075 84.1015 47.5967 84.1015 47.8858C84.0863 48.8294 83.8885 49.7273 83.2797 50.5035C82.671 51.2797 81.8643 51.7058 80.8903 51.8428C80.2359 51.9341 79.5815 51.9036 78.9575 51.721C78.2727 51.508 77.6791 51.1427 77.2225 50.5644C76.7812 50.0165 76.5072 49.4077 76.4159 48.7229C76.2637 47.5967 76.3855 46.5161 77.0551 45.5573C77.5878 44.7964 78.3031 44.3246 79.201 44.1267C79.5511 44.0658 79.8859 44.0354 80.2207 43.9897ZM77.8617 47.9467C77.8313 48.6316 77.9226 49.3164 78.1966 49.9708C78.4096 50.4731 78.7292 50.8992 79.2315 51.1275C79.688 51.3405 80.175 51.371 80.6773 51.2949C81.3469 51.1884 81.8187 50.8079 82.1383 50.2296C82.5035 49.5599 82.5949 48.8294 82.5949 48.0989C82.5949 47.5814 82.534 47.064 82.4427 46.5618C82.3514 46.0595 82.1535 45.5877 81.7883 45.2073C81.2099 44.6137 80.4794 44.4768 79.7032 44.6289C78.8814 44.7811 78.3792 45.3138 78.1052 46.09C77.9074 46.6835 77.8465 47.2923 77.8617 47.9467Z" fill="#00112C"/>
<path d="M68.1976 27.8727C68.1976 24.9811 68.1976 22.1351 68.1976 19.2739C69.1869 19.2739 70.1761 19.2739 71.1806 19.2739C71.1806 19.3348 71.1806 19.4109 71.1806 19.487C71.1806 21.1154 71.1806 22.7439 71.1806 24.3571C71.1806 24.5245 71.1197 24.6615 71.0132 24.768C70.6022 25.2094 70.1913 25.6507 69.7956 26.1073C69.3086 26.6552 68.8216 27.203 68.3346 27.7509C68.3042 27.7814 68.2585 27.8118 68.1976 27.8727Z" fill="#00112C"/>
<path d="M52.5525 19.2739C52.5525 19.35 52.5525 19.4261 52.5525 19.5022C52.5525 21.0546 52.5372 22.6221 52.5677 24.1745C52.5677 24.4788 52.4611 24.6919 52.2633 24.905C51.7306 25.4681 51.2132 26.0464 50.6957 26.6095C50.3305 27.0052 49.9804 27.4161 49.6152 27.827C49.6152 27.827 49.6 27.827 49.5695 27.8422C49.5695 24.9963 49.5695 22.1351 49.5695 19.2739C50.5435 19.2739 51.5328 19.2739 52.5525 19.2739Z" fill="#00112C"/>
<path d="M96.7638 44.1266C97.0377 44.1266 97.3116 44.1266 97.5704 44.1266C98.3618 44.1266 99.1531 44.1114 99.9445 44.1266C100.645 44.1419 101.284 44.3549 101.771 44.9028C102.075 45.2376 102.227 45.6333 102.258 46.0899C102.288 46.5312 102.258 46.9574 102.045 47.3683C101.74 47.9771 101.208 48.2967 100.569 48.4184C100.082 48.5097 99.5945 48.5097 99.0923 48.5402C98.8031 48.5554 98.5139 48.5402 98.2096 48.5402C98.2096 49.6207 98.2096 50.686 98.2096 51.7818C97.7226 51.7818 97.2508 51.7818 96.7485 51.7818C96.7638 49.2402 96.7638 46.6987 96.7638 44.1266ZM98.2248 47.9314C98.7727 47.9314 99.3206 47.9771 99.8684 47.9162C100.295 47.8705 100.599 47.5966 100.751 47.1857C100.919 46.7139 100.934 46.2269 100.842 45.7551C100.751 45.2376 100.477 44.8267 99.9141 44.7658C99.3662 44.705 98.8031 44.705 98.2248 44.6593C98.2248 45.7703 98.2248 46.8508 98.2248 47.9314Z" fill="#00112C"/>
<path d="M64.2102 45.3289C63.8298 45.0245 63.4645 44.8115 63.0232 44.7049C62.2013 44.5071 61.3947 44.4767 60.6338 44.9028C60.0402 45.2376 59.675 45.7855 59.4467 46.4247C59.2032 47.1095 59.188 47.8248 59.2336 48.5249C59.2793 49.1185 59.4315 49.712 59.7663 50.2295C60.1468 50.8078 60.6642 51.173 61.3491 51.2796C61.9578 51.3709 62.5362 51.2643 63.1297 51.1274C63.1297 50.199 63.1297 49.2706 63.1297 48.3271C63.5863 48.3271 64.0124 48.3271 64.469 48.3271C64.469 48.3879 64.4842 48.4488 64.4842 48.4945C64.4842 49.3467 64.4842 50.199 64.4842 51.0513C64.4842 51.1883 64.4385 51.2491 64.3168 51.31C63.9059 51.5383 63.4645 51.66 62.9927 51.7361C62.6122 51.797 62.2318 51.8122 61.8513 51.8427C61.1208 51.9035 60.4207 51.7666 59.7663 51.4622C58.777 50.9904 58.1378 50.2142 57.8639 49.1641C57.6204 48.2358 57.6204 47.2922 58.0009 46.379C58.5335 45.1158 59.5076 44.4158 60.8164 44.1114C61.3643 43.9744 61.9274 43.9744 62.5057 44.0353C63.0384 44.0962 63.5558 44.2027 64.0276 44.4462C64.1342 44.4919 64.1798 44.5527 64.1798 44.6745C64.195 44.8876 64.2102 45.0854 64.2102 45.3289Z" fill="#00112C"/>
<path d="M87.2214 44.1267C87.7237 44.1267 88.1802 44.1267 88.6825 44.1267C88.6825 44.2028 88.6825 44.2637 88.6825 44.3398C88.6825 46.09 88.6825 47.8402 88.6825 49.6056C88.6825 50.0469 88.8499 50.4731 89.1847 50.7774C89.4739 51.0514 89.8239 51.1731 90.2196 51.2188C90.7218 51.2797 91.2088 51.2492 91.6806 51.0666C92.2437 50.8535 92.5785 50.4274 92.6851 49.8491C92.7459 49.5295 92.7612 49.2099 92.7612 48.8751C92.7612 47.3531 92.7612 45.8465 92.7612 44.3246C92.7612 44.2637 92.7612 44.1876 92.7612 44.1267C92.9742 44.1267 93.1569 44.1267 93.3852 44.1267C93.3852 44.1876 93.3852 44.2485 93.3852 44.3246C93.3852 46.0443 93.4004 47.7641 93.3852 49.499C93.3852 50.0317 93.2025 50.5187 92.8525 50.9296C92.3807 51.4927 91.7567 51.7362 91.0719 51.8275C90.8436 51.858 90.6001 51.9036 90.3718 51.8884C89.8087 51.858 89.2456 51.8428 88.7281 51.584C88.4694 51.4471 88.1955 51.3101 87.9672 51.1123C87.6019 50.7927 87.3736 50.3665 87.2975 49.8947C87.2367 49.5751 87.2214 49.2403 87.2214 48.9055C87.2214 47.3836 87.2214 45.8465 87.2214 44.3246C87.2214 44.2789 87.2214 44.218 87.2214 44.1267Z" fill="#00112C"/>
<path d="M138.205 35.8627C137.779 35.8627 137.368 35.8627 136.942 35.8627C136.942 31.8905 136.942 27.9336 136.942 23.9766C136.957 23.9766 136.973 23.9614 136.973 23.9614C137.125 24.1897 137.262 24.4332 137.414 24.6615C137.657 25.0268 137.901 25.392 138.129 25.7421C138.16 25.7877 138.19 25.8638 138.19 25.9247C138.19 29.1968 138.19 32.4841 138.19 35.7562C138.205 35.7866 138.205 35.8171 138.205 35.8627Z" fill="#00112C"/>
</g>
<defs>
<clipPath id="clip0">
<rect width="160" height="70" fill="white"/>
</clipPath>
</defs>
</svg>
