<svg width="160" height="70" viewBox="0 0 160 70" fill="none" xmlns="http://www.w3.org/2000/svg">
<path d="M116.648 57.7975C116.271 57.5975 115.874 57.4911 115.469 57.4911C115.053 57.4911 114.674 57.5975 114.296 57.7975C113.907 58.0177 113.615 58.3114 113.385 58.7063C113.17 59.0987 113.076 59.5114 113.076 59.9317C113.076 60.3544 113.17 60.7544 113.385 61.1443C113.605 61.5342 113.894 61.838 114.276 62.0456C114.658 62.2658 115.043 62.3671 115.466 62.3671C115.879 62.3671 116.276 62.2633 116.646 62.0456C117.026 61.838 117.334 61.5342 117.527 61.1443C117.742 60.7544 117.846 60.3544 117.846 59.9317C117.846 59.5114 117.742 59.0987 117.527 58.7063C117.322 58.3114 117.023 58.0177 116.648 57.7975ZM117.2 60.9367C117.01 61.2582 116.76 61.5114 116.446 61.6937C116.137 61.8785 115.81 61.9696 115.469 61.9696C115.124 61.9696 114.788 61.8785 114.481 61.6937C114.165 61.5114 113.917 61.2608 113.732 60.9367C113.56 60.6279 113.481 60.2912 113.481 59.9317C113.481 59.5848 113.57 59.238 113.739 58.9139C113.912 58.5874 114.17 58.3367 114.484 58.162C114.8 57.9823 115.127 57.8987 115.464 57.8987C115.798 57.8987 116.122 57.9848 116.441 58.162C116.745 58.3392 116.988 58.5874 117.195 58.9139C117.367 59.238 117.446 59.5848 117.446 59.9317C117.451 60.2912 117.37 60.6279 117.2 60.9367Z" fill="#00112C"/>
<path d="M30 13L39.5848 58.3114L40.3139 57.9342C50.5063 52.5797 60.6861 52.8987 67.4203 54.1139C74.7494 55.4253 79.7114 58.0405 79.7722 58.0582L80.038 58.2076L80.3114 58.076C92.3443 52.7241 102.278 53.0329 108.494 54.2304C115.225 55.5342 119.175 58.1367 119.215 58.1671L119.972 58.6684L120.167 57.7696L130 13H30ZM56.4304 40.6304H42.319V25.7696H47.9367V36.8354H56.4304V40.6304V40.6304ZM65.5089 41.1418C59.7519 41.1418 56.7013 38.1671 56.7013 33.2C56.7013 28.2354 59.8759 25.2684 65.1899 25.2684C70.8582 25.2684 73.676 28.8987 73.676 33.2C73.676 33.5392 73.6506 33.8658 73.6051 34.1114H62.8785C62.8785 36.2253 64.0608 37.519 65.9342 37.519C67.5367 37.519 68.762 37.0658 69.0228 35.7494H73.7038C73.1342 39.1519 70.7443 41.1418 65.5089 41.1418ZM84.1165 40.6557H79.4962L72.1215 25.6405H78.5924L82.5494 34.3114H82.6532L86.6127 25.6405H91.2557L84.1165 40.6557ZM97.719 40.6228H92.0987V25.6101H97.719V40.6228ZM102.909 26.8152L100.962 29.1671H100.159L101.041 26.6051H99.2608V23.1848H102.911V26.8152H102.909ZM110.235 40.9595C105.086 40.9595 103.172 38.6937 103.172 35.9494V35.8633H107.878C107.878 37.162 108.904 37.8203 110.344 37.8203C111.618 37.8203 112.271 37.3975 112.271 36.5899C112.271 34.4506 103.299 36.5013 103.299 30.4506C103.299 27.2127 106.319 25.3165 111.041 25.3165C115.241 25.3165 117.79 27.4 117.79 29.8886H113.481C113.481 29.1722 112.582 28.4532 111.053 28.4532C109.496 28.4532 108.891 29.0025 108.891 29.4886C108.891 31.8481 118.273 29.5342 118.273 35.6911C118.271 38.6557 116.048 40.9595 110.235 40.9595Z" fill="#00112C"/>
<path d="M65.2334 28.4811C63.6435 28.4811 63.084 29.9672 63.084 31.4431H67.3726C67.3726 29.795 66.8334 28.4811 65.2334 28.4811Z" fill="#00112C"/>
<path d="M115.881 60.248C115.833 60.1974 115.762 60.1493 115.66 60.1088C115.881 60.0885 116.071 60.005 116.207 59.8657C116.339 59.724 116.397 59.5518 116.397 59.3645C116.397 59.2328 116.359 59.0986 116.281 58.9771C116.207 58.8683 116.098 58.7771 115.959 58.729C115.82 58.6835 115.602 58.6632 115.316 58.6632H114.42V61.2759H114.833V60.1797H115.076C115.225 60.1746 115.324 60.1974 115.41 60.2632C115.511 60.3442 115.66 60.5467 115.843 60.8632L116.071 61.2759H116.582L116.273 60.7695C116.109 60.5265 115.987 60.3543 115.881 60.248ZM115.329 59.7999H114.83V59.0126H115.311C115.506 59.0126 115.645 59.0278 115.714 59.0581C115.797 59.0986 115.868 59.1392 115.896 59.1923C115.939 59.2607 115.954 59.3316 115.954 59.405C115.954 59.5341 115.914 59.6202 115.828 59.6961C115.741 59.7569 115.579 59.7999 115.329 59.7999Z" fill="#00112C"/>
</svg>
