<?xml version="1.0" encoding="UTF-8"?>
<svg width="160px" height="70px" viewBox="0 0 160 70" version="1.1" xmlns="http://www.w3.org/2000/svg" xmlns:xlink="http://www.w3.org/1999/xlink">
    <!-- Generator: Sketch 49.3 (51167) - http://www.bohemiancoding.com/sketch -->
    <title>superdry-logobar</title>
    <desc>Created with Sketch.</desc>
    <defs>
        <polygon id="path-1" points="0.0330247181 0.0439077568 1.9098034 0.0439077568 1.9098034 6.38140936 0.0330247181 6.38140936"></polygon>
    </defs>
    <g id="superdry-logobar" stroke="none" stroke-width="1" fill="none" fill-rule="evenodd">
        <g id="Page-1" transform="translate(28.000000, 21.000000)">
            <g id="Group-3" transform="translate(45.407547, 0.034359)">
                <mask id="mask-2" fill="white">
                    <use xlink:href="#path-1"></use>
                </mask>
                <g id="Clip-2"></g>
                <path d="M1.22829396,6.37358267 C1.45018075,6.38140936 1.67999208,6.38140936 1.9098034,6.38140936 C1.46602981,5.59091321 1.10942604,4.7299768 1.02225623,3.82208022 C0.86376566,2.50719553 1.23621849,1.18448414 1.9098034,0.0574401118 C1.67999208,0.0574401118 1.44225623,0.0183066387 1.22036943,0.073093501 C0.483388302,1.02795024 -0.0317060377,2.21760783 0.039614717,3.43857219 C0.103010943,4.51082935 0.594331698,5.52047296 1.22829396,6.37358267" id="Fill-1" fill="#00112C" mask="url(#mask-2)"></path>
            </g>
            <path d="M73.2701887,5.07740377 C73.1196226,5.54700545 72.8818868,5.97747365 72.6679245,6.41576855 L73.3732075,6.41576855 C74.0230189,5.50787198 74.5381132,4.44344151 74.5777358,3.30857079 C74.5777358,2.1345666 74.054717,1.03100266 73.3811321,0.0839726066 C73.1354717,0.0839726066 72.8977358,0.0839726066 72.66,0.0917993012 C72.794717,0.357906918 72.9373585,0.616187841 73.0641509,0.890122152 C73.6584906,2.19718015 73.7377358,3.7233856 73.2701887,5.07740377" id="Fill-4" fill="#00112C"></path>
            <path d="M18.6860536,2.55719245 C18.796997,2.56501915 18.9158649,2.56501915 19.0268083,2.55719245 L19.0268083,4.01295765 L18.6860536,4.01295765 C18.6781291,3.52770259 18.6860536,3.04244752 18.6860536,2.55719245 M15.9679404,4.16949154 C16.0709592,4.39646569 16.1898272,4.60778644 16.3166196,4.8191072 C16.5781291,4.39646569 16.7920913,3.9425174 16.9347328,3.45726233 C16.9188838,4.46690594 16.9505819,5.46872285 16.9188838,6.47836646 C17.1407706,6.47053976 17.3705819,6.47053976 17.6003932,6.47053976 C17.552846,5.35132243 17.5686951,4.22427841 17.5924687,3.09723438 C17.7271857,3.27724836 17.7985064,3.48856911 17.9094498,3.68423648 C17.9966196,3.52770259 18.0679404,3.37116869 18.1471857,3.2146348 C18.1630347,3.67640978 18.1551102,4.13035807 18.1551102,4.59213305 C18.6226574,4.59213305 19.0981291,4.60778644 19.5656762,4.58430636 C19.5498272,3.77815681 19.5656762,2.97200727 19.5577517,2.17368442 C19.6845442,2.17368442 19.8113366,2.17368442 19.9460536,2.16585772 C19.9460536,2.76068651 19.8826574,3.34768861 19.8668083,3.9425174 C19.8430347,4.2321051 19.8747328,4.56865297 19.636997,4.78780042 C19.4071857,4.86606737 19.1615253,4.80345381 18.9237894,4.79562711 C18.9634121,5.02260126 19.0109592,5.2495754 19.08228,5.46872285 C19.3992611,5.44524277 19.7162423,5.45306946 20.0252989,5.3982826 C20.3185064,5.17913515 20.3819026,4.8112805 20.4373743,4.47473263 C20.5562423,3.5120492 20.5562423,2.54153906 20.6196385,1.57102893 L19.9539781,1.57102893 C20.0173743,1.39884165 20.0966196,1.24230776 20.1758649,1.07794717 C20.9207706,1.07794717 21.6656762,1.04664039 22.4026574,1.10142725 C22.4105819,0.87445311 22.4105819,0.647478966 22.4105819,0.420504822 C20.9366196,0.397024738 19.4547328,0.428331516 17.9807706,0.404851433 L17.9807706,1.07794717 C18.4641668,1.06229378 18.947563,1.07794717 19.4309592,1.07012048 C19.2962423,1.37536157 19.1298272,1.66494927 18.9951102,1.97019036 C18.7177517,1.97801705 18.4324687,1.98584375 18.1551102,1.97801705 C18.1551102,2.33021831 18.1630347,2.67459287 18.1471857,3.02679413 C17.8698272,2.74503312 17.7113366,2.38500517 17.5845442,2.01715052 L17.972846,2.01715052 C17.972846,1.80582977 17.972846,1.58668232 17.9807706,1.36753487 C17.8460536,1.36753487 17.7113366,1.37536157 17.5766196,1.37536157 C17.5766196,0.960546751 17.5607706,0.55355863 17.6003932,0.14657051 L16.8634121,0.14657051 C16.9030347,0.537905241 16.8871857,0.937066667 16.8871857,1.33622809 L16.1581291,1.33622809 L16.1581291,2.07976408 C16.3879404,2.0484573 16.6177517,2.02497722 16.847563,2.03280391 C16.7683177,2.42413864 16.6494498,2.79981999 16.5068083,3.17550133 C16.3483177,3.5120492 16.14228,3.83294368 15.9679404,4.16949154" id="Fill-6" fill="#00112C"></path>
            <path d="M24.6532075,1.31275584 C24.9781132,1.30492914 25.3030189,1.30492914 25.6279245,1.31275584 L25.6279245,1.78235751 C25.3030189,1.79018421 24.9781132,1.79018421 24.6532075,1.78235751 L24.6532075,1.31275584 Z M26.3332075,2.40066639 C26.7849057,2.40066639 27.2286792,2.40849308 27.6724528,2.40066639 C27.6803774,2.55720028 27.6962264,2.72156087 27.6883019,2.87809476 C27.2366038,2.88592145 26.7769811,2.89374815 26.325283,2.87026806 C26.3332075,2.71373417 26.3332075,2.55720028 26.3332075,2.40066639 Z M26.3411321,1.30492914 C26.7849057,1.31275584 27.2286792,1.31275584 27.6724528,1.30492914 C27.6883019,1.46146303 27.6962264,1.62582362 27.6883019,1.78235751 C27.2366038,1.79018421 26.7769811,1.7980109 26.325283,1.77453082 C26.3332075,1.61799693 26.3332075,1.46146303 26.3411321,1.30492914 Z M24.2411321,5.49221076 C24.5501887,4.49039385 24.6056604,3.44161677 24.6135849,2.40849308 C24.9464151,2.40066639 25.2871698,2.40066639 25.6279245,2.40849308 C25.6358491,2.76069434 25.6279245,3.1128956 25.5962264,3.46509686 L28.4173585,3.46509686 C28.409434,3.1128956 28.4173585,2.76069434 28.409434,2.40066639 C28.8373585,2.40849308 29.2732075,2.385013 29.7011321,2.42414647 L29.7011321,1.76670412 C29.2732075,1.8058376 28.8373585,1.78235751 28.409434,1.79018421 L28.409434,1.30492914 L29.6773585,1.30492914 L29.6773585,0.655313487 C28.8373585,0.686620266 27.9815094,0.678793571 27.1415094,0.655313487 C27.1415094,0.483126205 27.149434,0.310938924 27.149434,0.146578337 L26.3411321,0.146578337 C26.3411321,0.310938924 26.3411321,0.483126205 26.3490566,0.647486792 C25.5249057,0.702273655 24.6928302,0.663140182 23.8686792,0.670966876 C23.9162264,1.75887743 23.8766038,2.85461468 23.7656604,3.94252523 C23.6784906,4.58431419 23.6309434,5.25740992 23.2822642,5.82093194 C23.4566038,6.04790608 23.6467925,6.25140014 23.8449057,6.4548942 C23.9716981,6.13399972 24.1222642,5.82093194 24.2411321,5.49221076 Z" id="Fill-8" fill="#00112C"></path>
            <path d="M32.7996068,2.4632956 L32.7996068,2.83115024 C32.3716823,2.83897694 31.9437577,2.84680363 31.5158332,2.83115024 L31.5158332,2.47112229 C31.9437577,2.4554689 32.3716823,2.4632956 32.7996068,2.4632956 Z M32.7996068,3.7625269 C32.3716823,3.7625269 31.9437577,3.7703536 31.5158332,3.75470021 L31.5158332,3.39467226 C31.9437577,3.37901887 32.3716823,3.38684556 32.7996068,3.39467226 L32.7996068,3.7625269 Z M31.8328143,1.46147869 L31.8328143,1.89194689 C31.4920596,1.89977358 31.1592294,1.89977358 30.8184747,1.89977358 C30.8422483,2.71374983 30.8422483,3.52772607 30.8184747,4.34170231 L31.8328143,4.34170231 C31.8248898,4.51388959 31.8248898,4.67825017 31.8328143,4.84261076 C31.4286634,4.83478407 31.032437,4.85826415 30.6362106,4.81913068 C30.628286,5.04610482 30.612437,5.27307897 30.6203615,5.5078798 C31.0245125,5.44526625 31.4286634,5.45309294 31.8328143,5.45309294 C31.8248898,5.8052942 31.8486634,6.14966876 31.7931917,6.49404333 L32.5460219,6.49404333 C32.443003,6.15749546 32.4747011,5.8052942 32.4747011,5.46091964 C32.8550785,5.45309294 33.2354558,5.43743955 33.6079087,5.5078798 L33.6079087,4.82695737 C33.2513049,4.85043746 32.8867766,4.83478407 32.5301728,4.84261076 C32.5380974,4.67825017 32.5301728,4.52171628 32.5301728,4.3573557 C32.8392294,4.36518239 33.148286,4.3573557 33.4494181,4.36518239 L33.4494181,2.43981551 C33.568286,2.54156254 33.6792294,2.65113627 33.7901728,2.7528833 C33.8614936,2.70592313 33.9248898,2.65113627 33.9962106,2.6041761 C33.988286,2.7528833 33.988286,2.9015905 33.988286,3.05029769 C34.4954558,3.00333753 35.0105502,3.0346443 35.5256445,3.02681761 C35.0818709,3.6216464 34.408286,4.03646122 34.0913049,4.71738365 C33.9090408,5.10089168 33.6792294,5.54701328 33.8535691,5.96965479 C34.107154,6.33750943 34.6301728,6.31402935 35.0343238,6.31402935 C35.5414936,6.29054927 36.0962106,6.41577638 36.5558332,6.13401537 C36.912437,5.82877428 36.928286,5.30438574 36.9837577,4.87391754 C36.8014936,4.69390356 36.492437,4.67825017 36.2547011,4.56084976 C36.2705502,4.88957093 36.3022483,5.26525227 36.0962106,5.53135989 C35.8188521,5.68006709 35.4939464,5.63310692 35.1848898,5.64093361 C34.963003,5.64093361 34.6697955,5.64876031 34.5588521,5.41395947 C34.6143238,5.26525227 34.6460219,5.10871838 34.7411162,4.97566457 C35.2799842,4.18516841 35.9614936,3.49641929 36.6747011,2.84680363 C36.5399842,2.69026974 36.4211162,2.51808246 36.2784747,2.36937526 C36.1675313,2.30676171 36.0328143,2.34589518 35.9060219,2.33024179 C35.3354558,2.34589518 34.7569653,2.32241509 34.1784747,2.34589518 C34.3369653,2.14240112 34.4716823,1.92325367 34.5984747,1.69627952 C35.3750785,1.70410622 36.1596068,1.68062614 36.9362106,1.71975961 L36.9362106,1.0075304 C36.2626257,1.03883718 35.5890408,1.0075304 34.9075313,1.03101048 C34.9867766,0.780556254 35.0501728,0.530102027 35.1214936,0.287474493 C34.8679087,0.24834102 34.6063992,0.217034242 34.3528143,0.177900769 C34.1863992,0.843169811 33.9328143,1.51626555 33.5048898,2.05630748 C33.4811162,2.0250007 33.4494181,1.94673375 33.4256445,1.90760028 C33.1165879,1.8841202 32.8075313,1.90760028 32.4984747,1.89194689 C32.4984747,1.75106639 32.5063992,1.60235919 32.5063992,1.46147869 C32.8867766,1.47713208 33.2750785,1.4458253 33.6554558,1.47713208 C33.6554558,1.26581132 33.6713049,1.04666387 33.6633804,0.835343117 C33.2750785,0.858823201 32.8867766,0.850996506 32.4984747,0.843169811 C32.4984747,0.624022362 32.5063992,0.397048218 32.5301728,0.177900769 L31.7852672,0.177900769 C31.8248898,0.389221523 31.8328143,0.608368973 31.8328143,0.827516422 C31.4207389,0.827516422 31.0086634,0.843169811 30.5965879,0.811863033 L30.5965879,1.46147869 C31.0086634,1.46147869 31.4207389,1.46930538 31.8328143,1.46147869 Z" id="Fill-10" fill="#00112C"></path>
            <path d="M54.3860536,5.42177051 C54.8694498,4.34951335 55.4320913,3.29290957 55.7411479,2.15021216 C56.2006913,2.0954253 56.6683177,2.05629182 57.1200158,1.97802488 C57.1200158,1.71974396 57.0962423,1.45363634 57.0962423,1.19535542 C56.731714,1.26579567 56.3591819,1.32840922 55.9868083,1.37536939 C56.0581291,1.01534144 56.1532234,0.663140182 56.2483177,0.303112229 C55.9392611,0.279632145 55.6381291,0.240498672 55.3289932,0.217018588 C55.3289932,0.624006709 55.1785064,1.00751474 55.1151102,1.40667617 C54.6792611,1.42232956 54.2354875,1.41450287 53.7996385,1.40667617 L53.7996385,2.16586555 C54.1720913,2.16586555 54.5365404,2.17369224 54.9090725,2.16586555 C54.6237894,3.15202907 54.1483177,4.07557904 53.585597,4.94434214 C53.8471857,5.10870273 54.1166196,5.25740992 54.3860536,5.42177051" id="Fill-12" fill="#00112C"></path>
            <path d="M41.5403853,3.98166653 C40.9698192,3.96601314 40.3992532,3.99731992 39.8366117,3.96601314 C39.8366117,4.1695072 39.8366117,4.37300126 39.8286872,4.57649532 C39.6384985,4.38865465 39.4720834,4.1695072 39.3452909,3.93470636 C39.3452909,3.51989154 39.3769891,3.11290342 39.4166117,2.7059153 C39.5354796,2.50242124 39.7415174,2.37719413 39.9000079,2.21283354 C39.9237815,2.69026191 39.9079325,3.15986359 39.915857,3.63729196 L41.5562343,3.63729196 C41.5562343,3.75469238 41.5483098,3.86426611 41.5403853,3.98166653 M40.5101966,2.65112844 C40.7320834,2.65895514 40.9539702,2.65895514 41.1837815,2.65112844 C41.175857,2.81548903 41.175857,2.97202292 41.1837815,3.13638351 L40.5022721,3.13638351 C40.5022721,2.97202292 40.5101966,2.81548903 40.5101966,2.65112844 M42.6101966,2.68243522 C42.8479325,2.64330175 43.1015174,2.65112844 43.3471777,2.65895514 C43.426423,2.79983564 43.3630268,2.97984962 43.3868004,3.12855681 C43.1252909,3.13638351 42.871706,3.13638351 42.6101966,3.12855681 C42.6181211,2.97984962 42.6181211,2.83114242 42.6101966,2.68243522 M42.6260457,4.5999754 C43.1173664,4.59214871 43.6086872,4.5999754 44.1000079,4.59214871 L44.1000079,3.98166653 C43.4898192,3.97383983 42.8796306,3.98166653 42.2694419,3.98166653 C42.2852909,3.84861272 42.2852909,3.7233856 42.2852909,3.59815849 C42.855857,3.59815849 43.4343475,3.60598519 44.0049136,3.5903318 L44.0049136,2.17370007 C43.3551023,2.18152676 42.7052909,2.18152676 42.0554796,2.17370007 C42.0554796,2.62764836 42.0475551,3.07376995 42.0554796,3.51989154 C41.9524608,3.52771824 41.8494419,3.52771824 41.7543475,3.53554493 C41.7384985,3.08159665 41.746423,2.62764836 41.746423,2.17370007 C41.1600079,2.16587338 40.5735928,2.22066024 40.0030268,2.14239329 C40.066423,2.01716618 40.1456683,1.90759245 40.2328381,1.79801873 C40.0981211,1.64148484 39.9792532,1.47712425 39.8366117,1.33624375 C39.7573664,1.53973781 39.630574,1.73540517 39.4562343,1.88411237 C39.4483098,1.35189713 39.4245362,0.819681901 39.4800079,0.287466667 C39.226423,0.279639972 38.9807626,0.279639972 38.7271777,0.279639972 C38.7826494,1.13274969 38.7351023,1.99368609 38.7192532,2.84679581 C38.6875551,3.4337979 38.671706,4.03645339 38.4735928,4.6078021 C38.3388758,5.07740377 38.0377438,5.4765652 37.7603853,5.87572662 C37.9268004,6.0635673 38.0932155,6.23575458 38.2675551,6.42359525 C38.671706,5.93051349 38.9728381,5.35133809 39.1234042,4.72520252 C39.3056683,4.99131013 39.5275551,5.24176436 39.7732155,5.45308512 C39.8920834,5.26524444 40.0109513,5.06175038 40.1298192,4.86608302 C40.066423,4.79564277 40.0030268,4.71737582 39.931706,4.63910887 C40.351706,4.55301523 40.7796306,4.61562879 41.2075551,4.59214871 C40.7796306,5.13219064 40.1773664,5.50787198 39.5434042,5.7661529 C39.6147249,5.96964696 39.7494419,6.14183424 39.8683098,6.32184822 C40.1932155,6.13400755 40.5260457,5.96182027 40.8351023,5.75049951 C41.0886872,5.53917876 41.3184985,5.30437792 41.5483098,5.06175038 C41.5641589,5.55483215 41.5641589,6.04008721 41.5483098,6.53316897 L42.2694419,6.53316897 C42.2535928,6.03226052 42.2694419,5.52352537 42.2615174,5.01479022 C42.72114,5.54700545 43.3075551,5.94616688 43.9098192,6.29836813 C44.0366117,6.07922068 44.1713287,5.85224654 44.2981211,5.63309909 C43.7037815,5.36699147 43.0460457,5.11653725 42.6260457,4.5999754" id="Fill-14" fill="#00112C"></path>
            <path d="M63.6973743,2.22849476 C63.9034121,2.67461635 64.172846,3.08160447 64.4502045,3.48859259 C63.5943555,3.44163242 62.6830347,3.10508456 61.8667291,3.51207268 C61.4705026,3.66860657 61.1852989,4.00515444 60.9871857,4.36518239 C60.7732234,4.94435779 61.0030347,5.68789378 61.5893706,5.96182809 C61.9539781,6.14184207 62.3502045,6.30620266 62.7702045,6.28272257 C63.5864309,6.32185604 64.4185064,6.29837596 65.2030347,6.04009504 C65.2981291,5.99313487 65.4407706,6.00096157 65.5120121,5.89921454 C65.4962423,5.61745353 65.4327668,5.34351922 65.3931442,5.06175821 C64.8860536,5.32003913 64.307563,5.3669993 63.752846,5.46874633 C63.3407706,5.52353319 62.912846,5.5078798 62.5006913,5.42961286 C62.1996385,5.35917261 61.8271064,5.2261188 61.771714,4.87391754 C61.7478611,4.54519637 62.0173743,4.29474214 62.2947328,4.16951502 C62.8336008,3.98167435 63.4041668,4.02080783 63.9667291,4.09124808 C64.3313366,4.09907477 64.6958649,4.22430189 64.9732234,4.46692942 C65.2346536,4.34170231 65.4962423,4.23995528 65.7497479,4.11472816 C65.2742762,3.4729392 64.8702045,2.79201677 64.5136008,2.08761426 C65.0365404,2.0250007 65.5596385,1.90760028 66.0747328,1.80585325 C66.0351102,1.52409224 65.9954875,1.24233124 65.9558649,0.960570231 C65.4090725,1.14058421 64.8464309,1.28146471 64.2837102,1.37538505 L64.2203932,1.34407827 C64.0619026,0.999703704 63.9747328,0.624022362 63.8241668,0.271821104 C63.5388838,0.310954577 63.2535215,0.342261356 62.9683177,0.389221523 C63.0871857,0.764902865 63.2377517,1.11710412 63.3645442,1.48495877 C62.5006913,1.55539902 61.636997,1.5867058 60.7732234,1.57105241 C60.7969177,1.83716003 60.8286951,2.09544095 60.8365404,2.36154857 C61.7954875,2.4554689 62.7384272,2.25197484 63.6973743,2.22849476" id="Fill-16" fill="#00112C"></path>
            <path d="M41.1520913,0.968389099 C41.6671857,0.960562404 42.1743555,0.952735709 42.6894498,0.968389099 L42.6894498,1.406684 C42.1743555,1.41451069 41.6671857,1.41451069 41.1520913,1.41451069 L41.1520913,0.968389099 Z M40.4785064,1.93889923 C41.4532234,1.92324584 42.4200158,1.93889923 43.3868083,1.93107254 C43.3868083,1.42233739 43.3947328,0.905775542 43.3868083,0.397040391 L40.4547328,0.397040391 C40.50228,0.913602236 40.4864309,1.42233739 40.4785064,1.93889923 Z" id="Fill-18" fill="#00112C"></path>
            <path d="M48.8547091,5.93834018 C49.2984826,6.28271474 49.8769732,6.27488805 50.4158411,6.28271474 C51.224143,6.21227449 52.048294,5.82093976 52.4762185,5.10871055 C52.769426,4.66258896 52.9120675,4.13820042 53.1022562,3.64511866 C52.8248977,3.46510468 52.5475392,3.27726401 52.2701808,3.08942334 C52.1116902,3.84078602 51.8581053,4.64693557 51.2399921,5.14784403 C50.788294,5.42177834 50.2177279,5.44525842 49.7026336,5.40612495 C49.4965958,5.29655122 49.2509355,5.16349741 49.1875392,4.92086988 C49.0607468,4.52170846 49.0765958,4.10689364 49.0765958,3.69990552 C49.1162185,3.17551698 49.0686713,2.65112844 49.1162185,2.1345666 C49.1637657,1.56321789 49.1320675,0.984042488 49.2271619,0.412693781 L48.2603694,0.412693781 C48.2365958,1.74323187 48.1811242,3.07376995 48.1890487,4.41213473 C48.2128223,4.96783005 48.3554638,5.60179231 48.8547091,5.93834018" id="Fill-20" fill="#00112C"></path>
            <path d="M68.2936008,5.84440419 C68.5788838,6.01659147 68.9988045,6.04007156 69.2445442,5.78961733 C69.6962423,5.32001565 69.9419026,4.70170678 70.1162423,4.0833979 C69.8943555,3.87207715 69.6723894,3.6529297 69.4346536,3.45726233 C69.276163,3.96599748 69.2207706,4.53734619 68.8483177,4.94433431 C68.6185064,5.09304151 68.4837102,4.78780042 68.4044649,4.63126653 C68.1430347,3.93469071 68.071714,3.18332802 68.0320913,2.44761873 C67.9924687,1.92323019 68.0874838,1.40666834 68.0478611,0.882279804 L67.1286951,0.882279804 C67.1207706,2.15803103 67.1524687,3.46508903 67.5327668,4.69388008 C67.6834121,5.12434829 67.8577517,5.61743005 68.2936008,5.84440419" id="Fill-22" fill="#00112C"></path>
            <path d="M59.869843,2.03282739 C59.2516506,1.64149266 58.5702204,1.35190496 57.8887109,1.10145073 C57.753994,1.32059818 57.6113525,1.53974563 57.4766355,1.76671978 C58.1976883,1.97804053 58.8475789,2.36937526 59.5052355,2.71374983 C59.6241034,2.48677568 59.7509751,2.25980154 59.869843,2.03282739" id="Fill-24" fill="#00112C"></path>
            <path d="M71.3604091,5.26523662 C71.6139147,5.16348959 71.8596543,5.06174256 72.1132392,4.97564892 C72.0022958,3.67641761 71.4872015,2.43979986 70.7818392,1.34406261 C70.7264468,1.28144906 70.6629713,1.14056855 70.5599525,1.21100881 C70.3459902,1.31275584 70.147877,1.42232956 69.9419185,1.52407659 C70.1321072,1.83714437 70.3618392,2.11890538 70.5441034,2.43979986 C71.0275789,3.30073627 71.3287109,4.2712464 71.3604091,5.26523662" id="Fill-26" fill="#00112C"></path>
            <path d="M38.5528223,1.64928805 C38.3626336,1.63363466 38.1803694,1.61015458 37.9901808,1.58667449 C37.9743317,2.19715667 37.9347091,2.80763885 37.7762185,3.39464095 C37.9664072,3.48073459 38.1565958,3.58248162 38.3626336,3.65292187 C38.5211242,2.99547952 38.5845204,2.32238379 38.5528223,1.64928805" id="Fill-28" fill="#00112C"></path>
            <path d="M21.4358411,3.33986191 C21.3090487,3.03462082 21.2060298,2.71372635 21.0950864,2.40065856 C21.2852751,2.40065856 21.4754638,2.40848526 21.6656525,2.40848526 C21.5864072,2.71372635 21.6101808,3.05810091 21.4358411,3.33986191 M21.8162185,4.02078435 C22.0777279,3.42595556 22.228294,2.79199329 22.3392374,2.15020433 C22.2916902,2.00149713 22.1648977,1.89192341 22.0856525,1.7588696 C21.6418789,1.7666963 21.1981053,1.78234969 20.7543317,1.75104291 C20.7464072,1.96236366 20.7543317,2.18151111 20.7701808,2.40065856 C20.8731996,2.38500517 20.9762185,2.40848526 21.0713128,2.45544542 C21.0554638,2.64328609 20.7939543,2.66676618 20.6671619,2.7763399 C20.7305581,3.23028819 21.0079166,3.63727631 21.1030109,4.07557121 C20.9207468,4.34950552 20.7147091,4.61561314 20.4611242,4.8191072 C20.5720675,4.99912117 20.6830109,5.17913515 20.8018789,5.35914913 C21.0633883,5.14782837 21.253577,4.87389406 21.4754638,4.62343983 C21.6973506,4.88954745 21.9271619,5.14000168 22.1965958,5.35914913 C22.3154638,5.16348176 22.4264072,4.97564109 22.5452751,4.77997372 C22.2837657,4.54517289 22.0222562,4.31037205 21.8162185,4.02078435" id="Fill-30" fill="#00112C"></path>
            <path d="M13.8679166,12.4814647 C12.568294,11.5109546 10.9516902,11.1744067 9.4143317,10.7595919 C8.36829396,10.4700042 7.29848264,10.2586834 6.23659585,9.98474913 C5.78489774,9.85952201 5.30942604,9.75777498 4.90527509,9.50732075 C4.58036943,9.31948008 4.27131283,9.03771908 4.18414302,8.66203774 C4.00187887,7.93415514 4.09697321,7.04973864 4.6833883,6.51752341 C5.19055811,5.98530818 5.95131283,5.81312089 6.66452038,5.75050734 C7.55206755,5.71920056 8.47131283,5.69572048 9.31131283,6.01661495 C9.95319962,6.22793571 10.484143,6.69753739 10.8090487,7.27671279 C11.0230109,7.65239413 11.1022562,8.09068903 11.1656525,8.51333054 C12.4177279,8.49767715 13.6777279,8.51333054 14.9298034,8.50550384 C14.8664072,7.62108735 14.7079166,6.72884416 14.3275392,5.92269462 C13.8837657,4.92087771 13.0754638,4.09907477 12.1245204,3.55120615 C10.7852751,2.73722991 9.16074679,2.52590915 7.61546377,2.54938924 C6.37923736,2.52590915 5.12716189,2.66678966 3.9543317,3.05029769 C2.86867132,3.46511251 1.81470906,4.09907477 1.17282226,5.08523829 C0.340746792,6.29837596 0.16640717,7.83240811 0.356595849,9.25686653 C0.515086415,10.4152173 1.0698034,11.5500881 2.02074679,12.2779706 C2.67848264,12.7475723 3.41546377,13.115427 4.2079166,13.318921 C5.15886,13.6476422 6.15735057,13.8040978 7.13206755,14.0388987 C8.08301094,14.2736995 9.04187887,14.4459651 9.96112415,14.7746862 C10.5713128,14.978102 11.2052751,15.3069015 11.5222562,15.8860769 C11.9422562,16.7782418 11.7124449,17.9992844 10.8645204,18.5706331 C10.0958411,19.0793683 9.15282226,19.2124221 8.24942604,19.1811153 C7.10829396,19.2124221 5.8879166,19.0011013 4.97659585,18.2810454 C4.32678453,17.7488302 3.99395434,16.9347757 3.88301094,16.1287044 C2.59131283,16.1208777 1.29961472,16.1287044 -7.9245283e-06,16.1287044 C0.0554637736,16.7626667 0.134709057,17.4043774 0.324897736,18.0149378 C0.681501509,19.290689 1.51357698,20.4176548 2.63093547,21.1456157 C3.91470906,21.9829937 5.45206755,22.36658 6.97357698,22.468327 C8.41584113,22.5308623 9.8898034,22.4761537 11.2765958,22.0378588 C12.4177279,21.6778309 13.5271619,21.0829238 14.2879166,20.1437205 C15.3815015,18.8523159 15.7064072,17.0757345 15.524143,15.4321286 C15.389426,14.2816045 14.8109355,13.1780405 13.8679166,12.4814647" id="Fill-32" fill="#00112C"></path>
            <path d="M57.1912891,5.61743788 C56.906006,5.61743788 56.5811796,5.68787813 56.3195909,5.53917093 C56.0184589,5.32785017 56.2087268,4.82694172 56.5335532,4.74867477 C56.8663834,4.67040783 57.2151419,4.73302138 57.5399683,4.81128833 C57.5955192,5.10087603 57.5241192,5.52351754 57.1912891,5.61743788 M59.8302362,5.21044976 C59.5132551,4.93651544 59.1882702,4.67040783 58.8000475,4.49039385 C58.641557,4.36516674 58.3403457,4.34168665 58.3483494,4.09123242 C58.3324211,3.58249727 58.2691042,3.06593543 58.3879721,2.56502697 C58.1264626,2.60416045 57.8094815,2.50241342 57.5717457,2.61981384 C57.4766513,3.1050689 57.5399683,3.59815066 57.5241192,4.08340573 C56.9456287,4.04427226 56.2879721,3.95035192 55.7965721,4.33385996 C55.1863834,4.75650147 55.2497796,5.83658532 55.9233645,6.1653065 C56.470157,6.47837428 57.1516664,6.43141412 57.7380815,6.24357345 C58.1818551,6.04790608 58.3483494,5.55482432 58.3641985,5.10870273 C58.7682702,5.34350356 59.124874,5.65657135 59.4577834,5.97746583 C59.5925004,5.7270116 59.7192136,5.46873068 59.8302362,5.21044976" id="Fill-35" fill="#00112C"></path>
            <path d="M76.4162423,16.379143 C76.2736008,17.146159 76.0120121,17.9210018 75.4415253,18.4845238 C74.9343555,19.0010857 74.1973743,19.27502 73.4683177,19.2437132 C72.6440875,19.2828467 71.7962423,18.9541255 71.2732234,18.3123365 C70.4966196,17.4200934 70.32228,16.1834756 70.2985064,15.0486049 C70.2747328,13.8824274 70.456997,12.6066762 71.2494498,11.6831262 C71.6615253,11.2056978 72.2320913,10.8613233 72.8660536,10.7830563 C73.7219026,10.6734826 74.656997,10.8378432 75.3147328,11.4248453 C75.8852989,11.9414071 76.2339781,12.661463 76.3924687,13.404999 C76.5985064,14.3833358 76.5826574,15.4008061 76.4162423,16.379143 M76.5430347,3.04245535 C76.5351102,5.25740992 76.5430347,7.4723645 76.5430347,9.67949238 C76.4162423,9.53861188 76.2973743,9.38990468 76.1785064,9.24902418 C75.4415253,8.3411276 74.3478611,7.73064542 73.1751102,7.59759161 C72.3351102,7.51932467 71.4554083,7.52715136 70.6471857,7.79325898 C70.1874838,7.92631279 69.7754875,8.16894032 69.3713366,8.41939455 C68.1826574,9.2255441 67.4377517,10.5247754 66.9860536,11.8474868 C66.5343555,13.3423855 66.3837102,14.9312045 66.6056762,16.48089 C66.7166196,17.3339997 66.9226574,18.1792827 67.2871857,18.9619522 C67.8497479,20.2611835 68.840314,21.427361 70.1874838,21.9674029 C71.1226574,22.4291779 72.2003932,22.4996182 73.2226574,22.3743911 C74.3003932,22.2256839 75.3068083,21.6699885 76.0041668,20.8403589 C76.2260536,20.6212115 76.3686158,20.3237971 76.5985064,20.120303 C76.6063517,20.7307852 76.5985064,21.3412674 76.6063517,21.9517495 L80.2041668,21.9517495 C80.2120121,15.6512604 80.2041668,9.34294451 80.2041668,3.04245535 C78.9837102,3.04245535 77.7634121,3.03462865 76.5430347,3.04245535" id="Fill-37" fill="#00112C"></path>
            <path d="M26.2222483,4.43559916 C26.7848898,4.43559916 27.3396068,4.44342586 27.8943238,4.43559916 C27.6169653,4.67822669 27.3475313,4.93650762 27.0226257,5.12434829 C26.7294181,4.93650762 26.412437,4.74084025 26.2222483,4.43559916 M28.2984747,4.95216101 C28.5520596,4.74866695 28.7343238,4.47473263 28.9562106,4.2399318 C28.8373426,4.11470468 28.7263992,3.98165087 28.6075313,3.85642376 C28.2192294,3.89555723 27.823003,3.87207715 27.4267766,3.87990384 C26.5788521,3.86425045 25.7309275,3.91903732 24.8909275,3.84859706 L24.8909275,4.45907925 L25.3663992,4.45907925 C25.6516823,4.80345381 25.9448898,5.14000168 26.2856445,5.43741607 C25.6833804,5.695697 25.01772,5.75831055 24.3599842,5.78179064 C24.447154,6.01659147 24.5263992,6.25921901 24.6056445,6.49401985 C25.4139464,6.36879273 26.2222483,6.18877876 26.9592294,5.82092411 C27.7279087,6.23573892 28.6154558,6.32965926 29.4633804,6.50184654 C29.5584747,6.25139231 29.6535691,5.99311139 29.7407389,5.73483047 C29.0433804,5.74265716 28.3380974,5.66439022 27.688286,5.42176268 C27.8626257,5.23392201 28.1003615,5.11652159 28.2984747,4.95216101" id="Fill-39" fill="#00112C"></path>
            <path d="M17.8381132,5.57046988 L17.8381132,6.2670457 C18.2026415,6.18877876 18.5750943,6.22791223 18.9475472,6.22008553 C20.1203774,6.22791223 21.2932075,6.20443215 22.4660377,6.23573892 L22.4660377,5.56264319 C20.9207547,5.59394997 19.3833962,5.57829658 17.8381132,5.57046988" id="Fill-43" fill="#00112C"></path>
            <path d="M39.2739623,17.600076 C38.8301887,18.5940662 37.7286792,19.2828154 36.6192453,19.1967217 C35.6683019,19.2515869 34.7411321,18.7428517 34.2339623,17.9601823 C33.6079245,16.9818454 33.5128302,15.7843611 33.5445283,14.6572389 C33.5920755,13.6397686 33.7664151,12.5831648 34.3766038,11.73796 C34.7569811,11.2526267 35.3196226,10.9004254 35.9377358,10.7908517 C36.7539623,10.6656246 37.6573585,10.7282382 38.354717,11.2213199 C39.1392453,11.7848419 39.4958491,12.7475254 39.6543396,13.6555002 C39.8683019,14.9703066 39.8207547,16.3713632 39.2739623,17.600076 M41.8415094,9.4994471 C40.9935849,8.45074829 39.7177358,7.7072123 38.354717,7.58198519 C37.2611321,7.49581328 36.0803774,7.57408022 35.145283,8.1923891 C34.4558491,8.59937722 33.9407547,9.22551279 33.449434,9.84382166 C33.4415094,9.23341775 33.449434,8.61503061 33.449434,8.00454843 L29.8675472,8.00454843 C29.8675472,14.5164366 29.8596226,21.035995 29.8754717,27.5478832 L33.5366038,27.5478832 C33.5603774,25.1058762 33.5366038,22.656199 33.5445283,20.214192 C33.7901887,20.6055268 34.0833962,20.9655547 34.4320755,21.2786225 C35.3196226,22.1239838 36.5954717,22.4682801 37.8079245,22.4213982 C38.7430189,22.4448 39.6543396,22.1239838 40.454717,21.6621305 C41.8256604,20.8246742 42.689434,19.3767357 43.125283,17.8819153 C43.5928302,16.2225778 43.6562264,14.4459181 43.3075472,12.7554303 C43.0460377,11.5891746 42.6181132,10.4308238 41.8415094,9.4994471" id="Fill-45" fill="#00112C"></path>
            <path d="M48.1415015,13.5067304 C48.2048977,12.7397143 48.41886,11.9335648 48.973577,11.3700428 C49.4648977,10.8143474 50.2415015,10.6030267 50.9626336,10.6421602 C51.7313128,10.6265068 52.5792374,10.8534809 53.0705581,11.4796165 C53.5460298,12.0431385 53.6965958,12.7945012 53.728294,13.4989037 C51.8660298,13.5145571 50.0037657,13.5067304 48.1415015,13.5067304 M54.9248977,8.63069965 C53.8630109,7.84803019 52.5079166,7.5427891 51.2003694,7.51930901 C49.7343317,7.47234885 48.1890487,7.74628316 46.9845204,8.62287296 C45.9305581,9.35075556 45.1539543,10.4386661 44.7498034,11.6439771 C44.1633883,13.3501965 44.0999921,15.1973747 44.4248977,16.958381 C44.6705581,18.2653607 45.2252751,19.5332853 46.1365958,20.519527 C47.0479166,21.5212657 48.3316902,22.1395746 49.6630109,22.3508953 C50.2731996,22.4526423 50.8992374,22.4213356 51.5173506,22.4135089 C52.9437657,22.3117618 54.3860298,21.8421602 55.4716902,20.9108618 C56.4384826,20.0811539 57.1199921,18.9541881 57.4369732,17.7331455 L53.6807468,17.7331455 C53.5143317,18.0696934 53.308294,18.3984145 53.0309355,18.6566955 C52.5079166,19.1498555 51.7471619,19.3063894 51.0418789,19.2750043 C50.2652751,19.3219645 49.4648977,19.0245501 48.9577279,18.437548 C48.3554638,17.7644523 48.1969732,16.8330756 48.1415015,15.9643125 C51.3033883,15.9643125 54.4573506,15.9564858 57.6113128,15.9643125 C57.6509355,14.4068003 57.5875392,12.8101546 57.0169732,11.338736 C56.6128223,10.2586521 55.8758411,9.30379539 54.9248977,8.63069965" id="Fill-47" fill="#00112C"></path>
            <path d="M66.7324528,11.4091919 C66.7720755,10.1569208 66.7403774,8.89682292 66.7403774,7.63672509 C66.1301887,7.58976492 65.5041509,7.58976492 64.9177358,7.7697789 C63.9509434,8.02023312 63.1901887,8.73246233 62.6354717,9.52295849 C62.445283,9.77341272 62.3264151,10.0630004 62.1283019,10.3134546 C62.0886792,9.54643857 62.1203774,8.7794225 62.1124528,8.01240643 C60.9475472,7.99675304 59.7826415,8.00457973 58.6177358,8.00457973 C58.6177358,12.6536363 58.6098113,17.3026929 58.6177358,21.9517495 L62.3739623,21.9517495 L62.3739623,14.3442024 C62.3818868,13.4363058 62.7067925,12.457969 63.4833962,11.9101003 C64.4343396,11.2839648 65.6388679,11.4170186 66.7324528,11.4091919" id="Fill-49" fill="#00112C"></path>
            <path d="M86.0365721,8.44288246 C85.3788362,8.95161761 84.9351419,9.66384682 84.5151419,10.3604226 C84.5151419,9.57775318 84.5229872,8.78725702 84.5151419,8.00458756 C83.3502362,8.01241426 82.1852513,7.99676087 81.0203457,8.01241426 C81.0283494,12.6536442 81.0203457,17.3027008 81.0203457,21.9439307 C82.2724211,21.9595841 83.5245758,21.9595841 84.7766513,21.9439307 L84.7766513,14.7355449 C84.7686475,14.1720229 84.816274,13.6006742 85.0143872,13.068459 C85.2441192,12.4892836 85.6561947,11.9492416 86.2505343,11.7066141 C87.1618551,11.3152794 88.1841985,11.4170264 89.1509909,11.4091997 C89.1667608,10.1491019 89.1588362,8.89683075 89.1588362,7.63673291 C88.0653306,7.52715919 86.8844966,7.71499986 86.0365721,8.44288246" id="Fill-51" fill="#00112C"></path>
            <path d="M25.152437,8.01241426 C25.1603615,10.7752375 25.152437,13.5380607 25.152437,16.3008839 C25.1445125,16.9818063 25.0097955,17.6940355 24.5422483,18.2262507 C24.0033804,18.9384799 23.068286,19.2515477 22.1965879,19.2280676 C21.5943238,19.2358943 20.9207389,19.0558804 20.5562106,18.5471452 C20.1599842,18.01493 20.1045125,17.3340075 20.0728143,16.6922186 L20.0728143,8.00458756 L16.3007389,8.00458756 L16.3007389,17.7879558 C16.3245125,18.9228266 16.5622483,20.1359642 17.3388521,21.0203807 C17.9014936,21.6934765 18.7414936,22.0769845 19.5894181,22.2413451 C20.112437,22.3587455 20.6433804,22.319612 21.1663992,22.3274387 C22.5690408,22.3274387 23.9637577,21.7326099 24.8988521,20.6916595 C25.0018709,20.5820858 25.1048898,20.4646854 25.2237577,20.3707651 C25.2396068,20.8951536 25.2316823,21.4195421 25.2316823,21.9439307 C26.4679087,21.9595841 27.7120596,21.9517574 28.948286,21.9517574 L28.948286,8.00458756 C27.6803615,8.00458756 26.412437,7.99676087 25.152437,8.01241426" id="Fill-53" fill="#00112C"></path>
            <g id="Group-57" transform="translate(89.388679, 7.939321)" fill="#00112C">
                <path d="M10.1038053,0.073093501 C9.34297132,2.78895653 8.54267321,5.49699287 7.75806566,8.20502921 C7.55995245,8.83116478 7.43323925,9.48078043 7.17965434,10.0912626 C6.19693358,6.74926401 5.19059774,3.4150921 4.20795623,0.0652668064 L0.0712732075,0.0652668064 C1.75919774,4.79259036 3.46297132,9.51208721 5.15097509,14.2315841 C5.36485811,15.0299069 5.06372604,16.0395505 4.27127321,16.4152319 C3.6136166,16.7517797 2.85286189,16.6265526 2.14757887,16.6265526 C2.13165057,16.6735128 2.10795623,16.7674331 2.09202792,16.8143933 C2.09202792,17.7535966 2.1000317,18.6849733 2.09202792,19.6241767 C2.80523547,19.6476567 3.51844302,19.7885372 4.23165057,19.6867902 C4.6755034,19.63983 5.11927698,19.6320034 5.55512604,19.5537364 C6.20493736,19.3815491 6.82305057,19.0215212 7.25097509,18.4893059 C7.75806566,17.8318636 8.08305057,17.0570208 8.34456,16.2743514 C10.2464468,10.8739321 12.1561789,5.47351279 14.0502204,0.0652668064 C12.7346694,0.0652668064 11.419277,0.0574401118 10.1038053,0.073093501" id="Fill-55"></path>
            </g>
            <path d="M104.936572,19.0636836 L101.830236,19.0636836 C101.814387,20.0890588 101.814387,21.1221043 101.830236,22.1474013 L104.936572,22.1474013 C104.952421,21.1221043 104.952421,20.0890588 104.936572,19.0636836" id="Fill-58" fill="#00112C"></path>
        </g>
    </g>
</svg>